<svg width="450" height="450" viewBox="0 0 450 450" fill="none" xmlns="http://www.w3.org/2000/svg">
<circle cx="200" cy="164" r="149" fill="#FFC7C7"/>
<path d="M176.595 292.78C155.098 262.325 121.159 242.311 121.14 178.897C121.14 178.863 121.141 178.857 121.138 178.822C121.031 177.724 117.187 135.278 158.64 92.3441C197.361 52.2403 240.332 54.6339 246.805 55.2521C247.302 55.2996 247.64 55.716 247.64 56.2153V353.844C247.64 354.396 247.192 354.844 246.64 354.844H206.14H198.294C198.192 354.844 198.096 354.83 197.999 354.797C196.811 354.387 188.46 351.269 186.14 343.844C183.642 335.85 192.627 325.36 176.676 292.916C176.653 292.869 176.625 292.823 176.595 292.78Z" fill="#EAEAEA"/>
<path d="M290.781 353.803C292.474 355.704 300.909 366.328 290.5 379C302.337 388.561 292.617 401.024 290.784 403.177C290.604 403.388 290.342 403.5 290.064 403.5H281V425.5C281 435.5 214 436 214 425.5V403.5H206.404C206.145 403.5 205.903 403.406 205.724 403.219C203.829 401.23 193.186 389.068 206 379C190 366.5 206 353.5 206 353.5H290.086C290.351 353.5 290.604 353.605 290.781 353.803Z" fill="#B5A19C"/>
<path d="M247.5 54C247.5 54 200.5 47.5 158.5 91C117.047 133.933 120.891 176.38 120.998 177.478C121.001 177.513 121 177.519 121 177.553C121.019 240.967 154.958 260.98 176.455 291.436C176.485 291.479 176.512 291.525 176.536 291.572C192.487 324.016 183.502 334.506 186 342.5C188.32 349.925 196.671 353.043 197.859 353.453C197.956 353.486 198.052 353.5 198.154 353.5H206M290.5 379C300.909 366.328 292.474 355.704 290.781 353.803C290.604 353.605 290.351 353.5 290.086 353.5H206M290.5 379C302.337 388.561 292.617 401.024 290.784 403.177C290.604 403.388 290.342 403.5 290.064 403.5H281M290.5 379H206M206 379C193.186 389.068 203.829 401.23 205.724 403.219C205.903 403.406 206.145 403.5 206.404 403.5H214M206 379C190 366.5 206 353.5 206 353.5M281 403.5C281 403.5 281 415.5 281 425.5C281 435.5 214 436 214 425.5C214 415 214 403.5 214 403.5M281 403.5H214" stroke="black" stroke-width="16" stroke-linecap="round"/>
<path d="M248.5 353.5V226.361C248.5 226.128 248.418 225.902 248.269 225.722L214.447 185.038C214.179 184.715 213.737 184.594 213.341 184.736L180.5 196.5" stroke="black" stroke-width="16" stroke-linecap="round"/>
<path d="M212 86.5C206.833 87 195 90 189 98M171.5 115.5C166.667 119 156.2 129.8 153 145" stroke="white" stroke-width="16" stroke-linecap="round"/>
<circle cx="70" cy="95" r="17" stroke="black" stroke-width="16"/>
<path d="M129 16C129 16 140.275 27.8848 147.5 35.5M147.5 16C147.5 16 136.225 27.8848 129 35.5" stroke="black" stroke-width="16" stroke-linecap="round"/>
<circle cx="55" cy="185" r="10" fill="black"/>
<path d="M274 310.054V67.4141C274 67.1489 274.098 66.902 274.293 66.7222C276.39 64.7878 289.518 53.5903 306 59.9999C324 66.9999 324 91.9843 324 91.9843C326.664 91.0249 329.807 90.3401 333.5 89.9999C371.5 86.4999 364 128.387 364 128.387C374.087 129.891 405.5 137.011 405.5 169.5C405.5 209 375 217.5 375 217.5C388.826 241.137 365.655 255.625 360.488 258.479C359.96 258.771 359.782 259.447 360.076 259.973C362.61 264.509 371.815 283.952 352.5 298C330.5 314 315.766 303 315.766 303C315.428 304.217 315.032 305.478 314.575 306.786C314.526 306.927 314.442 307.058 314.336 307.163C297.866 323.477 281.045 316.554 274.331 310.79C274.115 310.605 274 310.338 274 310.054Z" fill="#FFDED5"/>
<path d="M297.5 269.5C297.5 269.98 324.187 272.76 315.766 303M315.766 303C315.428 304.217 315.032 305.478 314.575 306.786C314.526 306.927 314.442 307.058 314.336 307.163C297.866 323.477 281.045 316.554 274.331 310.79C274.115 310.605 274 310.338 274 310.054V67.4141C274 67.1489 274.098 66.902 274.293 66.7222C276.39 64.7878 289.518 53.5903 306 59.9999C324 66.9999 324 91.9843 324 91.9843M315.766 303C315.766 303 330.5 314 352.5 298C371.815 283.952 362.61 264.509 360.076 259.973C359.782 259.447 359.96 258.771 360.488 258.479C365.655 255.625 388.826 241.137 375 217.5M375 217.5C359.5 191 330.5 215 330.5 215M375 217.5C375 217.5 405.5 209 405.5 169.5C405.5 137.011 374.087 129.891 364 128.387M363.5 128C363.5 128 361.823 128.063 364 128.387M364 128.387C364 128.387 371.5 86.4999 333.5 89.9999C329.807 90.3401 326.664 91.0249 324 91.9843M315.766 133.5C315.766 133.5 299.248 100.897 324 91.9843" stroke="black" stroke-width="16" stroke-linecap="round"/>
</svg>
