<svg width="501" height="500" viewBox="0 0 501 500" fill="none" xmlns="http://www.w3.org/2000/svg">
<circle cx="170" cy="169" r="168" fill="#C1DBDC"/>
<circle cx="310.881" cy="260.961" r="12.4971" fill="#FC8C29" stroke="black" stroke-width="16"/>
<circle cx="386.197" cy="253.334" r="12.4971" fill="#FC8C29" stroke="black" stroke-width="16"/>
<circle cx="330.902" cy="203.76" r="12.4971" fill="#FC8C29" stroke="black" stroke-width="16"/>
<circle cx="275.607" cy="86.4971" r="12.4971" fill="#FC8C29" stroke="black" stroke-width="16"/>
<circle cx="351.876" cy="135.118" r="12.4971" fill="#FC8C29" stroke="black" stroke-width="16"/>
<circle cx="469.138" cy="266.681" r="12.4971" fill="#FC8C29" stroke="black" stroke-width="16"/>
<circle cx="407.17" cy="328.649" r="12.4971" fill="#FC8C29" stroke="black" stroke-width="16"/>
<circle cx="350.922" cy="391.571" r="12.4971" fill="#FC8C29" stroke="black" stroke-width="16"/>
<circle cx="275.607" cy="453.539" r="12.4971" fill="#FC8C29" stroke="black" stroke-width="16"/>
<circle cx="297.534" cy="397.291" r="12.4971" fill="#FC8C29" stroke="black" stroke-width="16"/>
<circle cx="330.902" cy="321.976" r="12.4971" fill="#FC8C29" stroke="black" stroke-width="16"/>
<circle cx="410.984" cy="401.104" r="12.4971" fill="#FC8C29" stroke="black" stroke-width="16"/>
<path d="M395.73 243.324L415.939 224.525C416.124 224.353 416.368 224.257 416.62 224.257H448.641M448.641 224.257L462.942 253.811M448.641 224.257V166.626C448.641 166.073 448.212 165.626 447.66 165.626C442.288 165.626 416.061 165.626 398.59 165.626M342.819 198.516L378.283 165.89C378.467 165.72 378.702 165.626 378.953 165.626C381.079 165.626 391.591 165.626 398.59 165.626M398.59 165.626C398.59 147.834 398.59 121.893 398.59 116.556C398.59 116.004 398.142 115.574 397.59 115.574H349.062C348.51 115.574 348.062 115.127 348.062 114.574V83.207C348.062 82.6547 347.615 82.207 347.062 82.207H287.524" stroke="black" stroke-width="16" stroke-linecap="round"/>
<path d="M272.271 149.419V229.994C272.271 230.286 272.398 230.563 272.62 230.753L298.965 253.334" stroke="black" stroke-width="16" stroke-linecap="round"/>
<path d="M281.804 290.992L264.381 313.123C264.242 313.3 264.167 313.517 264.167 313.742V398.674C264.167 399.226 264.615 399.674 265.167 399.674H283.234" stroke="black" stroke-width="16" stroke-linecap="round"/>
<path d="M348.062 405.394V434.471M288.478 449.725H347.062C347.614 449.725 348.062 449.277 348.062 448.725V434.471M348.062 434.471H395.589C395.967 434.471 396.314 434.257 396.483 433.919L406.693 413.498" stroke="black" stroke-width="16" stroke-linecap="round"/>
<path d="M413.844 317.686L420.217 309.946C420.407 309.716 420.69 309.582 420.989 309.582H455.745C456.297 309.582 456.745 310.03 456.745 310.582V364.83C456.745 365.382 456.297 365.83 455.745 365.83H379.907C379.66 365.83 379.421 365.738 379.238 365.573L340.912 331.033" stroke="black" stroke-width="16" stroke-linecap="round"/>
<path d="M190.5 70.5C165.5 70.5 152.833 89.5474 149 98.8807C140.171 97.5133 130.614 99.2712 121 104.5C99.3418 116.279 97.9262 139.818 100.125 151.718C100.268 152.496 99.4723 153.144 98.7211 152.897C38.3398 133.042 30.3592 194.146 41.4451 211.204C41.7439 211.664 41.6318 212.282 41.1992 212.619C-13.7652 255.431 12.7785 309.372 42.3961 331.552C42.7556 331.822 42.8807 332.314 42.7251 332.736C21.8526 389.235 75.536 398.746 99.6707 388.825C100.572 388.455 101.635 389.476 101.324 390.399C97.7123 401.128 95.2192 427.741 127.5 440C137.372 443.749 146.056 444.187 153.5 442.502C157.333 453.168 166 472 192 472.5C218 473 231.167 446.833 231 439V98.7108C231 98.5718 230.973 98.4375 230.916 98.3107C225.842 86.982 211.717 70.5 190.5 70.5Z" fill="#9DC1E4"/>
<path d="M149 98.8807C152.833 89.5474 165.5 70.5 190.5 70.5C211.717 70.5 225.842 86.982 230.916 98.3107C230.973 98.4375 231 98.5718 231 98.7108V439C231.167 446.833 218 473 192 472.5C166 472 157.333 453.168 153.5 442.502M185.5 402C187.5 417 167 455 127.5 440C95.2192 427.741 97.7123 401.128 101.324 390.399C101.635 389.476 100.572 388.455 99.6707 388.825C75.536 398.746 21.8526 389.235 42.7251 332.736C42.8807 332.314 42.7556 331.822 42.3961 331.552C12.7785 309.372 -13.7652 255.431 41.1992 212.619C41.6318 212.282 41.7439 211.664 41.4451 211.204C30.3592 194.146 38.3398 133.042 98.7211 152.897C99.4723 153.144 100.268 152.496 100.125 151.718C97.9262 139.818 99.3418 116.279 121 104.5C149.5 89 177.5 104 187.5 140.5" stroke="black" stroke-width="16" stroke-linecap="round"/>
<path d="M185.515 141.792C185.515 141.792 183.609 96.984 137.371 101.274C91.1332 105.564 100.19 163.242 104.003 155.615" stroke="black" stroke-width="16" stroke-linecap="round"/>
<path d="M103.05 156.569C103.05 156.569 76.3561 136.548 52.0456 160.382C27.735 184.216 45.3721 213.77 45.3721 213.77" stroke="black" stroke-width="16" stroke-linecap="round"/>
<path d="M44.8956 213.77C44.8956 213.77 12.4816 227.117 12.0049 268.588C11.5282 310.059 45.849 329.602 45.849 329.602" stroke="black" stroke-width="16" stroke-linecap="round"/>
<path d="M43.9423 329.602C43.9423 329.602 28.2119 361.063 53.9525 382.037C79.6931 403.011 102.097 383.944 102.097 383.944" stroke="black" stroke-width="16" stroke-linecap="round"/>
<path d="M101.62 384.42C101.62 384.42 90.6567 429.228 133.558 439.238C176.458 449.248 185.515 399.674 185.515 399.674" stroke="black" stroke-width="16" stroke-linecap="round"/>
<path d="M153.101 98.8907C153.101 98.8907 158.345 74.1035 189.805 72.6735C221.266 71.2434 230.8 106.994 230.8 106.994V433.995C230.8 433.995 222.696 465.455 193.142 468.315C163.588 471.176 152.148 441.622 152.148 441.622" stroke="black" stroke-width="16" stroke-linecap="round"/>
<path d="M87.7966 337.229C88.5911 324.836 94.3748 300.716 122.594 299.572" stroke="black" stroke-width="16" stroke-linecap="round"/>
<path d="M83.983 253.334C83.983 253.334 109.247 254.287 108.77 228.547C108.294 202.806 80.6462 203.76 80.6462 203.76" stroke="black" stroke-width="16" stroke-linecap="round"/>
<path d="M143.091 198.04C151.036 197.404 164.923 192.319 164.542 177.066" stroke="black" stroke-width="16" stroke-linecap="round"/>
<path d="M178.842 225.687C178.842 225.687 181.702 239.987 192.189 248.091C202.676 256.194 227.463 253.334 227.463 253.334" stroke="black" stroke-width="16" stroke-linecap="round"/>
<path d="M142.138 274.308C142.138 274.308 155.008 268.588 173.598 281.935C192.189 295.282 183.132 315.779 195.049 324.836C206.966 333.893 230.323 330.079 230.323 330.079" stroke="black" stroke-width="16" stroke-linecap="round"/>
<path d="M144.521 337.706C143.886 348.511 148.621 370.406 172.645 371.55" stroke="black" stroke-width="16" stroke-linecap="round"/>
</svg>
