<svg xmlns="http://www.w3.org/2000/svg" viewBox="0 0 500 500"><g id="freepik--Shadow--inject-134"><ellipse id="freepik--path--inject-134" cx="250" cy="416.24" rx="193.89" ry="11.32" style="fill:#f5f5f5;"></ellipse></g><g id="freepik--banknotes-2--inject-134"><path d="M171.92,124.41c-9.57-5.36-18.33-16.92-25.87-19.41a98.53,98.53,0,0,1,8.35-14.17c7.54,7.31,16.3,20.16,25.87,19.4A100.19,100.19,0,0,1,171.92,124.41Z" style="fill:#92E3A9;"></path><path d="M171.92,124.41c-9.57-5.36-18.33-16.92-25.87-19.41a98.53,98.53,0,0,1,8.35-14.17c7.54,7.31,16.3,20.16,25.87,19.4A100.19,100.19,0,0,1,171.92,124.41Z" style="fill:#fff;opacity:0.5;isolation:isolate;"></path><path d="M178,113.29c-1-.12-1.33-1.22-.71-2.32-7.72-1.66-14.88-11-21.24-17.41a1.73,1.73,0,0,1-2.63.09,97.69,97.69,0,0,0-5.21,8.57,2.18,2.18,0,0,1,.36,2.93c6.37,3.4,13.52,12,21.25,17.17a2.5,2.5,0,0,1,3-.53h0a97.72,97.72,0,0,0,5.2-8.51ZM160.06,111c-1.9-1.77-2.34-4.5-1.06-6.1s3.81-1.28,5.71.55,2.44,4.44,1.16,6S162,112.79,160.06,111Z" style="opacity:0.2;isolation:isolate;"></path><g style="opacity:0.2;isolation:isolate;"><path d="M161.51,110l-.34.41-.38-.35c.12-.14.23-.28.35-.41a3.49,3.49,0,0,1-.86-1.38l.52-.18a3,3,0,0,0,.67,1.16l.61-.74c-.42-.58-.85-1.24-.42-1.75s.93-.37,1.68.26c.12-.13.23-.27.35-.41l.37.36-.34.41a3.49,3.49,0,0,1,.74,1.1l-.5.2a3.35,3.35,0,0,0-.57-.91l-.62.74c.42.58.87,1.24.44,1.75S162.28,110.66,161.51,110Zm1-1.93.54-.65c-.35-.27-.6-.27-.73-.11S162.25,107.79,162.46,108.11Zm.14,1.66c.15-.18,0-.45-.21-.78l-.54.65C162.22,109.92,162.46,109.93,162.6,109.77Z"></path></g><path d="M254,166.73c-8.8,4.74-22.12,5.34-27.68,10.05A108.73,108.73,0,0,1,219.06,162c9.39-2,23.74-1.87,27.68-10.06A109.37,109.37,0,0,1,254,166.73Z" style="fill:#92E3A9;"></path><path d="M254,166.73c-8.8,4.74-22.12,5.34-27.68,10.05A108.73,108.73,0,0,1,219.06,162c9.39-2,23.74-1.87,27.68-10.06A109.37,109.37,0,0,1,254,166.73Z" style="fill:#fff;opacity:0.5;isolation:isolate;"></path><path d="M248.07,155.57c-.58.76-1.6.39-2.17-.73-5,5.32-15.76,5.9-23.9,7.42a1.62,1.62,0,0,1-1.18,2.19c1.2,2.84,2.6,5.82,4.32,9,.78-.39,1.91.22,2.5,1.37,5.72-3.25,15.91-4.23,23.71-7.56a2.43,2.43,0,0,1,1-2.72h0c-1.19-2.83-2.58-5.8-4.28-9ZM237.75,168.8a4.5,4.5,0,0,1-5.34-2.58c-.67-1.94.79-3.8,3.15-4.31s4.68.52,5.31,2.44S240.07,168.27,237.75,168.8Z" style="opacity:0.2;isolation:isolate;"></path><g style="opacity:0.2;isolation:isolate;"><path d="M237.68,167.08c.06.17.11.34.16.51l-.46.11c0-.17-.11-.34-.16-.51a3.15,3.15,0,0,1-1.5-.08c0-.18.07-.35.11-.52a2.48,2.48,0,0,0,1.23.1c-.09-.3-.19-.6-.29-.91-.66,0-1.39,0-1.59-.65-.15-.46.14-.95,1-1.21-.06-.17-.11-.34-.17-.51l.47-.1c0,.17.1.34.16.51a3,3,0,0,1,1.23,0l-.09.51a3,3,0,0,0-1,0c.1.3.2.61.29.92.67,0,1.4,0,1.6.62C238.84,166.31,238.54,166.81,237.68,167.08Zm-1.08-1.85c-.09-.27-.17-.54-.26-.81-.38.14-.5.34-.44.54S236.25,165.22,236.6,165.23Zm1.38.82c-.07-.22-.35-.27-.71-.27.08.27.17.54.25.8C237.92,166.44,238,166.25,238,166.05Z"></path></g><path d="M325.93,103.72c-10.38,3.5-20.59,7.83-28.32,14.58-2.74-4.06-5.56-8.19-8.13-12.52C298.13,99.17,308.22,95,317.8,91.2,320.54,95.26,323.36,99.39,325.93,103.72Z" style="fill:#92E3A9;"></path><path d="M325.93,103.72c-10.38,3.5-20.59,7.83-28.32,14.58-2.74-4.06-5.56-8.19-8.13-12.52C298.13,99.17,308.22,95,317.8,91.2,320.54,95.26,323.36,99.39,325.93,103.72Z" style="fill:#fff;opacity:0.5;isolation:isolate;"></path><path d="M318.6,93.79a2.6,2.6,0,0,1-3-.91c-7.94,3.21-16.1,6.76-23.38,11.85a2.35,2.35,0,0,1-.63,3c1.64,2.65,3.35,5.23,5.06,7.78a1.78,1.78,0,0,1,2.67.41c6.74-5.2,15-8.86,23.4-11.89a1.63,1.63,0,0,1,.95-2.45h0c-1.64-2.64-3.36-5.22-5.06-7.77Zm-9.76,13.15a4.56,4.56,0,0,1-5.9-1.44,3.8,3.8,0,0,1,1.7-5.42,4.71,4.71,0,0,1,6,1.61A3.65,3.65,0,0,1,308.84,106.94Z" style="opacity:0.2;isolation:isolate;"></path><g style="opacity:0.2;isolation:isolate;"><path d="M308.26,105.14l.31.51-.42.2-.31-.5a2.82,2.82,0,0,1-1.47.25c0-.19,0-.39-.05-.58a2.41,2.41,0,0,0,1.22-.16c-.18-.31-.37-.61-.56-.91-.64.16-1.34.3-1.72-.33-.29-.46-.16-1.06.59-1.52l-.32-.52.42-.2.31.5a2.74,2.74,0,0,1,1.2-.22c0,.18.05.37.08.56a2.73,2.73,0,0,0-1,.15l.56.92c.64-.15,1.36-.29,1.75.34C309.15,104.09,309,104.67,308.26,105.14Zm-1.61-1.74-.5-.81c-.33.23-.38.47-.26.67S306.3,103.47,306.65,103.4Zm1.59.58c-.14-.22-.43-.21-.78-.14l.49.8C308.29,104.41,308.36,104.18,308.24,104Z"></path></g><path d="M143.18,210.33c-7.56-7.88-19.85-7.14-27.41-15q3.57-6.52,7.15-13.05c7.56,7.88,19.85,7.15,27.41,15Q146.76,203.81,143.18,210.33Z" style="fill:#92E3A9;"></path><path d="M143.18,210.33c-7.56-7.88-19.85-7.14-27.41-15q3.57-6.52,7.15-13.05c7.56,7.88,19.85,7.15,27.41,15Q146.76,203.81,143.18,210.33Z" style="fill:#fff;opacity:0.5;isolation:isolate;"></path><path d="M148.4,199.16a2.69,2.69,0,0,1-.6-3.13c-6.84-5.3-16.28-5.85-23.12-11.16a1.56,1.56,0,0,1-2.54.42l-4.45,8.14a2.69,2.69,0,0,1,.59,3.12c6.84,5.31,16.28,5.86,23.12,11.17a1.56,1.56,0,0,1,2.54-.43h0l4.45-8.13Zm-17.4.5a3.49,3.49,0,0,1-1.93-5.1A5,5,0,0,1,135,192.4a3.47,3.47,0,0,1,1.94,5.08A5,5,0,0,1,131,199.66Z" style="opacity:0.2;isolation:isolate;"></path><g style="opacity:0.2;isolation:isolate;"><path d="M132.35,198.11c-.09.18-.19.36-.29.54l-.43-.16.29-.53a2.16,2.16,0,0,1-1.06-.86l.5-.4a1.9,1.9,0,0,0,.85.74c.17-.32.35-.64.53-1-.51-.34-1-.74-.67-1.41a1.43,1.43,0,0,1,1.74-.55l.3-.55.43.16-.3.53a2.05,2.05,0,0,1,.9.68l-.48.4a2.09,2.09,0,0,0-.7-.56l-.53,1c.51.34,1,.74.68,1.41A1.46,1.46,0,0,1,132.35,198.11Zm.7-2.21.47-.86c-.4-.08-.65,0-.76.25S132.8,195.7,133.05,195.9Zm.37,1.46c.13-.24,0-.43-.31-.63l-.47.85C133.05,197.67,133.3,197.56,133.42,197.36Z"></path></g><path d="M390.53,170.24c-7.14,8.62-19.44,4-26.58,10.89-2.61-4.73-5.22-9.28-7.83-13.5,7.14-8.62,19.44-4,26.58-10.89C385.31,161.47,387.92,166,390.53,170.24Z" style="fill:#92E3A9;"></path><path d="M390.53,170.24c-7.14,8.62-19.44,4-26.58,10.89-2.61-4.73-5.22-9.28-7.83-13.5,7.14-8.62,19.44-4,26.58-10.89C385.31,161.47,387.92,166,390.53,170.24Z" style="fill:#fff;opacity:0.5;isolation:isolate;"></path><path d="M383.62,159.91c-.79.71-2,.28-2.56-.81-6.55,4.22-15.95,1.93-22.49,7.25a2.66,2.66,0,0,1-.43,3.13c1.62,2.73,3.25,5.57,4.88,8.49.79-.71,2-.28,2.56.8,6.54-4.22,15.94-1.93,22.49-7.24a2.63,2.63,0,0,1,.43-3.12l0,0c-1.63-2.72-3.26-5.57-4.88-8.49Zm-8.41,12.94c-2.14.29-4.81-1.26-6-3.51s-.48-4.44,1.65-4.74,4.82,1.27,6,3.52S377.35,172.55,375.21,172.85Z" style="opacity:0.2;isolation:isolate;"></path><g style="opacity:0.2;isolation:isolate;"><path d="M374.6,170.86l.32.61-.41.06-.33-.61a2.92,2.92,0,0,1-1.49-.27l-.06-.59a2.58,2.58,0,0,0,1.24.27l-.57-1.09a2,2,0,0,1-1.76-.94.81.81,0,0,1,.58-1.29l-.33-.62.42-.06.32.61a2.86,2.86,0,0,1,1.22.18c0,.2.05.39.08.58a2.68,2.68,0,0,0-1-.17l.59,1.1a2,2,0,0,1,1.76.93A.82.82,0,0,1,374.6,170.86ZM373,168.58l-.52-1c-.33.12-.38.34-.25.58A.93.93,0,0,0,373,168.58Zm1.62,1.12a1,1,0,0,0-.79-.41l.51,1C374.63,170.15,374.69,169.94,374.57,169.7Z"></path></g></g><g id="freepik--banknotes-1--inject-134"><path d="M347,237.52A537.08,537.08,0,0,1,235.08,384.4l-69.91-53.28a536.88,536.88,0,0,0,112-146.88Z" style="fill:#92E3A9;"></path><path d="M347,237.52q-3.52,6.81-7.26,13.5A536.65,536.65,0,0,1,235.08,384.4l-69.91-53.28a536.88,536.88,0,0,0,112-146.88Z" style="fill:#fff;opacity:0.2;isolation:isolate;"></path><path d="M288.1,198.47a10,10,0,0,1-15.28,3.32A537,537,0,0,1,180.88,322.4a9.94,9.94,0,0,1,.85,15.6l43.57,33.21a14.51,14.51,0,0,1,18.18-1.1A536.71,536.71,0,0,0,335.42,249.5c-5.25-4-6.86-11.94-3.75-17.82l.05-.09-43.58-33.21Zm-8,105.53c-8.23,10.77-24.08,12.5-34.81,4.32s-12.33-23.2-4.09-34,23.17-13.2,33.92-5S288.39,293.23,280.14,304Z" style="opacity:0.2;isolation:isolate;"></path><g style="opacity:0.2;isolation:isolate;"><path d="M272.62,295l2.89,2.2-1.62,2.12L271,297.11c-2.09,2.42-4.82,4.22-7,4.66l-1.7-3.13a12.37,12.37,0,0,0,5.95-3.65l-5.16-3.93c-2.88,2.34-6.21,4.68-9.79,1.94-2.63-2-3.42-5.63-.72-9.95l-2.91-2.22c.54-.7,1.08-1.41,1.61-2.12l2.86,2.18a14.29,14.29,0,0,1,5.53-4.09l1.81,3.06a13.44,13.44,0,0,0-4.55,3.15l5.2,4c2.88-2.35,6.12-4.83,9.7-2.1C274.45,286.88,275.29,290.58,272.62,295ZM260,288.69l-4.59-3.5c-1.12,2.05-.8,3.53.34,4.39S258.39,289.85,260,288.69Zm9.6-.29c-1.26-1-2.71-.27-4.33,1l4.56,3.48C271,290.72,270.69,289.25,269.58,288.4Z"></path></g><path d="M339.77,251A536.65,536.65,0,0,1,235.08,384.4s-29.62-45.19-41.91-53.59C193.17,330.81,288.59,295.4,339.77,251Z" style="opacity:0.2;isolation:isolate;"></path><path d="M413.76,311.07a537.21,537.21,0,0,1-157.42,96.57l-46-74.92a537,537,0,0,0,157.41-96.57Q390.77,273.62,413.76,311.07Z" style="fill:#92E3A9;"></path><path d="M413.76,311.07a537.21,537.21,0,0,1-157.42,96.57l-19.87-32.38h0q-13-21.25-26.09-42.53a537,537,0,0,0,157.41-96.57Q390.77,273.62,413.76,311.07Z" style="fill:#fff;opacity:0.30000000000000004;isolation:isolate;"></path><path d="M372.89,253.38A9.94,9.94,0,0,1,357.45,251a537.25,537.25,0,0,1-129.28,79.3,9.93,9.93,0,0,1-4.84,14.85L252,391.81a14.51,14.51,0,0,1,17.35,5.54,536.61,536.61,0,0,0,129.28-79.3c-3.46-5.62-2.09-13.61,2.93-18l.08-.07L373,253.31Zm-45.5,95.54c-11.57,7.08-27,3-34-8.53s-3.12-26.09,8.45-33.16,26.37-4,33.44,7.57S339,341.86,327.39,348.92Z" style="opacity:0.2;isolation:isolate;"></path><g style="opacity:0.2;isolation:isolate;"><path d="M323.63,337.79l1.9,3.1-2.28,1.39c-.62-1-1.25-2-1.88-3.06-2.82,1.49-6,2.19-8.23,1.81-.15-1.18-.3-2.36-.46-3.54a12.36,12.36,0,0,0,6.86-1.26q-1.69-2.76-3.38-5.52c-3.54,1.14-7.48,2.11-9.84-1.73-1.73-2.82-1.16-6.49,2.92-9.54l-1.91-3.12,2.27-1.4,1.88,3.07a14.32,14.32,0,0,1,6.63-1.82c.2,1.17.39,2.34.59,3.5a13.79,13.79,0,0,0-5.39,1.3l3.42,5.58c3.54-1.15,7.45-2.29,9.8,1.54C328.26,330.91,327.7,334.66,323.63,337.79Zm-9.52-10.42q-1.51-2.46-3-4.92c-1.79,1.51-2,3-1.27,4.22S312.21,327.88,314.11,327.37Zm9.05,3.2c-.83-1.36-2.43-1.23-4.38-.68l3,4.89C323.62,333.23,323.89,331.75,323.16,330.57Z"></path></g><path d="M413.76,311.07a537.21,537.21,0,0,1-157.42,96.57l-19.87-32.38h0L233,325.09S343.3,333.05,413.76,311.07Z" style="opacity:0.2;isolation:isolate;"></path><path d="M427.1,408.17A537.32,537.32,0,0,1,242.74,419q-2.56-43.87-5.14-87.75A536.81,536.81,0,0,0,422,320.42Q424.53,364.3,427.1,408.17Z" style="fill:#92E3A9;"></path><path d="M427.1,408.17A537.32,537.32,0,0,1,242.74,419q-2.56-43.87-5.14-87.75A536.81,536.81,0,0,0,422,320.42Q424.53,364.3,427.1,408.17Z" style="fill:#fff;opacity:0.4;isolation:isolate;"></path><path d="M418.32,338a10,10,0,0,1-12.47-9.43,536.79,536.79,0,0,1-151.4,8.85,9.94,9.94,0,0,1-11.28,10.81q1.61,27.35,3.2,54.7A14.49,14.49,0,0,1,259.05,416a536.79,536.79,0,0,0,151.4-8.85c-.39-6.59,4.59-13,11.08-14.46l.1,0L418.42,338ZM333.1,400.75c-13.54.77-25.18-10.12-26-23.59s9.57-24.47,23.11-25.24,25.11,9,25.9,22.47S346.63,400,333.1,400.75Z" style="opacity:0.2;isolation:isolate;"></path><g style="opacity:0.2;isolation:isolate;"><path d="M335,389.16l.21,3.62-2.66.16-.21-3.59a14.14,14.14,0,0,1-8.12-2.29c.43-1.11.85-2.22,1.27-3.33a12.47,12.47,0,0,0,6.64,2.13q-.18-3.24-.38-6.47c-3.65-.67-7.59-1.67-7.85-6.17-.19-3.3,2.05-6.26,7.08-7l-.21-3.65,2.66-.16.21,3.59a14,14,0,0,1,6.7,1.53l-1.14,3.36a13.65,13.65,0,0,0-5.36-1.4l.39,6.54c3.65.65,7.64,1.49,7.91,6C342.37,385.28,340.11,388.33,335,389.16Zm-3.47-13.69q-.18-2.87-.34-5.75c-2.29.48-3.19,1.69-3.11,3.12S329.65,375,331.57,375.47Zm6.47,7.1c-.09-1.58-1.56-2.23-3.54-2.66l.33,5.73C337.18,385.13,338.12,384,338,382.57Z"></path></g></g></svg>