<svg width="600" height="600" viewBox="0 0 600 600" fill="none" xmlns="http://www.w3.org/2000/svg">
<circle cx="329" cy="275" r="202" fill="#E2E2E2"/>
<path d="M319.5 205.5L337.5 187.25M399 141V168C399 168.552 398.552 169 398 169H355.918C355.651 169 355.394 169.107 355.206 169.298L337.5 187.25M337.5 187.25L297.5 154M134.5 205.5V176.75M134.5 148V176.75M134.5 176.75H175.479C175.806 176.75 176.111 176.591 176.299 176.323L201 141M443 268H484.75M555.5 303.5L526.8 268.367C526.61 268.135 526.326 268 526.026 268H484.75M443 349H486M201 408.5V465.526C201 465.826 201.135 466.11 201.367 466.3L224.25 485M247.5 504L224.25 485M224.25 485L247.204 449.952C247.389 449.67 247.703 449.5 248.04 449.5H297.5M484.75 268L485 222" stroke="black" stroke-width="16" stroke-linecap="round"/>
<path d="M48.5 363V431C48.5 431.552 48.9477 432 49.5 432H69M113 432H69M69 432V479.5" stroke="black" stroke-width="16" stroke-linecap="round"/>
<circle cx="313" cy="450" r="11" fill="#DDC700" stroke="black" stroke-width="12"/>
<circle cx="259" cy="510" r="11" fill="#DDC700" stroke="black" stroke-width="12"/>
<circle cx="69" cy="493" r="11" fill="#DDC700" stroke="black" stroke-width="12"/>
<circle cx="35" cy="428" r="11" fill="#DDC700" stroke="black" stroke-width="12"/>
<circle cx="49" cy="349" r="11" stroke="#878787" stroke-width="12"/>
<circle cx="208" cy="130" r="11" stroke="#878787" stroke-width="12"/>
<circle cx="124" cy="148" r="11" fill="#DDC700" stroke="black" stroke-width="12"/>
<circle cx="297" cy="144" r="11" fill="#DDC700" stroke="black" stroke-width="12"/>
<circle cx="400" cy="131" r="11" fill="#DDC700" stroke="black" stroke-width="12"/>
<circle cx="525" cy="268" r="19" fill="#D9D9D9" stroke="#878787" stroke-width="12"/>
<circle cx="501" cy="347" r="13" stroke="#878787" stroke-width="12"/>
<circle cx="563" cy="313" r="13" fill="#DDC700" stroke="black" stroke-width="12"/>
<path d="M96 403.5V206.5C96 205.948 96.4477 205.5 97 205.5H440C440.552 205.5 441 205.948 441 206.5V403.5C441 404.052 440.552 404.5 440 404.5H97C96.4477 404.5 96 404.052 96 403.5Z" fill="#C8FFC7" stroke="black" stroke-width="16" stroke-linecap="round"/>
<path d="M378.592 228H158C157.448 228 156.991 228.441 156.937 228.991C156.624 232.199 154.747 242.753 143.5 254C133.089 264.411 125.354 265.009 122.36 264.738C121.68 264.676 121 265.205 121 265.887V343.054C121 343.585 121.413 344.036 121.934 344.138C124.563 344.653 132.552 347.052 143.5 358C154.551 369.051 156.556 378.091 156.919 381.008C156.988 381.556 157.448 382 158 382H378.5C379.052 382 379.508 381.559 379.56 381.009C379.85 377.9 381.55 367.95 391.5 358C401.721 347.779 413.03 344.813 416.159 344.158C416.644 344.056 417 343.633 417 343.137V265.5C417 264.948 416.554 264.495 416.003 264.462C412.485 264.251 400.382 262.882 391.5 254C382.502 245.002 380.113 232.332 379.614 228.891C379.54 228.382 379.107 228 378.592 228Z" fill="#DCFFDB" stroke="#004810" stroke-width="11" stroke-linecap="round"/>
<circle cx="162" cy="305" r="17" fill="#D6DBD1" stroke="black" stroke-width="12"/>
<circle cx="376" cy="305" r="17" fill="#D6DBD1" stroke="black" stroke-width="12"/>
<circle cx="268.5" cy="302.5" r="55.5" fill="#E6F6B8" stroke="#494949" stroke-width="12"/>
<path d="M280.5 286C280.5 286 274.5 279 268.5 279M268.5 279C262.5 279 256 282 256 291.5C256 300.53 267.294 303.236 268.411 303.481C268.476 303.495 268.523 303.509 268.583 303.536C269.644 303.997 280.5 308.915 280.5 317C280.5 325.5 274.5 327 268.5 328M268.5 279V268M268.5 328C262.5 329 256 319 256 319M268.5 328C268.5 328 268.5 335.095 268.5 339" stroke="#575757" stroke-width="11" stroke-linecap="round"/>
</svg>
