<svg width="24" height="24" viewBox="0 0 24 24" fill="none" xmlns="http://www.w3.org/2000/svg">
<path d="M10.4425 17.0647C10.8234 17.4646 11.4564 17.48 11.8563 17.0991C12.2563 16.7183 12.2717 16.0853 11.8908 15.6853L10.4425 17.0647ZM7 12L6.27586 11.3103C5.90805 11.6966 5.90805 12.3034 6.27586 12.6897L7 12ZM11.8908 8.31466C12.2717 7.91472 12.2563 7.28175 11.8563 6.90086C11.4564 6.51998 10.8234 6.53541 10.4425 6.93534L11.8908 8.31466ZM17 13C17.5523 13 18 12.5523 18 12C18 11.4477 17.5523 11 17 11V13ZM11.8908 15.6853L7.72414 11.3103L6.27586 12.6897L10.4425 17.0647L11.8908 15.6853ZM7.72414 12.6897L11.8908 8.31466L10.4425 6.93534L6.27586 11.3103L7.72414 12.6897ZM7 13H17V11H7V13Z" fill="black"/>
</svg>
