<svg width="24" height="24" viewBox="0 0 24 24" fill="none" xmlns="http://www.w3.org/2000/svg">
<path d="M13.5575 6.93534C13.1766 6.53541 12.5436 6.51998 12.1437 6.90086C11.7437 7.28175 11.7283 7.91472 12.1092 8.31466L13.5575 6.93534ZM17 12L17.7241 12.6897C18.092 12.3034 18.092 11.6966 17.7241 11.3103L17 12ZM12.1092 15.6853C11.7283 16.0853 11.7437 16.7183 12.1437 17.0991C12.5436 17.48 13.1766 17.4646 13.5575 17.0647L12.1092 15.6853ZM7 11C6.44772 11 6 11.4477 6 12C6 12.5523 6.44772 13 7 13L7 11ZM12.1092 8.31466L16.2759 12.6897L17.7241 11.3103L13.5575 6.93534L12.1092 8.31466ZM16.2759 11.3103L12.1092 15.6853L13.5575 17.0647L17.7241 12.6897L16.2759 11.3103ZM17 11L7 11L7 13L17 13V11Z" fill="black"/>
</svg>
