<svg width="24" height="24" viewBox="0 0 24 24" fill="none" xmlns="http://www.w3.org/2000/svg">
<path d="M3.11877 16.4281L2.31144 15.838L2.31144 15.838L3.11877 16.4281ZM4.42712 12.5727L3.42712 12.5609V12.5727H4.42712ZM4.45458 10.2417L5.45458 10.2534V10.2417H4.45458ZM20.8882 16.4468L21.7071 15.8729L21.7071 15.8729L20.8882 16.4468ZM19.6291 12.5727L18.6291 12.5603V12.5727H19.6291ZM19.6566 10.3572L20.6566 10.3696V10.3572H19.6566ZM9.60379 19.8331C9.16354 19.4996 8.53632 19.5862 8.20286 20.0264C7.86939 20.4667 7.95596 21.0939 8.39621 21.4273L9.60379 19.8331ZM15.6038 21.4273C16.044 21.0939 16.1306 20.4667 15.7971 20.0264C15.4637 19.5862 14.8365 19.4996 14.3962 19.8331L15.6038 21.4273ZM3.9261 17.0182C4.6783 15.9891 5.42712 14.4509 5.42712 12.5727H3.42712C3.42712 13.9118 2.89076 15.0454 2.31144 15.838L3.9261 17.0182ZM5.42705 12.5845L5.45451 10.2534L3.45465 10.2299L3.42719 12.5609L5.42705 12.5845ZM21.7071 15.8729C21.1521 15.081 20.6291 13.9346 20.6291 12.5727H18.6291C18.6291 14.4503 19.347 15.9902 20.0693 17.0208L21.7071 15.8729ZM20.629 12.5851L20.6565 10.3696L18.6566 10.3448L18.6292 12.5603L20.629 12.5851ZM20.6566 10.3572C20.6566 5.44687 16.8168 1.3999 12 1.3999V3.3999C15.6404 3.3999 18.6566 6.47812 18.6566 10.3572H20.6566ZM20.43 18.5271C21.2093 18.5271 21.6799 17.9621 21.8636 17.5136C22.0489 17.0611 22.0871 16.415 21.7071 15.8729L20.0693 17.0208C20.0152 16.9435 20.0024 16.8732 20.0004 16.8364C19.9984 16.8011 20.0044 16.776 20.0128 16.7555C20.0207 16.7364 20.0439 16.6894 20.1059 16.6388C20.175 16.5824 20.2889 16.5271 20.43 16.5271V18.5271ZM5.45458 10.2417C5.45458 6.42641 8.42103 3.3999 12 3.3999V1.3999C7.24454 1.3999 3.45458 5.39516 3.45458 10.2417H5.45458ZM3.57109 16.5271C3.71538 16.5271 3.83064 16.5846 3.89923 16.6416C3.96044 16.6925 3.98209 16.7387 3.98883 16.7556C3.99616 16.7741 4.00179 16.7975 3.99949 16.832C3.99709 16.868 3.98349 16.9397 3.9261 17.0182L2.31144 15.838C1.91422 16.3815 1.94905 17.0382 2.13011 17.494C2.30917 17.9448 2.77897 18.5271 3.57109 18.5271V16.5271ZM20.43 16.5271H3.57109V18.5271H20.43V16.5271ZM12 20.5999C11.0577 20.5999 10.22 20.2998 9.60379 19.8331L8.39621 21.4273C9.37223 22.1666 10.6373 22.5999 12 22.5999V20.5999ZM14.3962 19.8331C13.78 20.2998 12.9423 20.5999 12 20.5999V22.5999C13.3627 22.5999 14.6278 22.1666 15.6038 21.4273L14.3962 19.8331Z" fill="black"/>
</svg>
