<svg width="24" height="24" viewBox="0 0 24 24" fill="none" xmlns="http://www.w3.org/2000/svg">
<path d="M7.90701 10.6928C7.51648 10.3023 6.88332 10.3023 6.49279 10.6928C6.10227 11.0833 6.10227 11.7165 6.49279 12.107L7.90701 10.6928ZM10.1999 14.3999L10.907 15.107C11.0945 14.9195 11.1999 14.6651 11.1999 14.3999C11.1999 14.1347 11.0945 13.8803 10.907 13.6928L10.1999 14.3999ZM6.49279 16.6928C6.10227 17.0833 6.10227 17.7165 6.49279 18.107C6.88332 18.4975 7.51648 18.4975 7.90701 18.107L6.49279 16.6928ZM2.9999 6.7999C2.44762 6.7999 1.9999 7.24762 1.9999 7.7999C1.9999 8.35219 2.44762 8.7999 2.9999 8.7999V6.7999ZM20.9999 8.7999C21.5522 8.7999 21.9999 8.35219 21.9999 7.7999C21.9999 7.24762 21.5522 6.7999 20.9999 6.7999V8.7999ZM3.3999 19.1999V4.7999H1.3999V19.1999H3.3999ZM4.7999 3.3999H19.1999V1.3999H4.7999V3.3999ZM20.5999 4.7999V19.1999H22.5999V4.7999H20.5999ZM20.5999 19.1999C20.5999 19.9731 19.9731 20.5999 19.1999 20.5999V22.5999C21.0777 22.5999 22.5999 21.0777 22.5999 19.1999H20.5999ZM19.1999 3.3999C19.9731 3.3999 20.5999 4.0267 20.5999 4.7999H22.5999C22.5999 2.92213 21.0777 1.3999 19.1999 1.3999V3.3999ZM3.3999 4.7999C3.3999 4.0267 4.0267 3.3999 4.7999 3.3999V1.3999C2.92213 1.3999 1.3999 2.92213 1.3999 4.7999H3.3999ZM4.7999 20.5999C4.0267 20.5999 3.3999 19.9731 3.3999 19.1999H1.3999C1.3999 21.0777 2.92213 22.5999 4.7999 22.5999V20.5999ZM19.1999 20.5999H4.7999V22.5999H19.1999V20.5999ZM6.49279 12.107L9.49279 15.107L10.907 13.6928L7.90701 10.6928L6.49279 12.107ZM9.49279 13.6928L6.49279 16.6928L7.90701 18.107L10.907 15.107L9.49279 13.6928ZM2.9999 8.7999H20.9999V6.7999H2.9999V8.7999Z" fill="black"/>
</svg>
