<svg width="26" height="26" viewBox="0 0 26 26" fill="none" xmlns="http://www.w3.org/2000/svg">
<g clip-path="url(#clip0_581_244)">
<path d="M9.31763 11.1934H17.1301C17.5618 11.1934 17.9114 10.8438 17.9114 10.4121V9.63089C17.9114 9.19925 17.5618 8.84964 17.1301 8.84964H9.31763C8.88599 8.84964 8.53638 9.19925 8.53638 9.63089V10.4121C8.53638 10.8438 8.88599 11.1934 9.31763 11.1934ZM8.53638 15.0996C8.53638 15.5313 8.88599 15.8809 9.31763 15.8809H17.1301C17.5618 15.8809 17.9114 15.5313 17.9114 15.0996V14.3184C17.9114 13.8867 17.5618 13.5371 17.1301 13.5371H9.31763C8.88599 13.5371 8.53638 13.8867 8.53638 14.3184V15.0996ZM13.2239 21.0142C12.4221 21.0142 11.6204 20.7671 10.9358 20.2725L0.723877 12.8955V23.3028C0.723877 24.5972 1.77319 25.6465 3.06763 25.6465H23.3801C24.6746 25.6465 25.7239 24.5972 25.7239 23.3028V12.8955L15.512 20.2725C14.8274 20.7666 14.0256 21.0142 13.2239 21.0142ZM24.8259 8.60306C24.3938 8.26419 23.9841 7.94534 23.3801 7.48929V5.33401C23.3801 4.03958 22.3308 2.99026 21.0364 2.99026H17.2498C17.1013 2.88284 16.9631 2.78226 16.8083 2.66995C15.9875 2.07083 14.3567 0.629423 13.2239 0.646513C12.0911 0.629423 10.4607 2.07083 9.6394 2.66995C9.48462 2.78226 9.34644 2.88284 9.198 2.99026H5.41138C4.11694 2.99026 3.06763 4.03958 3.06763 5.33401V7.48929C2.46362 7.94485 2.05396 8.26419 1.62183 8.60306C1.34212 8.82226 1.11593 9.1022 0.960358 9.42171C0.804791 9.74122 0.723925 10.0919 0.723877 10.4473L0.723877 10.9673L5.41138 14.3535V5.33401H21.0364V14.3535L25.7239 10.9673V10.4473C25.7239 9.72757 25.3928 9.04739 24.8259 8.60306V8.60306Z" fill="black"/>
</g>
<defs>
<clipPath id="clip0_581_244">
<rect width="25" height="25" fill="white" transform="translate(0.723877 0.646484)"/>
</clipPath>
</defs>
</svg>
