<svg width="24" height="24" viewBox="0 0 24 24" fill="none" xmlns="http://www.w3.org/2000/svg">
<path d="M11.2582 2.62515L11.8184 3.45352L11.2582 2.62515ZM12.7418 2.62515L12.1816 3.45352L12.7418 2.62515ZM21.0618 8.25167L20.5016 9.08003L21.0618 8.25167ZM2.93823 8.25167L2.37804 7.4233H2.37804L2.93823 8.25167ZM7.20002 16.3999C6.64774 16.3999 6.20002 16.8476 6.20002 17.3999C6.20002 17.9522 6.64774 18.3999 7.20002 18.3999V16.3999ZM16.8 18.3999C17.3523 18.3999 17.8 17.9522 17.8 17.3999C17.8 16.8476 17.3523 16.3999 16.8 16.3999V18.3999ZM20.6 9.24369V19.774H22.6V9.24369H20.6ZM19.68 20.5999H4.32002V22.5999H19.68V20.5999ZM3.40002 19.774V9.24369H1.40002V19.774H3.40002ZM3.49843 9.08003L11.8184 3.45352L10.698 1.79679L2.37804 7.4233L3.49843 9.08003ZM12.1816 3.45352L20.5016 9.08003L21.622 7.4233L13.302 1.79679L12.1816 3.45352ZM11.8184 3.45352C11.9241 3.38203 12.0759 3.38203 12.1816 3.45352L13.302 1.79679C12.5195 1.26761 11.4806 1.26761 10.698 1.79679L11.8184 3.45352ZM4.32002 20.5999C3.76398 20.5999 3.40002 20.1834 3.40002 19.774H1.40002C1.40002 21.3815 2.7553 22.5999 4.32002 22.5999V20.5999ZM20.6 19.774C20.6 20.1834 20.2361 20.5999 19.68 20.5999V22.5999C21.2448 22.5999 22.6 21.3814 22.6 19.774H20.6ZM22.6 9.24369C22.6 8.50418 22.2233 7.82996 21.622 7.4233L20.5016 9.08003C20.5756 9.13007 20.6 9.19516 20.6 9.24369H22.6ZM3.40002 9.24369C3.40002 9.19516 3.42444 9.13007 3.49843 9.08003L2.37804 7.4233C1.77671 7.82996 1.40002 8.50418 1.40002 9.24369H3.40002ZM7.20002 18.3999H16.8V16.3999H7.20002V18.3999Z" fill="black"/>
</svg>
