<svg width="24" height="24" viewBox="0 0 24 24" fill="none" xmlns="http://www.w3.org/2000/svg">
<path d="M20.7837 15.8779L19.8691 15.4735C19.7934 15.6448 19.7672 15.8339 19.7937 16.0193L20.7837 15.8779ZM16.6981 20.3733L16.9406 19.4031C16.6927 19.3412 16.4306 19.3764 16.2079 19.5016L16.6981 20.3733ZM21.601 21.599L21.3585 22.5691C21.6815 22.6499 22.0235 22.5646 22.2707 22.3416C22.518 22.1186 22.638 21.7872 22.5909 21.4576L21.601 21.599ZM8.39917 7.3999C7.84688 7.3999 7.39917 7.84762 7.39917 8.3999C7.39917 8.95219 7.84688 9.3999 8.39917 9.3999V7.3999ZM15.5992 9.3999C16.1515 9.3999 16.5992 8.95219 16.5992 8.3999C16.5992 7.84762 16.1515 7.3999 15.5992 7.3999V9.3999ZM8.39917 12.1999C7.84688 12.1999 7.39917 12.6476 7.39917 13.1999C7.39917 13.7522 7.84688 14.1999 8.39917 14.1999V12.1999ZM12.5992 14.1999C13.1515 14.1999 13.5992 13.7522 13.5992 13.1999C13.5992 12.6476 13.1515 12.1999 12.5992 12.1999V14.1999ZM20.5992 11.9999C20.5992 13.238 20.3381 14.4125 19.8691 15.4735L21.6983 16.2822C22.2778 14.9714 22.5992 13.5218 22.5992 11.9999H20.5992ZM11.9992 3.3999C16.7488 3.3999 20.5992 7.25025 20.5992 11.9999H22.5992C22.5992 6.14568 17.8534 1.3999 11.9992 1.3999V3.3999ZM3.39917 11.9999C3.39917 7.25025 7.24952 3.3999 11.9992 3.3999V1.3999C6.14495 1.3999 1.39917 6.14568 1.39917 11.9999H3.39917ZM11.9992 20.5999C7.24952 20.5999 3.39917 16.7495 3.39917 11.9999H1.39917C1.39917 17.8541 6.14495 22.5999 11.9992 22.5999V20.5999ZM16.2079 19.5016C14.9647 20.2008 13.5301 20.5999 11.9992 20.5999V22.5999C13.8823 22.5999 15.6535 22.108 17.1882 21.2449L16.2079 19.5016ZM21.8435 20.6288L16.9406 19.4031L16.4555 21.3434L21.3585 22.5691L21.8435 20.6288ZM19.7937 16.0193L20.611 21.7404L22.5909 21.4576L21.7736 15.7364L19.7937 16.0193ZM8.39917 9.3999H15.5992V7.3999H8.39917V9.3999ZM8.39917 14.1999H12.5992V12.1999H8.39917V14.1999Z" fill="black"/>
</svg>
