<svg width="24" height="24" viewBox="0 0 24 24" fill="none" xmlns="http://www.w3.org/2000/svg">
<path d="M3 2C2.44772 2 2 2.44772 2 3C2 3.55228 2.44772 4 3 4V2ZM20 21C20 21.5523 20.4477 22 21 22C21.5523 22 22 21.5523 22 21H20ZM3 11C2.44772 11 2 11.4477 2 12C2 12.5523 2.44772 13 3 13V11ZM11 21C11 21.5523 11.4477 22 12 22C12.5523 22 13 21.5523 13 21H11ZM3 20C2.44772 20 2 20.4477 2 21C2 21.5523 2.44772 22 3 22V20ZM3.05273 22C3.60502 22 4.05273 21.5523 4.05273 21C4.05273 20.4477 3.60502 20 3.05273 20V22ZM3 4C12.3888 4 20 11.6112 20 21H22C22 10.5066 13.4934 2 3 2V4ZM3 13C7.41828 13 11 16.5817 11 21H13C13 15.4772 8.52285 11 3 11V13ZM3 22H3.05273V20H3V22Z" fill="black"/>
</svg>
