<svg width="24" height="24" viewBox="0 0 24 24" fill="none" xmlns="http://www.w3.org/2000/svg">
<path d="M20.9975 6.59737L20.2904 7.30448L20.2904 7.30448L20.9975 6.59737ZM17.4026 3.00243L16.6954 3.70954L16.6954 3.70954L17.4026 3.00243ZM15.9479 2.3999L15.9479 1.3999H15.9479V2.3999ZM21.6 8.05199H22.6V8.05198L21.6 8.05199ZM5.60002 20.3999C5.60002 20.9522 6.04774 21.3999 6.60002 21.3999C7.15231 21.3999 7.60002 20.9522 7.60002 20.3999H5.60002ZM16.4 20.9999C16.4 21.5522 16.8477 21.9999 17.4 21.9999C17.9523 21.9999 18.4 21.5522 18.4 20.9999H16.4ZM15 8.1999C15.5523 8.1999 16 7.75219 16 7.1999C16 6.64762 15.5523 6.1999 15 6.1999V8.1999ZM7.80002 7.1999V8.1999V7.1999ZM6.60002 5.9999H7.60002H6.60002ZM7.60002 2.3999C7.60002 1.84762 7.15231 1.3999 6.60002 1.3999C6.04774 1.3999 5.60002 1.84762 5.60002 2.3999L7.60002 2.3999ZM21.7046 5.89027L18.1097 2.29532L16.6954 3.70954L20.2904 7.30448L21.7046 5.89027ZM18.1097 2.29533C17.5363 1.722 16.7587 1.39991 15.9479 1.3999L15.9479 3.3999C16.2283 3.3999 16.4972 3.51128 16.6954 3.70954L18.1097 2.29533ZM15.9479 1.3999H4.45717V3.3999H15.9479V1.3999ZM4.45717 1.3999C2.76874 1.3999 1.40002 2.76862 1.40002 4.45705H3.40002C3.40002 3.87319 3.87331 3.3999 4.45717 3.3999V1.3999ZM1.40002 4.45705V19.5428H3.40002V4.45705H1.40002ZM1.40002 19.5428C1.40002 21.2312 2.76874 22.5999 4.45717 22.5999V20.5999C3.87331 20.5999 3.40002 20.1266 3.40002 19.5428H1.40002ZM4.45717 22.5999H19.5429V20.5999H4.45717V22.5999ZM19.5429 22.5999C21.2313 22.5999 22.6 21.2312 22.6 19.5428H20.6C20.6 20.1266 20.1267 20.5999 19.5429 20.5999V22.5999ZM22.6 19.5428V8.05199H20.6V19.5428H22.6ZM22.6 8.05198C22.6 7.24118 22.2779 6.46359 21.7046 5.89026L20.2904 7.30448C20.4886 7.50273 20.6 7.77162 20.6 8.05199L22.6 8.05198ZM7.60002 20.3999V14.9999H5.60002V20.3999H7.60002ZM7.80002 14.7999H16.2V12.7999H7.80002V14.7999ZM16.4 14.9999V20.9999H18.4V14.9999H16.4ZM16.2 14.7999C16.3105 14.7999 16.4 14.8894 16.4 14.9999H18.4C18.4 13.7849 17.4151 12.7999 16.2 12.7999V14.7999ZM7.60002 14.9999C7.60002 14.8894 7.68957 14.7999 7.80002 14.7999V12.7999C6.585 12.7999 5.60002 13.7849 5.60002 14.9999H7.60002ZM15 6.1999L7.80002 6.1999V8.1999L15 8.1999V6.1999ZM7.60002 5.9999V2.3999L5.60002 2.3999L5.60002 5.9999H7.60002ZM7.80002 6.1999C7.68957 6.1999 7.60002 6.11036 7.60002 5.9999H5.60002C5.60002 7.21493 6.585 8.1999 7.80002 8.1999V6.1999Z" fill="black"/>
</svg>
