<svg width="24" height="24" viewBox="0 0 24 24" fill="none" xmlns="http://www.w3.org/2000/svg">
<path d="M17.6221 16.3214C17.2252 15.9374 16.5921 15.9479 16.2081 16.3448C15.8241 16.7417 15.8346 17.3748 16.2315 17.7588L17.6221 16.3214ZM19.7047 21.1188C20.1016 21.5028 20.7347 21.4923 21.1187 21.0954C21.5027 20.6985 21.4922 20.0654 21.0953 19.6814L19.7047 21.1188ZM11.4 6.2001C10.8477 6.2001 10.4 6.64781 10.4 7.2001C10.4 7.75238 10.8477 8.2001 11.4 8.2001V6.2001ZM14 10.8001C14 11.3524 14.4477 11.8001 15 11.8001C15.5523 11.8001 16 11.3524 16 10.8001H14ZM18.28 11.4401C18.28 15.2177 15.2176 18.2801 11.44 18.2801V20.2801C16.3222 20.2801 20.28 16.3223 20.28 11.4401H18.28ZM11.44 18.2801C7.66235 18.2801 4.59998 15.2177 4.59998 11.4401H2.59998C2.59998 16.3223 6.55778 20.2801 11.44 20.2801V18.2801ZM4.59998 11.4401C4.59998 7.66247 7.66235 4.6001 11.44 4.6001V2.6001C6.55778 2.6001 2.59998 6.5579 2.59998 11.4401H4.59998ZM11.44 4.6001C15.2176 4.6001 18.28 7.66247 18.28 11.4401H20.28C20.28 6.5579 16.3222 2.6001 11.44 2.6001V4.6001ZM16.2315 17.7588L19.7047 21.1188L21.0953 19.6814L17.6221 16.3214L16.2315 17.7588ZM11.4 8.2001C12.8359 8.2001 14 9.36416 14 10.8001H16C16 8.25959 13.9405 6.2001 11.4 6.2001V8.2001Z" fill="black"/>
</svg>
