<svg width="24" height="24" viewBox="0 0 24 24" fill="none" xmlns="http://www.w3.org/2000/svg">
<path d="M2.39999 4.3998C1.84771 4.3998 1.39999 4.84752 1.39999 5.3998C1.39999 5.95209 1.84771 6.39981 2.39999 6.39981V4.3998ZM21.6 6.39981C22.1523 6.39981 22.6 5.95209 22.6 5.3998C22.6 4.84752 22.1523 4.3998 21.6 4.3998V6.39981ZM8.59999 17.3998C8.59999 17.9521 9.04771 18.3998 9.59999 18.3998C10.1523 18.3998 10.6 17.9521 10.6 17.3998H8.59999ZM10.6 10.1998C10.6 9.64752 10.1523 9.19981 9.59999 9.19981C9.04771 9.19981 8.59999 9.64752 8.59999 10.1998H10.6ZM13.4 17.3998C13.4 17.9521 13.8477 18.3998 14.4 18.3998C14.9523 18.3998 15.4 17.9521 15.4 17.3998H13.4ZM15.4 10.1998C15.4 9.64752 14.9523 9.19981 14.4 9.19981C13.8477 9.19981 13.4 9.64752 13.4 10.1998H15.4ZM16.8 21.1998H7.19999V23.1998H16.8V21.1998ZM18.2 19.7998C18.2 20.573 17.5732 21.1998 16.8 21.1998V23.1998C18.6778 23.1998 20.2 21.6776 20.2 19.7998H18.2ZM18.2 6.5998V19.7998H20.2V6.5998H18.2ZM5.79999 19.7998V6.5998H3.79999V19.7998H5.79999ZM7.19999 21.1998C6.4268 21.1998 5.79999 20.573 5.79999 19.7998H3.79999C3.79999 21.6776 5.32223 23.1998 7.19999 23.1998V21.1998ZM18 4.3998H5.99999V6.39981H18V4.3998ZM5.79999 6.5998C5.79999 6.48935 5.88954 6.39981 5.99999 6.39981V4.3998C4.78497 4.3998 3.79999 5.38478 3.79999 6.5998H5.79999ZM20.2 6.5998C20.2 5.38478 19.215 4.3998 18 4.3998V6.39981C18.1104 6.39981 18.2 6.48935 18.2 6.5998H20.2ZM2.39999 6.39981H21.6V4.3998H2.39999V6.39981ZM9.59999 2.7998H14.4V0.799805H9.59999V2.7998ZM14.6 2.9998V4.1998H16.6V2.9998H14.6ZM14.4 4.3998H9.59999V6.39981H14.4V4.3998ZM9.39999 4.1998V2.9998H7.39999V4.1998H9.39999ZM9.59999 4.3998C9.48954 4.3998 9.39999 4.31026 9.39999 4.1998H7.39999C7.39999 5.41483 8.38497 6.39981 9.59999 6.39981V4.3998ZM14.6 4.1998C14.6 4.31026 14.5105 4.3998 14.4 4.3998V6.39981C15.615 6.39981 16.6 5.41483 16.6 4.1998H14.6ZM14.4 2.7998C14.5105 2.7998 14.6 2.88935 14.6 2.9998H16.6C16.6 1.78478 15.615 0.799805 14.4 0.799805V2.7998ZM9.59999 0.799805C8.38497 0.799805 7.39999 1.78478 7.39999 2.9998H9.39999C9.39999 2.88935 9.48954 2.7998 9.59999 2.7998V0.799805ZM10.6 17.3998V10.1998H8.59999V17.3998H10.6ZM15.4 17.3998V10.1998H13.4V17.3998H15.4Z" fill="black"/>
</svg>
