<svg width="47" height="47" viewBox="0 0 47 47" fill="none" xmlns="http://www.w3.org/2000/svg">
<path d="M23.5 0.550842C10.8177 0.550842 0.5 10.8686 0.5 23.5508C0.5 36.2331 10.8177 46.5508 23.5 46.5508C36.1823 46.5508 46.5 36.2331 46.5 23.5508C46.5 10.8686 36.1823 0.550842 23.5 0.550842ZM38.7069 11.1574C41.4431 14.5003 43.1 18.7582 43.1432 23.3951C42.4955 23.2581 36.0004 21.9408 29.4636 22.7628C28.9301 21.4606 28.4266 20.3151 27.737 18.9035C35.0006 15.9378 38.2927 11.7176 38.7069 11.1574ZM36.5229 8.88556C36.1696 9.38887 33.2123 13.3637 26.2266 15.9821C23.0074 10.0674 19.4393 5.20844 18.8963 4.48134C25.1263 2.97957 31.6915 4.59912 36.5229 8.88556ZM15.1478 5.80189C15.6657 6.5122 19.1763 11.3772 22.4314 17.1636C13.2419 19.6039 5.14804 19.5688 4.2694 19.5572C5.54331 13.461 9.65159 8.39431 15.1478 5.80189ZM3.85448 23.5808C3.85448 23.3799 3.85846 23.18 3.86449 22.9805C4.72402 22.9981 14.2442 23.1208 24.055 20.1847C24.6174 21.2853 25.1546 22.4026 25.6477 23.5187C18.5438 25.5196 12.0894 31.2651 8.90492 36.7164C5.76719 33.2336 3.85448 28.6266 3.85448 23.5808ZM11.4414 39.0792C13.4935 34.8842 19.0628 29.4691 26.983 26.7671C29.7412 33.9345 30.8818 39.9414 31.1739 41.665C24.8571 44.3557 17.2612 43.6175 11.4414 39.0792ZM34.4767 39.8665C34.2753 38.6714 33.2296 32.9204 30.6601 25.8594C36.8163 24.8739 42.2251 26.4871 42.8972 26.6992C42.0215 32.1655 38.8839 36.8863 34.4767 39.8665Z" fill="#EE7DCE"/>
</svg>
