<svg width="46" height="45" viewBox="0 0 46 45" fill="none" xmlns="http://www.w3.org/2000/svg">
<path d="M15.5514 35.9796C15.5514 36.1615 15.3427 36.3071 15.0796 36.3071C14.7802 36.3344 14.5716 36.1888 14.5716 35.9796C14.5716 35.7976 14.7802 35.652 15.0433 35.652C15.3155 35.6247 15.5514 35.7703 15.5514 35.9796ZM12.7298 35.5702C12.6663 35.7521 12.8478 35.9614 13.12 36.016C13.3558 36.107 13.628 36.016 13.6825 35.834C13.7369 35.652 13.5645 35.4428 13.2923 35.3609C13.0565 35.2972 12.7933 35.3882 12.7298 35.5702ZM16.7399 35.4155C16.4768 35.4792 16.2954 35.652 16.3226 35.8613C16.3498 36.0433 16.5857 36.1615 16.8579 36.0979C17.121 36.0342 17.3024 35.8613 17.2752 35.6793C17.248 35.5065 17.003 35.3882 16.7399 35.4155ZM22.7097 0.550842C10.126 0.550842 0.5 10.1313 0.5 22.7507C0.5 32.8407 6.83266 41.4749 15.878 44.5138C17.0393 44.723 17.4476 44.0043 17.4476 43.4129C17.4476 42.8488 17.4204 39.7372 17.4204 37.8265C17.4204 37.8265 11.0696 39.1913 9.73589 35.1152C9.73589 35.1152 8.70161 32.4676 7.21371 31.7853C7.21371 31.7853 5.13609 30.3568 7.35887 30.3841C7.35887 30.3841 9.61794 30.5661 10.8609 32.7315C12.8478 36.2434 16.1774 35.2335 17.4748 34.633C17.6835 33.1773 18.2732 32.1674 18.9264 31.5669C13.8548 31.0028 8.7379 30.2659 8.7379 21.5133C8.7379 19.0113 9.42742 17.7557 10.879 16.1544C10.6431 15.563 9.87198 13.1247 11.1149 9.97667C13.0111 9.38528 17.375 12.4332 17.375 12.4332C19.1895 11.9237 21.1401 11.6599 23.0726 11.6599C25.005 11.6599 26.9556 11.9237 28.7702 12.4332C28.7702 12.4332 33.1341 9.37618 35.0302 9.97667C36.2732 13.1338 35.502 15.563 35.2661 16.1544C36.7177 17.7648 37.6069 19.0204 37.6069 21.5133C37.6069 30.2931 32.2631 30.9937 27.1915 31.5669C28.0262 32.2857 28.7339 33.6504 28.7339 35.7885C28.7339 38.8546 28.7067 42.6486 28.7067 43.3947C28.7067 43.9861 29.124 44.7048 30.2762 44.4956C39.3488 41.4749 45.5 32.8407 45.5 22.7507C45.5 10.1313 35.2933 0.550842 22.7097 0.550842ZM9.31855 31.9308C9.2006 32.0218 9.22782 32.2311 9.38206 32.4039C9.52722 32.5495 9.73589 32.6132 9.85383 32.4949C9.97177 32.4039 9.94456 32.1947 9.79032 32.0218C9.64516 31.8762 9.43649 31.8126 9.31855 31.9308ZM8.33871 31.1939C8.2752 31.3122 8.36593 31.4577 8.54738 31.5487C8.69254 31.6397 8.87399 31.6124 8.9375 31.485C9.00101 31.3667 8.91028 31.2212 8.72883 31.1302C8.54738 31.0756 8.40222 31.1029 8.33871 31.1939ZM11.2782 34.4329C11.1331 34.5511 11.1875 34.8241 11.3962 34.997C11.6048 35.2062 11.8679 35.2335 11.9859 35.0879C12.1038 34.9697 12.0494 34.6967 11.8679 34.5238C11.6683 34.3146 11.3962 34.2873 11.2782 34.4329ZM10.244 33.0954C10.0988 33.1864 10.0988 33.423 10.244 33.6322C10.3891 33.8415 10.6341 33.9325 10.752 33.8415C10.8972 33.7232 10.8972 33.4866 10.752 33.2774C10.625 33.0681 10.3891 32.9771 10.244 33.0954Z" fill="#9F9F9F"/>
</svg>
