<svg width="43" height="43" viewBox="0 0 43 43" fill="none" xmlns="http://www.w3.org/2000/svg">
<path d="M39.5 0.550842H3.49062C1.84062 0.550842 0.5 1.91022 0.5 3.57897V39.5227C0.5 41.1915 1.84062 42.5508 3.49062 42.5508H39.5C41.15 42.5508 42.5 41.1915 42.5 39.5227V3.57897C42.5 1.91022 41.15 0.550842 39.5 0.550842ZM13.1937 36.5508H6.96875V16.5071H13.2031V36.5508H13.1937ZM10.0812 13.7696C8.08437 13.7696 6.47188 12.1477 6.47188 10.1602C6.47188 8.17272 8.08437 6.55084 10.0812 6.55084C12.0687 6.55084 13.6906 8.17272 13.6906 10.1602C13.6906 12.1571 12.0781 13.7696 10.0812 13.7696ZM36.5281 36.5508H30.3031V26.8008C30.3031 24.4758 30.2562 21.4852 27.0687 21.4852C23.825 21.4852 23.3281 24.0165 23.3281 26.6321V36.5508H17.1031V16.5071H23.075V19.2446H23.1594C23.9937 17.6696 26.0281 16.0102 29.0563 16.0102C35.3563 16.0102 36.5281 20.1633 36.5281 25.5633V36.5508Z" fill="#4D78CC"/>
</svg>
