<svg width="212" height="61" viewBox="0 0 212 61" fill="none" xmlns="http://www.w3.org/2000/svg">
<path d="M68.116 44.932C66.2093 47.324 63.0893 48.52 58.756 48.52C54.4227 48.52 51.32 47.2893 49.448 44.828C47.576 42.3667 46.64 38.3973 46.64 32.92C46.64 27.4427 47.576 23.4733 49.448 21.012C51.32 18.5507 54.4227 17.32 58.756 17.32C63.7827 17.32 67.1973 18.9667 69 22.26L56.26 32.92H53.816L66.972 21.948C65.4467 19.9027 62.708 18.88 58.756 18.88C57.0227 18.88 55.5667 19.0707 54.388 19.452C53.2093 19.7987 52.1173 20.4747 51.112 21.48C50.1413 22.4507 49.4133 23.8893 48.928 25.796C48.4427 27.668 48.2 30.0427 48.2 32.92C48.2 35.7973 48.4427 38.1893 48.928 40.096C49.4133 41.968 50.1413 43.4067 51.112 44.412C52.1173 45.3827 53.2093 46.0587 54.388 46.44C55.5667 46.7867 57.0227 46.96 58.756 46.96C62.708 46.96 65.4467 45.9373 66.972 43.892L68.116 44.932ZM95.3043 28.968H79.8603L95.7723 13.16H78.1963V48H76.6363V11.6H99.5683L83.6563 27.408H95.3043V28.968ZM107.774 46.44H124.726L114.066 21.324L102.73 48H101.066L114.066 17.32L127.066 48H107.774V46.44ZM134.039 17.84V32.92C134.039 38.0853 134.853 41.7253 136.483 43.84C138.147 45.92 140.417 46.96 143.295 46.96C146.172 46.96 148.425 45.92 150.055 43.84C151.719 41.7253 152.551 38.0853 152.551 32.92V17.84H154.111V32.92C154.111 43.32 150.505 48.52 143.295 48.52C136.084 48.52 132.479 43.32 132.479 32.92V17.84H134.039ZM185.411 46.44V48H163.675V11.6H165.235V46.44H185.411ZM210.643 17.84V19.4H199.723V48H198.163V19.4H187.243V17.84H210.643Z" fill="white"/>
<path d="M68.116 44.932L68.898 45.5553L69.4821 44.8225L68.7887 44.1921L68.116 44.932ZM49.448 44.828L50.2439 44.2226L49.448 44.828ZM49.448 21.012L48.6521 20.4066H48.6521L49.448 21.012ZM69 22.26L69.6417 23.0269L70.2714 22.5001L69.8772 21.7799L69 22.26ZM56.26 32.92V33.92H56.6232L56.9017 33.6869L56.26 32.92ZM53.816 32.92L53.1755 32.152L51.0556 33.92H53.816V32.92ZM66.972 21.948L67.6125 22.716L68.3398 22.1094L67.7736 21.3502L66.972 21.948ZM54.388 19.452L54.6702 20.4114L54.683 20.4076L54.6958 20.4034L54.388 19.452ZM51.112 21.48L50.4049 20.7729H50.4049L51.112 21.48ZM48.928 25.796L49.896 26.047L49.8971 26.0427L48.928 25.796ZM48.928 40.096L47.9589 40.3427L47.96 40.347L48.928 40.096ZM51.112 44.412L50.3926 45.1066L50.4048 45.1192L50.4174 45.1314L51.112 44.412ZM54.388 46.44L54.0802 47.3914L54.093 47.3956L54.1058 47.3994L54.388 46.44ZM66.972 43.892L67.6447 43.1521L66.8292 42.4107L66.1704 43.2942L66.972 43.892ZM67.334 44.3087C65.6869 46.3751 62.918 47.52 58.756 47.52V49.52C63.2607 49.52 66.7318 48.2729 68.898 45.5553L67.334 44.3087ZM58.756 47.52C54.6019 47.52 51.8586 46.3457 50.2439 44.2226L48.6521 45.4334C50.7814 48.233 54.2434 49.52 58.756 49.52V47.52ZM50.2439 44.2226C48.5728 42.0254 47.64 38.3283 47.64 32.92H45.64C45.64 38.4663 46.5792 42.7079 48.6521 45.4334L50.2439 44.2226ZM47.64 32.92C47.64 27.5117 48.5728 23.8146 50.2439 21.6174L48.6521 20.4066C46.5792 23.1321 45.64 27.3737 45.64 32.92H47.64ZM50.2439 21.6174C51.8586 19.4943 54.6019 18.32 58.756 18.32V16.32C54.2434 16.32 50.7814 17.607 48.6521 20.4066L50.2439 21.6174ZM58.756 18.32C63.5594 18.32 66.5547 19.8752 68.1228 22.7401L69.8772 21.7799C67.84 18.0581 64.0059 16.32 58.756 16.32V18.32ZM68.3583 21.4931L55.6183 32.1531L56.9017 33.6869L69.6417 23.0269L68.3583 21.4931ZM56.26 31.92H53.816V33.92H56.26V31.92ZM54.4565 33.688L67.6125 22.716L66.3315 21.18L53.1755 32.152L54.4565 33.688ZM67.7736 21.3502C65.974 18.9371 62.8463 17.88 58.756 17.88V19.88C62.5697 19.88 64.9193 20.8682 66.1704 22.5458L67.7736 21.3502ZM58.756 17.88C56.9565 17.88 55.3892 18.0771 54.0802 18.5006L54.6958 20.4034C55.7442 20.0643 57.0888 19.88 58.756 19.88V17.88ZM54.1058 18.4926C52.743 18.8935 51.5098 19.668 50.4049 20.7729L51.8191 22.1871C52.7249 21.2813 53.6757 20.7039 54.6702 20.4114L54.1058 18.4926ZM50.4049 20.7729C49.2636 21.9142 48.4704 23.5397 47.9589 25.5493L49.8971 26.0427C50.3562 24.239 51.0191 22.9871 51.8191 22.1871L50.4049 20.7729ZM47.96 25.545C47.4458 27.5283 47.2 29.9949 47.2 32.92H49.2C49.2 30.0904 49.4395 27.8077 49.896 26.047L47.96 25.545ZM47.2 32.92C47.2 35.846 47.446 38.3276 47.9589 40.3427L49.8971 39.8493C49.4394 38.051 49.2 35.7487 49.2 32.92H47.2ZM47.96 40.347C48.4728 42.3248 49.265 43.9387 50.3926 45.1066L51.8314 43.7174C51.0177 42.8746 50.3539 41.6112 49.896 39.845L47.96 40.347ZM50.4174 45.1314C51.5182 46.1942 52.739 46.9575 54.0802 47.3914L54.6958 45.4886C53.6797 45.1598 52.7165 44.5711 51.8066 43.6926L50.4174 45.1314ZM54.1058 47.3994C55.4051 47.7815 56.963 47.96 58.756 47.96V45.96C57.0823 45.96 55.7282 45.7918 54.6702 45.4806L54.1058 47.3994ZM58.756 47.96C62.8463 47.96 65.974 46.9029 67.7736 44.4898L66.1704 43.2942C64.9193 44.9718 62.5697 45.96 58.756 45.96V47.96ZM66.2993 44.6319L67.4433 45.6719L68.7887 44.1921L67.6447 43.1521L66.2993 44.6319ZM95.3043 28.968V29.968H96.3043V28.968H95.3043ZM79.8603 28.968L79.1555 28.2586L77.4348 29.968H79.8603V28.968ZM95.7723 13.16L96.4771 13.8694L98.1977 12.16H95.7723V13.16ZM78.1963 13.16V12.16H77.1963V13.16H78.1963ZM78.1963 48V49H79.1963V48H78.1963ZM76.6363 48H75.6363V49H76.6363V48ZM76.6363 11.6V10.6H75.6363V11.6H76.6363ZM99.5683 11.6L100.273 12.3094L101.994 10.6H99.5683V11.6ZM83.6563 27.408L82.9515 26.6986L81.2308 28.408H83.6563V27.408ZM95.3043 27.408H96.3043V26.408H95.3043V27.408ZM95.3043 27.968H79.8603V29.968H95.3043V27.968ZM80.5651 29.6774L96.4771 13.8694L95.0675 12.4506L79.1555 28.2586L80.5651 29.6774ZM95.7723 12.16H78.1963V14.16H95.7723V12.16ZM77.1963 13.16V48H79.1963V13.16H77.1963ZM78.1963 47H76.6363V49H78.1963V47ZM77.6363 48V11.6H75.6363V48H77.6363ZM76.6363 12.6H99.5683V10.6H76.6363V12.6ZM98.8635 10.8906L82.9515 26.6986L84.3611 28.1174L100.273 12.3094L98.8635 10.8906ZM83.6563 28.408H95.3043V26.408H83.6563V28.408ZM94.3043 27.408V28.968H96.3043V27.408H94.3043ZM107.774 46.44V45.44H106.774V46.44H107.774ZM124.726 46.44V47.44H126.237L125.647 46.0493L124.726 46.44ZM114.066 21.324L114.987 20.9333L114.067 18.7658L113.146 20.9329L114.066 21.324ZM102.73 48V49H103.392L103.65 48.3911L102.73 48ZM101.066 48L100.145 47.6099L99.5563 49H101.066V48ZM114.066 17.32L114.987 16.9298L114.066 14.7569L113.145 16.9298L114.066 17.32ZM127.066 48V49H128.576L127.987 47.6099L127.066 48ZM107.774 48H106.774V49H107.774V48ZM107.774 47.44H124.726V45.44H107.774V47.44ZM125.647 46.0493L114.987 20.9333L113.146 21.7147L123.806 46.8307L125.647 46.0493ZM113.146 20.9329L101.81 47.6089L103.65 48.3911L114.986 21.7151L113.146 20.9329ZM102.73 47H101.066V49H102.73V47ZM101.987 48.3901L114.987 17.7101L113.145 16.9298L100.145 47.6099L101.987 48.3901ZM113.145 17.7101L126.145 48.3901L127.987 47.6099L114.987 16.9298L113.145 17.7101ZM127.066 47H107.774V49H127.066V47ZM108.774 48V46.44H106.774V48H108.774ZM134.039 17.84H135.039V16.84H134.039V17.84ZM136.483 43.84L135.69 44.4503L135.696 44.4576L135.702 44.4647L136.483 43.84ZM150.055 43.84L149.269 43.2216L149.267 43.2233L150.055 43.84ZM152.551 17.84V16.84H151.551V17.84H152.551ZM154.111 17.84H155.111V16.84H154.111V17.84ZM132.479 17.84V16.84H131.479V17.84H132.479ZM133.039 17.84V32.92H135.039V17.84H133.039ZM133.039 32.92C133.039 38.1301 133.848 42.0595 135.69 44.4503L137.275 43.2297C135.858 41.3911 135.039 38.0406 135.039 32.92H133.039ZM135.702 44.4647C137.572 46.8029 140.141 47.96 143.295 47.96V45.96C140.693 45.96 138.721 45.0371 137.263 43.2153L135.702 44.4647ZM143.295 47.96C146.448 47.96 149.004 46.8023 150.842 44.4567L149.267 43.2233C147.846 45.0377 145.896 45.96 143.295 45.96V47.96ZM150.84 44.4584C152.723 42.0661 153.551 38.1326 153.551 32.92H151.551C151.551 38.038 150.714 41.3846 149.269 43.2216L150.84 44.4584ZM153.551 32.92V17.84H151.551V32.92H153.551ZM152.551 18.84H154.111V16.84H152.551V18.84ZM153.111 17.84V32.92H155.111V17.84H153.111ZM153.111 32.92C153.111 38.0353 152.218 41.6941 150.585 44.0502C148.997 46.3399 146.625 47.52 143.295 47.52V49.52C147.175 49.52 150.211 48.1001 152.228 45.1898C154.2 42.3459 155.111 38.2047 155.111 32.92H153.111ZM143.295 47.52C139.964 47.52 137.592 46.3399 136.004 44.0502C134.371 41.6941 133.479 38.0353 133.479 32.92H131.479C131.479 38.2047 132.389 42.3459 134.361 45.1898C136.379 48.1001 139.414 49.52 143.295 49.52V47.52ZM133.479 32.92V17.84H131.479V32.92H133.479ZM132.479 18.84H134.039V16.84H132.479V18.84ZM185.411 46.44H186.411V45.44H185.411V46.44ZM185.411 48V49H186.411V48H185.411ZM163.675 48H162.675V49H163.675V48ZM163.675 11.6V10.6H162.675V11.6H163.675ZM165.235 11.6H166.235V10.6H165.235V11.6ZM165.235 46.44H164.235V47.44H165.235V46.44ZM184.411 46.44V48H186.411V46.44H184.411ZM185.411 47H163.675V49H185.411V47ZM164.675 48V11.6H162.675V48H164.675ZM163.675 12.6H165.235V10.6H163.675V12.6ZM164.235 11.6V46.44H166.235V11.6H164.235ZM165.235 47.44H185.411V45.44H165.235V47.44ZM210.643 17.84H211.643V16.84H210.643V17.84ZM210.643 19.4V20.4H211.643V19.4H210.643ZM199.723 19.4V18.4H198.723V19.4H199.723ZM199.723 48V49H200.723V48H199.723ZM198.163 48H197.163V49H198.163V48ZM198.163 19.4H199.163V18.4H198.163V19.4ZM187.243 19.4H186.243V20.4H187.243V19.4ZM187.243 17.84V16.84H186.243V17.84H187.243ZM209.643 17.84V19.4H211.643V17.84H209.643ZM210.643 18.4H199.723V20.4H210.643V18.4ZM198.723 19.4V48H200.723V19.4H198.723ZM199.723 47H198.163V49H199.723V47ZM199.163 48V19.4H197.163V48H199.163ZM198.163 18.4H187.243V20.4H198.163V18.4ZM188.243 19.4V17.84H186.243V19.4H188.243ZM187.243 18.84H210.643V16.84H187.243V18.84Z" fill="white"/>
<path d="M156 17H132V32.7288C132 43.5763 136 49 144 49C152 49 156 43.5763 156 32.7288V17Z" fill="#4C9E68" stroke="white" stroke-width="3"/>
<path d="M151 23H137V32.8305C137 39.6102 139.333 43 144 43C148.667 43 151 39.6102 151 32.8305V23Z" fill="#78F1A1"/>
<path d="M0 15C0 12.7909 1.79086 11 4 11H20C31.0457 11 40 19.9543 40 31C40 42.0457 31.0457 51 20 51H4C1.79086 51 0 49.2091 0 47V15Z" fill="#F4F4F4"/>
<path d="M2.8 13.4H13.699C18.7817 13.4 22.5108 13.74 24.8862 14.4199C27.5935 15.216 29.6807 16.2359 31.1479 17.4797C32.6325 18.7235 33.7941 20.0088 34.6324 21.3355C36.3441 24.0388 37.2 27.1069 37.2 30.5398C37.2 35.9462 35.1564 40.3245 31.0693 43.6745C28.1699 46.0792 24.7552 47.5635 20.8253 48.1273C18.642 48.4425 15.5854 48.6 11.6554 48.6H2.8V13.4ZM16.1618 46.5353C16.4412 46.5518 16.6945 46.5601 16.9216 46.5601H17.5241C22.2575 46.5601 26.301 45.1588 29.6545 42.356C33.2002 39.4041 34.973 35.4819 34.973 30.5895C34.973 27.5049 34.1958 24.727 32.6413 22.256C30.3881 18.6572 26.825 16.4764 21.9519 15.7135C20.3624 15.4647 18.4324 15.3238 16.1618 15.2906V46.5353Z" fill="#5A5A5A"/>
<path d="M4.4 15.4H13.2V24.2478H4.4V15.4Z" fill="#4C9E68"/>
<path d="M4.4 26.5761H13.2V35.4239H4.4V26.5761Z" fill="#78F1A1"/>
<path d="M4.4 37.7522H13.2V46.6H4.4V37.7522Z" fill="#C3F0D2"/>
</svg>
