<svg width="238" height="131" viewBox="0 0 238 131" fill="none" xmlns="http://www.w3.org/2000/svg">
<path d="M0.831543 34.5522C-0.313405 35.7499 -0.270718 37.6489 0.926888 38.7938C2.12449 39.9388 4.02351 39.8961 5.16846 38.6985L0.831543 34.5522ZM137.966 67.6483L140.712 68.8555L137.966 67.6483ZM232.354 67.6483L233.79 70.2823L237.225 68.4092L234.525 65.5777L232.354 67.6483ZM232.278 67.4824C232.974 68.9858 234.758 69.6399 236.261 68.9435C237.764 68.247 238.419 66.4637 237.722 64.9603L232.278 67.4824ZM5.16846 38.6985C26.2697 16.6267 65.1643 9.92718 95.9599 16.1029C111.314 19.1819 124.119 25.367 131.534 33.8973C135.209 38.1257 137.555 42.9167 138.298 48.2433C139.043 53.5749 138.21 59.6376 135.219 66.4411L140.712 68.8555C144.073 61.2092 145.164 54.0233 144.241 47.4133C143.317 40.7983 140.403 34.9547 136.062 29.961C127.444 20.0472 113.19 13.4387 97.1397 10.22C65.1277 3.80037 23.8367 10.489 0.831543 34.5522L5.16846 38.6985ZM135.219 66.4411C119.565 102.056 94.8817 121.966 74.9305 124.678C65.0972 126.014 56.4354 123.211 50.1522 116.113C43.7801 108.915 39.5209 96.9175 39.5209 79.2789H33.5209C33.5209 97.7649 37.9728 111.407 45.6596 120.09C53.4353 128.874 64.1804 132.194 75.7387 130.623C98.5708 127.52 124.61 105.49 140.712 68.8555L135.219 66.4411ZM39.5209 79.2789C39.5209 44.3125 56.28 23.8024 76.662 13.7461C97.3027 3.56214 121.679 4.08035 136.638 11.4611L139.293 6.08043C122.496 -2.20727 96.1498 -2.55957 74.0072 8.36538C51.6059 19.418 33.5209 41.9962 33.5209 79.2789H39.5209ZM136.638 11.4611C151.864 18.9733 161.11 31.1419 171.019 42.1731C180.8 53.0611 191.276 62.8144 208.536 62.8144V56.8144C194.039 56.8144 185.109 48.8802 175.483 38.1635C165.985 27.5899 155.824 14.2368 139.293 6.08043L136.638 11.4611ZM208.536 62.8144C209.988 62.8144 210.958 62.9367 211.564 63.0939C212.203 63.2599 212.15 63.3886 211.958 63.154C211.846 63.0175 211.755 62.8363 211.714 62.6421C211.676 62.4621 211.697 62.3541 211.695 62.3598C211.684 62.4195 211.588 62.7456 211.155 63.3773C210.299 64.6278 208.687 66.2774 206.398 68.2396C204.15 70.166 201.41 72.2599 198.442 74.4056C192.487 78.7114 185.84 83.069 180.646 86.612C178.087 88.358 175.842 89.9322 174.282 91.1709C173.521 91.7746 172.798 92.3955 172.274 92.9802C172.029 93.2539 171.672 93.6872 171.421 94.2356C171.203 94.7106 170.707 96.1053 171.647 97.4968L176.619 94.138C177.449 95.3663 176.966 96.5376 176.876 96.7331C176.753 97.002 176.639 97.0995 176.742 96.9853C176.913 96.7939 177.307 96.4297 178.012 95.8704C179.382 94.7831 181.46 93.3202 184.027 91.5685C189.088 88.1161 195.916 83.6362 201.958 79.2677C204.989 77.0763 207.877 74.8738 210.302 72.7953C212.685 70.7527 214.79 68.6889 216.105 66.768C216.759 65.8142 217.363 64.6902 217.593 63.4666C217.843 62.134 217.644 60.6284 216.602 59.3547C215.658 58.202 214.321 57.6107 213.071 57.2862C211.786 56.953 210.26 56.8144 208.536 56.8144V62.8144ZM171.647 97.4968C172.44 98.6701 173.648 98.893 174.11 98.9465C174.664 99.0105 175.183 98.953 175.553 98.8934C176.324 98.7696 177.217 98.5048 178.121 98.1923C179.971 97.5532 182.424 96.5176 185.216 95.2488C190.825 92.6994 198.099 89.0697 205.276 85.3803C212.463 81.6858 219.591 77.9117 224.919 75.0625C227.584 73.6375 229.801 72.4432 231.351 71.6047C232.127 71.1855 232.735 70.8553 233.151 70.6296C233.359 70.5168 233.518 70.4302 233.626 70.3716C233.679 70.3423 233.72 70.3201 233.748 70.3051C233.761 70.2976 233.772 70.292 233.779 70.2881C233.782 70.2862 233.785 70.2848 233.787 70.2838C233.788 70.2833 233.788 70.2829 233.789 70.2827C233.789 70.2824 233.79 70.2823 232.354 67.6483C230.918 65.0143 230.917 65.0144 230.917 65.0146C230.917 65.0148 230.916 65.0152 230.915 65.0156C230.914 65.0165 230.911 65.0179 230.908 65.0197C230.901 65.0233 230.891 65.0288 230.878 65.0361C230.851 65.0507 230.811 65.0725 230.758 65.1014C230.651 65.1592 230.494 65.2451 230.287 65.3571C229.875 65.581 229.269 65.9095 228.497 66.3269C226.954 67.1616 224.746 68.3515 222.09 69.7714C216.778 72.612 209.681 76.3697 202.533 80.044C195.376 83.7233 188.206 87.2991 182.733 89.7866C179.984 91.0362 177.737 91.9769 176.162 92.5213C175.353 92.8005 174.852 92.9292 174.602 92.9694C174.462 92.9918 174.564 92.9589 174.8 92.9862C174.945 93.003 175.937 93.1279 176.619 94.138L171.647 97.4968ZM234.525 65.5777C233.756 64.7717 232.433 63.6934 230.918 62.5243C229.349 61.3126 227.395 59.8688 225.239 58.2964C220.902 55.1324 215.741 51.4405 210.976 47.8832C206.184 44.3053 201.973 40.9952 199.522 38.6231C198.918 38.0386 198.467 37.5551 198.157 37.1737C197.811 36.7482 197.78 36.6174 197.821 36.7289C197.856 36.8257 198.224 38.0083 197.211 39.0307C196.501 39.7474 195.774 39.6254 196.186 39.6254V33.6254C195.49 33.6254 194.039 33.7071 192.948 34.8084C191.555 36.2154 191.885 37.9634 192.183 38.7832C192.488 39.6178 193.021 40.3677 193.501 40.9575C194.016 41.5915 194.65 42.2579 195.35 42.935C198.113 45.609 202.617 49.1297 207.386 52.691C212.184 56.2728 217.432 60.0283 221.703 63.1436C223.851 64.7108 225.75 66.1146 227.252 67.2738C228.809 68.4756 229.775 69.2918 230.183 69.7189L234.525 65.5777ZM196.186 39.6254C196.002 39.6254 196.029 39.5923 196.398 39.7082C196.715 39.8077 197.151 39.9745 197.711 40.2229C198.829 40.7187 200.274 41.465 201.965 42.4283C205.339 44.35 209.524 47.0393 213.737 50.0545C217.952 53.0714 222.138 56.3743 225.534 59.515C229.018 62.7375 231.368 65.5183 232.278 67.4824L237.722 64.9603C236.28 61.8467 233.153 58.389 229.608 55.1102C225.974 51.7496 221.578 48.2881 217.229 45.1755C212.878 42.0611 208.517 39.2556 204.935 37.2149C203.148 36.197 201.513 35.3452 200.144 34.7381C199.461 34.4352 198.802 34.1743 198.197 33.9842C197.644 33.8103 196.922 33.6254 196.186 33.6254V39.6254Z" fill="#565656"/>
</svg>
