<svg width="206" height="140" viewBox="0 0 206 140" fill="none" xmlns="http://www.w3.org/2000/svg">
<g clip-path="url(#clip0_458_125)">
<path fill-rule="evenodd" clip-rule="evenodd" d="M70 70C70 107.555 100.445 138 138 138C175.555 138 206 107.555 206 70C206 32.4446 175.555 2 138 2C100.445 2 70 32.4446 70 70ZM119 70C119 80.4934 127.507 89 138 89C148.493 89 157 80.4934 157 70C157 59.5066 148.493 51 138 51C127.507 51 119 59.5066 119 70Z" fill="url(#paint0_linear_458_125)"/>
<g filter="url(#filter0_d_458_125)">
<path fill-rule="evenodd" clip-rule="evenodd" d="M106 70.5C106 88.4493 120.551 103 138.5 103C156.449 103 171 88.4493 171 70.5C171 52.5507 156.449 38 138.5 38C120.551 38 106 52.5507 106 70.5ZM120 70.5C120 80.7173 128.283 89 138.5 89C148.717 89 157 80.7173 157 70.5C157 60.2827 148.717 52 138.5 52C128.283 52 120 60.2827 120 70.5Z" fill="#67A2B1"/>
</g>
<g filter="url(#filter1_d_458_125)">
<rect x="139" width="140" height="139" transform="rotate(90 139 0)" fill="#ECECEB"/>
</g>
<path d="M104.5 35.5L93.5 46L93.5 66M93.5 66L46 66M93.5 66L102.5 66L111 59M28.5 59.5L37.5 66L46 66M46 66L46 51.5L39 45.5M94.5 34L86 42.5L86 59L70.5 59M46 31.5L54 44L54 59L70.5 59M57 26L64 39.5L70.5 39.5M70.5 39.5L70.5 59M70.5 39.5L70.5 23M107.5 83L95.5 93.5M95.5 93.5L104.5 102.5M95.5 93.5L93.5 91.5L93.5 72L46 72.1518M28.5 78.5L37.5 72L46 72.1518M46 72.1518L46 87L37.5 94M94.5 104L86 95.5L86 78.5L70.5 78.5M47 110.5L54 99L54 78.5L70.5 78.5M70.5 78.5L70.5 99M70.5 115.5L70.5 99M82 110.5L76 99L70.5 99" stroke="white" stroke-width="3"/>
<circle cx="71" cy="24" r="4" transform="rotate(90 71 24)" fill="white"/>
<circle cx="56" cy="27" r="4" transform="rotate(90 56 27)" fill="white"/>
<circle cx="46" cy="33" r="4" transform="rotate(90 46 33)" fill="white"/>
<circle cx="37" cy="45" r="4" transform="rotate(90 37 45)" fill="white"/>
<circle cx="27" cy="60" r="4" transform="rotate(90 27 60)" fill="white"/>
<circle cx="27" cy="79" r="4" transform="rotate(90 27 79)" fill="white"/>
<circle cx="37" cy="94" r="4" transform="rotate(90 37 94)" fill="white"/>
<circle cx="47" cy="111" r="4" transform="rotate(90 47 111)" fill="white"/>
<circle cx="70" cy="116" r="4" transform="rotate(90 70 116)" fill="white"/>
<circle cx="82" cy="111" r="4" transform="rotate(90 82 111)" fill="white"/>
<circle cx="94" cy="105" r="4" transform="rotate(90 94 105)" fill="white"/>
<circle cx="105" cy="103" r="4" transform="rotate(90 105 103)" fill="white"/>
<circle cx="106" cy="84" r="4" transform="rotate(90 106 84)" fill="white"/>
<circle cx="110" cy="60" r="4" transform="rotate(90 110 60)" fill="white"/>
<circle cx="104" cy="37" r="4" transform="rotate(90 104 37)" fill="white"/>
<circle cx="93" cy="35" r="4" transform="rotate(90 93 35)" fill="white"/>
</g>
<defs>
<filter id="filter0_d_458_125" x="102" y="34" width="73" height="73" filterUnits="userSpaceOnUse" color-interpolation-filters="sRGB">
<feFlood flood-opacity="0" result="BackgroundImageFix"/>
<feColorMatrix in="SourceAlpha" type="matrix" values="0 0 0 0 0 0 0 0 0 0 0 0 0 0 0 0 0 0 127 0" result="hardAlpha"/>
<feOffset/>
<feGaussianBlur stdDeviation="2"/>
<feComposite in2="hardAlpha" operator="out"/>
<feColorMatrix type="matrix" values="0 0 0 0 0 0 0 0 0 0 0 0 0 0 0 0 0 0 0.25 0"/>
<feBlend mode="normal" in2="BackgroundImageFix" result="effect1_dropShadow_458_125"/>
<feBlend mode="normal" in="SourceGraphic" in2="effect1_dropShadow_458_125" result="shape"/>
</filter>
<filter id="filter1_d_458_125" x="-5" y="-9" width="149" height="150" filterUnits="userSpaceOnUse" color-interpolation-filters="sRGB">
<feFlood flood-opacity="0" result="BackgroundImageFix"/>
<feColorMatrix in="SourceAlpha" type="matrix" values="0 0 0 0 0 0 0 0 0 0 0 0 0 0 0 0 0 0 127 0" result="hardAlpha"/>
<feOffset dy="-4"/>
<feGaussianBlur stdDeviation="2.5"/>
<feComposite in2="hardAlpha" operator="out"/>
<feColorMatrix type="matrix" values="0 0 0 0 0 0 0 0 0 0 0 0 0 0 0 0 0 0 0.5 0"/>
<feBlend mode="normal" in2="BackgroundImageFix" result="effect1_dropShadow_458_125"/>
<feBlend mode="normal" in="SourceGraphic" in2="effect1_dropShadow_458_125" result="shape"/>
</filter>
<linearGradient id="paint0_linear_458_125" x1="206" y1="70" x2="94" y2="70" gradientUnits="userSpaceOnUse">
<stop stop-color="#413F3E"/>
<stop offset="0.338542" stop-color="#45413E"/>
<stop offset="1" stop-color="#413F3E" stop-opacity="0.99"/>
</linearGradient>
<clipPath id="clip0_458_125">
<rect width="140" height="206" fill="white" transform="translate(206) rotate(90)"/>
</clipPath>
</defs>
</svg>
