<svg width="140" height="206" viewBox="0 0 140 206" fill="none" xmlns="http://www.w3.org/2000/svg">
<g clip-path="url(#clip0_458_125)">
<path fill-rule="evenodd" clip-rule="evenodd" d="M70 136C107.555 136 138 105.555 138 68C138 30.4446 107.555 0 70 0C32.4446 0 2 30.4446 2 68C2 105.555 32.4446 136 70 136ZM70 87C80.4934 87 89 78.4934 89 68C89 57.5066 80.4934 49 70 49C59.5066 49 51 57.5066 51 68C51 78.4934 59.5066 87 70 87Z" fill="url(#paint0_linear_458_125)"/>
<g filter="url(#filter0_d_458_125)">
<path fill-rule="evenodd" clip-rule="evenodd" d="M70.5 100C88.4493 100 103 85.4493 103 67.5C103 49.5507 88.4493 35 70.5 35C52.5507 35 38 49.5507 38 67.5C38 85.4493 52.5507 100 70.5 100ZM70.5 86C80.7173 86 89 77.7173 89 67.5C89 57.2827 80.7173 49 70.5 49C60.2827 49 52 57.2827 52 67.5C52 77.7173 60.2827 86 70.5 86Z" fill="#67A2B1"/>
</g>
<g filter="url(#filter1_d_458_125)">
<rect y="67" width="140" height="139" fill="#ECECEB"/>
</g>
<path d="M35.5 101.5L46 112.5H66M66 112.5V160M66 112.5V103.5L59 95M59.5 177.5L66 168.5L66 160M66 160H51.5L45.5 167M34 111.5L42.5 120H59V135.5M31.5 160L44 152H59V135.5M26 149L39.5 142V135.5M39.5 135.5H59M39.5 135.5H23M83 98.5L93.5 110.5M93.5 110.5L102.5 101.5M93.5 110.5L91.5 112.5L72 112.5L72.1518 160M78.5 177.5L72 168.5L72.1518 160M72.1518 160H87L94 168.5M104 111.5L95.5 120H78.5V135.5M110.5 159L99 152H78.5V135.5M78.5 135.5H99M115.5 135.5H99M110.5 124L99 130V135.5" stroke="white" stroke-width="3"/>
<circle cx="24" cy="135" r="4" fill="white"/>
<circle cx="27" cy="150" r="4" fill="white"/>
<circle cx="33" cy="160" r="4" fill="white"/>
<circle cx="45" cy="169" r="4" fill="white"/>
<circle cx="60" cy="179" r="4" fill="white"/>
<circle cx="79" cy="179" r="4" fill="white"/>
<circle cx="94" cy="169" r="4" fill="white"/>
<circle cx="111" cy="159" r="4" fill="white"/>
<circle cx="116" cy="136" r="4" fill="white"/>
<circle cx="111" cy="124" r="4" fill="white"/>
<circle cx="105" cy="112" r="4" fill="white"/>
<circle cx="103" cy="101" r="4" fill="white"/>
<circle cx="84" cy="100" r="4" fill="white"/>
<circle cx="60" cy="96" r="4" fill="white"/>
<circle cx="37" cy="102" r="4" fill="white"/>
<circle cx="35" cy="113" r="4" fill="white"/>
</g>
<defs>
<filter id="filter0_d_458_125" x="34" y="31" width="73" height="73" filterUnits="userSpaceOnUse" color-interpolation-filters="sRGB">
<feFlood flood-opacity="0" result="BackgroundImageFix"/>
<feColorMatrix in="SourceAlpha" type="matrix" values="0 0 0 0 0 0 0 0 0 0 0 0 0 0 0 0 0 0 127 0" result="hardAlpha"/>
<feOffset/>
<feGaussianBlur stdDeviation="2"/>
<feComposite in2="hardAlpha" operator="out"/>
<feColorMatrix type="matrix" values="0 0 0 0 0 0 0 0 0 0 0 0 0 0 0 0 0 0 0.25 0"/>
<feBlend mode="normal" in2="BackgroundImageFix" result="effect1_dropShadow_458_125"/>
<feBlend mode="normal" in="SourceGraphic" in2="effect1_dropShadow_458_125" result="shape"/>
</filter>
<filter id="filter1_d_458_125" x="-5" y="58" width="150" height="149" filterUnits="userSpaceOnUse" color-interpolation-filters="sRGB">
<feFlood flood-opacity="0" result="BackgroundImageFix"/>
<feColorMatrix in="SourceAlpha" type="matrix" values="0 0 0 0 0 0 0 0 0 0 0 0 0 0 0 0 0 0 127 0" result="hardAlpha"/>
<feOffset dy="-4"/>
<feGaussianBlur stdDeviation="2.5"/>
<feComposite in2="hardAlpha" operator="out"/>
<feColorMatrix type="matrix" values="0 0 0 0 0 0 0 0 0 0 0 0 0 0 0 0 0 0 0.5 0"/>
<feBlend mode="normal" in2="BackgroundImageFix" result="effect1_dropShadow_458_125"/>
<feBlend mode="normal" in="SourceGraphic" in2="effect1_dropShadow_458_125" result="shape"/>
</filter>
<linearGradient id="paint0_linear_458_125" x1="70" y1="0" x2="70" y2="112" gradientUnits="userSpaceOnUse">
<stop stop-color="#413F3E"/>
<stop offset="0.338542" stop-color="#45413E"/>
<stop offset="1" stop-color="#413F3E" stop-opacity="0.99"/>
</linearGradient>
<clipPath id="clip0_458_125">
<rect width="140" height="206" fill="white"/>
</clipPath>
</defs>
</svg>
