<svg width="137" height="24" viewBox="0 0 137 24" fill="none" xmlns="http://www.w3.org/2000/svg">
<path d="M0.34 23V0.727968H8.628C10.2493 0.727968 11.7427 1.1333 13.108 1.94397C14.4947 2.75464 15.5933 3.8533 16.404 5.23997C17.2147 6.6053 17.62 8.09864 17.62 9.71997V14.008C17.62 15.6293 17.2147 17.1333 16.404 18.52C15.5933 19.8853 14.4947 20.9733 13.108 21.784C11.7427 22.5946 10.2493 23 8.628 23H0.34ZM24.3475 0.727968H40.0275V1.91197H25.5315V10.936H38.1395V12.12H25.5315V21.816H40.0275V23H24.3475V0.727968ZM49.507 23H48.323V0.727968H57.283C58.7763 0.727968 60.1523 1.04797 61.411 1.68797C62.691 2.32797 63.7043 3.23464 64.451 4.40797C65.1977 5.5813 65.571 6.93597 65.571 8.47197C65.571 9.94397 65.187 11.2986 64.419 12.536C63.6723 13.7733 62.6483 14.7226 61.347 15.384C60.2163 15.96 58.8617 16.248 57.283 16.248H49.507V23ZM49.507 15.064H57.283C58.6483 15.064 59.7683 14.8506 60.643 14.424C61.7737 13.8906 62.6803 13.0906 63.363 12.024C64.0457 10.9573 64.387 9.7733 64.387 8.47197C64.387 7.19197 64.0457 6.01864 63.363 4.95197C62.6803 3.8853 61.763 3.0853 60.611 2.55197C59.7363 2.1253 58.627 1.91197 57.283 1.91197H49.507V15.064ZM72.5225 23V0.727968H73.7065V21.816H89.2265V23H72.5225ZM103.09 0.247969C104.754 0.247969 106.29 0.663968 107.698 1.49597C109.106 2.30664 110.215 3.41597 111.026 4.82397C111.858 6.23197 112.274 7.76797 112.274 9.43197V14.296C112.274 15.96 111.858 17.496 111.026 18.904C110.215 20.312 109.106 21.432 107.698 22.264C106.29 23.0746 104.754 23.48 103.09 23.48C101.426 23.48 99.89 23.0746 98.482 22.264C97.074 21.432 95.954 20.312 95.122 18.904C94.3113 17.496 93.906 15.96 93.906 14.296V9.43197C93.906 7.76797 94.3113 6.23197 95.122 4.82397C95.954 3.41597 97.074 2.30664 98.482 1.49597C99.89 0.663968 101.426 0.247969 103.09 0.247969ZM95.09 14.296C95.09 15.7466 95.442 17.0906 96.146 18.328C96.8713 19.544 97.842 20.5146 99.058 21.24C100.295 21.944 101.639 22.296 103.09 22.296C104.541 22.296 105.874 21.944 107.09 21.24C108.327 20.5146 109.298 19.544 110.002 18.328C110.727 17.0906 111.09 15.7466 111.09 14.296V9.43197C111.09 7.9813 110.727 6.64797 110.002 5.43197C109.298 4.19463 108.327 3.22397 107.09 2.51997C105.874 1.79464 104.541 1.43197 103.09 1.43197C101.639 1.43197 100.295 1.79464 99.058 2.51997C97.842 3.22397 96.8713 4.19463 96.146 5.43197C95.442 6.64797 95.09 7.9813 95.09 9.43197V14.296ZM118.906 0.727968L126.81 12.632L134.65 0.727968H136.058L127.386 13.88V23H126.202V13.88L117.498 0.727968H118.906Z" fill="#1E1E1E"/>
</svg>
