<svg width="137" height="24" viewBox="0 0 137 24" fill="none" xmlns="http://www.w3.org/2000/svg">
<path d="M0.34 22.9999V0.727938H8.628C10.2493 0.727938 11.7427 1.13327 13.108 1.94394C14.4947 2.7546 15.5933 3.85327 16.404 5.23994C17.2147 6.60527 17.62 8.0986 17.62 9.71994V14.0079C17.62 15.6293 17.2147 17.1333 16.404 18.5199C15.5933 19.8853 14.4947 20.9733 13.108 21.7839C11.7427 22.5946 10.2493 22.9999 8.628 22.9999H0.34ZM24.3475 0.727938H40.0275V1.91194H25.5315V10.9359H38.1395V12.1199H25.5315V21.8159H40.0275V22.9999H24.3475V0.727938ZM56.195 12.3439C54.3817 11.9813 52.899 11.5866 51.747 11.1599C50.6163 10.7119 49.7203 10.1146 49.059 9.36794C48.419 8.59994 48.099 7.61861 48.099 6.42394C48.099 5.1866 48.419 4.0986 49.059 3.15994C49.7203 2.22127 50.6377 1.49594 51.811 0.983938C53.0057 0.471938 54.3817 0.215939 55.939 0.215939C57.4323 0.215939 58.7977 0.535938 60.035 1.17594C61.2937 1.7946 62.2857 2.66927 63.011 3.79994C63.7363 4.9306 64.099 6.22127 64.099 7.67194H62.915C62.915 6.41327 62.6057 5.30394 61.987 4.34394C61.3683 3.38394 60.5257 2.64794 59.459 2.13594C58.3923 1.6026 57.2083 1.33594 55.907 1.33594C54.755 1.33594 53.6777 1.51727 52.675 1.87994C51.6723 2.24261 50.851 2.79727 50.211 3.54394C49.5923 4.2906 49.283 5.22927 49.283 6.35994C49.283 7.38394 49.5817 8.20527 50.179 8.82394C50.7763 9.42127 51.555 9.87994 52.515 10.1999C53.475 10.5199 54.819 10.8613 56.547 11.2239C58.2963 11.5866 59.651 11.9386 60.611 12.2799C61.5923 12.5999 62.4137 13.1439 63.075 13.9119C63.7577 14.6799 64.099 15.7573 64.099 17.1439C64.099 18.5306 63.7257 19.7039 62.979 20.6639C62.2537 21.6026 61.283 22.3066 60.067 22.7759C58.851 23.2453 57.5283 23.4799 56.099 23.4799C54.3283 23.4799 52.771 23.1493 51.427 22.4879C50.083 21.8266 49.0483 20.8986 48.323 19.7039C47.619 18.4879 47.267 17.1013 47.267 15.5439H48.451C48.451 16.9093 48.7497 18.1039 49.347 19.1279C49.9657 20.1519 50.851 20.9519 52.003 21.5279C53.155 22.0826 54.5203 22.3599 56.099 22.3599C58.0617 22.3599 59.683 21.8906 60.963 20.9519C62.2643 20.0133 62.915 18.7333 62.915 17.1119C62.915 16.0026 62.6377 15.1493 62.083 14.5519C61.5283 13.9546 60.8243 13.5279 59.971 13.2719C59.139 12.9946 57.8803 12.6853 56.195 12.3439ZM86.6345 0.727938V1.91194H79.9785V21.8159H86.6345V22.9999H72.2025V21.8159H78.8265V1.91194H72.2025V0.727938H86.6345ZM110.93 18.4239C110.354 19.8959 109.309 21.1119 107.794 22.0719C106.279 23.0106 104.658 23.4799 102.93 23.4799C101.266 23.4799 99.73 23.0639 98.322 22.2319C96.914 21.3999 95.794 20.2586 94.962 18.8079C94.1513 17.3359 93.746 15.7253 93.746 13.9759V9.49594C93.746 7.78927 94.1513 6.23194 94.962 4.82394C95.794 3.41594 96.9033 2.30661 98.29 1.49594C99.698 0.663938 101.245 0.247938 102.93 0.247938C104.317 0.247938 105.586 0.482605 106.738 0.951939C107.89 1.39994 108.871 2.06127 109.682 2.93594C110.343 3.66127 110.877 4.47194 111.282 5.36794C111.709 6.26394 111.922 7.17061 111.922 8.08794H110.77C110.749 7.2986 110.546 6.51994 110.162 5.75194C109.799 4.98394 109.33 4.2906 108.754 3.67194C107.325 2.1786 105.383 1.43194 102.93 1.43194C101.458 1.43194 100.103 1.7946 98.866 2.51994C97.65 3.22394 96.69 4.1946 95.986 5.43194C95.282 6.64794 94.93 8.00261 94.93 9.49594V13.9759C94.93 15.5333 95.282 16.9519 95.986 18.2319C96.7113 19.4906 97.682 20.4826 98.898 21.2079C100.135 21.9333 101.479 22.2959 102.93 22.2959C104.402 22.2959 105.746 21.9439 106.962 21.2399C108.199 20.5146 109.17 19.5439 109.874 18.3279C110.578 17.0906 110.93 15.7466 110.93 14.2959V13.1759H102.93V11.9919H112.114V22.9999H110.93V18.4239ZM118.074 22.9999V0.727938H119.322L134.874 15.8319V0.727938H136.058V22.9999H134.874V17.4959L119.258 2.26394V22.9999H118.074Z" fill="#1E1E1E"/>
</svg>
