<svg width="161" height="24" viewBox="0 0 161 24" fill="none" xmlns="http://www.w3.org/2000/svg">
<path d="M0.34 22.9999V0.727938H8.628C10.2493 0.727938 11.7427 1.13327 13.108 1.94394C14.4947 2.7546 15.5933 3.85327 16.404 5.23994C17.2147 6.60527 17.62 8.0986 17.62 9.71994V14.0079C17.62 15.6293 17.2147 17.1333 16.404 18.5199C15.5933 19.8853 14.4947 20.9733 13.108 21.7839C11.7427 22.5946 10.2493 22.9999 8.628 22.9999H0.34ZM24.3475 0.727938H40.0275V1.91194H25.5315V10.9359H38.1395V12.1199H25.5315V21.8159H40.0275V22.9999H24.3475V0.727938ZM47.171 0.727938L55.683 21.4319L64.195 0.727938H65.443L56.291 22.9999H55.043L45.891 0.727938H47.171ZM71.7225 0.727938H87.4025V1.91194H72.9065V10.9359H85.5145V12.1199H72.9065V21.8159H87.4025V22.9999H71.7225V0.727938ZM96.21 22.9999V0.727938H97.394V21.8159H112.914V22.9999H96.21ZM126.778 0.247938C128.442 0.247938 129.978 0.663938 131.385 1.49594C132.794 2.30661 133.903 3.41594 134.714 4.82394C135.546 6.23194 135.962 7.76794 135.962 9.43194V14.2959C135.962 15.9599 135.546 17.4959 134.714 18.9039C133.903 20.3119 132.794 21.4319 131.385 22.2639C129.978 23.0746 128.442 23.4799 126.778 23.4799C125.114 23.4799 123.578 23.0746 122.17 22.2639C120.762 21.4319 119.642 20.3119 118.81 18.9039C117.999 17.4959 117.594 15.9599 117.594 14.2959V9.43194C117.594 7.76794 117.999 6.23194 118.81 4.82394C119.642 3.41594 120.762 2.30661 122.17 1.49594C123.578 0.663938 125.114 0.247938 126.778 0.247938ZM118.778 14.2959C118.778 15.7466 119.13 17.0906 119.834 18.3279C120.559 19.5439 121.53 20.5146 122.746 21.2399C123.983 21.9439 125.327 22.2959 126.778 22.2959C128.228 22.2959 129.562 21.9439 130.778 21.2399C132.015 20.5146 132.986 19.5439 133.69 18.3279C134.415 17.0906 134.778 15.7466 134.778 14.2959V9.43194C134.778 7.98127 134.415 6.64794 133.69 5.43194C132.986 4.1946 132.015 3.22394 130.778 2.51994C129.562 1.7946 128.228 1.43194 126.778 1.43194C125.327 1.43194 123.983 1.7946 122.746 2.51994C121.53 3.22394 120.559 4.1946 119.834 5.43194C119.13 6.64794 118.778 7.98127 118.778 9.43194V14.2959ZM144.257 22.9999H143.073V0.727938H152.033C153.526 0.727938 154.902 1.04794 156.161 1.68794C157.441 2.32794 158.454 3.2346 159.201 4.40794C159.948 5.58127 160.321 6.93594 160.321 8.47194C160.321 9.94394 159.937 11.2986 159.169 12.5359C158.422 13.7733 157.398 14.7226 156.097 15.3839C154.966 15.9599 153.612 16.2479 152.033 16.2479H144.257V22.9999ZM144.257 15.0639H152.033C153.398 15.0639 154.518 14.8506 155.393 14.4239C156.524 13.8906 157.43 13.0906 158.113 12.0239C158.796 10.9573 159.137 9.77327 159.137 8.47194C159.137 7.19194 158.796 6.01861 158.113 4.95194C157.43 3.88527 156.513 3.08527 155.361 2.55194C154.486 2.12527 153.377 1.91194 152.033 1.91194H144.257V15.0639Z" fill="#1E1E1E"/>
</svg>
