<svg width="26" height="26" viewBox="0 0 26 26" fill="none" xmlns="http://www.w3.org/2000/svg">
<path d="M8.77222 11.3869H16.5847C17.0164 11.3869 17.366 11.0373 17.366 10.6056V9.82437C17.366 9.39273 17.0164 9.04312 16.5847 9.04312H8.77222C8.34058 9.04312 7.99097 9.39273 7.99097 9.82437V10.6056C7.99097 11.0373 8.34058 11.3869 8.77222 11.3869ZM7.99097 15.2931C7.99097 15.7248 8.34058 16.0744 8.77222 16.0744H16.5847C17.0164 16.0744 17.366 15.7248 17.366 15.2931V14.5119C17.366 14.0802 17.0164 13.7306 16.5847 13.7306H8.77222C8.34058 13.7306 7.99097 14.0802 7.99097 14.5119V15.2931ZM12.6785 21.2077C11.8767 21.2077 11.075 20.9606 10.3904 20.466L0.178467 13.089V23.4962C0.178467 24.7907 1.22778 25.84 2.52222 25.84H22.8347C24.1292 25.84 25.1785 24.7907 25.1785 23.4962V13.089L14.9666 20.466C14.282 20.9601 13.4802 21.2077 12.6785 21.2077ZM24.2805 8.79654C23.8484 8.45767 23.4387 8.13882 22.8347 7.68277V5.52749C22.8347 4.23306 21.7854 3.18374 20.491 3.18374H16.7043C16.5559 3.07632 16.4177 2.97574 16.2629 2.86343C15.4421 2.26431 13.8113 0.822905 12.6785 0.839994C11.5457 0.822905 9.91528 2.26431 9.09399 2.86343C8.93921 2.97574 8.80103 3.07632 8.65259 3.18374H4.86597C3.57153 3.18374 2.52222 4.23306 2.52222 5.52749V7.68277C1.91821 8.13833 1.50854 8.45767 1.07642 8.79654C0.796708 9.01574 0.570515 9.29569 0.414948 9.6152C0.259381 9.9347 0.178515 10.2854 0.178467 10.6408L0.178467 11.1608L4.86597 14.547V5.52749H20.491V14.547L25.1785 11.1608V10.6408C25.1785 9.92105 24.8474 9.24087 24.2805 8.79654Z" fill="#CACACA"/>
</svg>
