<svg width="100" height="100" viewBox="0 0 100 100" fill="none" xmlns="http://www.w3.org/2000/svg">
<path d="M71.5784 69.3749C76.1926 64.2393 79 57.4475 79 50C79 33.9837 66.0163 21 50 21C33.9837 21 21 33.9837 21 50C21 57.4475 23.8074 64.2393 28.4216 69.3749L17.6136 88.0949C6.83638 78.9237 0 65.2602 0 50C0 22.3858 22.3858 0 50 0C77.6142 0 100 22.3858 100 50C100 65.2602 93.1636 78.9237 82.3864 88.0949L71.5784 69.3749Z" fill="#353535"/>
<path d="M71.9648 69C66.6559 74.9088 58.9552 78.6251 50.3864 78.6251C41.8176 78.6251 33.3089 74.9088 28 69L17.5 88C26.2248 95.4246 38.0324 99.6251 50.3864 99.6251C62.7404 99.6251 74.048 95.1446 82.7728 87.72L71.9648 69Z" fill="#C3F0D2"/>
<circle cx="50.5" cy="49.5" r="39" stroke="#646464" stroke-width="11"/>
</svg>
