<svg width="24" height="24" viewBox="0 0 24 24" fill="none" xmlns="http://www.w3.org/2000/svg">
<path d="M7.23636 5.91781L5.6 4.2831L4.31818 5.57078L5.94545 7.20548L7.23636 5.91781ZM4.72727 11.0868H2V12.9132H4.72727V11.0868ZM12.9091 2H11.0909V4.69406H12.9091V2V2ZM19.6818 5.57078L18.4 4.2831L16.7727 5.91781L18.0545 7.20548L19.6818 5.57078ZM16.7636 18.0822L18.3909 19.726L19.6727 18.4384L18.0364 16.8037L16.7636 18.0822ZM19.2727 11.0868V12.9132H22V11.0868H19.2727ZM12 6.52055C8.99091 6.52055 6.54545 8.97717 6.54545 12C6.54545 15.0228 8.99091 17.4795 12 17.4795C15.0091 17.4795 17.4545 15.0228 17.4545 12C17.4545 8.97717 15.0091 6.52055 12 6.52055ZM11.0909 22H12.9091V19.3059H11.0909V22ZM4.31818 18.4292L5.6 19.7169L7.22727 18.0731L5.94545 16.7854L4.31818 18.4292Z" fill="black"/>
</svg>
