<svg xmlns="http://www.w3.org/2000/svg" viewBox="0 0 500 500"><g id="freepik--Background--inject-4"><g id="freepik--background--inject-4"><path id="freepik--background--inject-4" d="M63.55,136.64C144.39,24,279.78,11.87,345,22.54,437.11,37.61,480.81,110.71,483,152.79c4.69,88.4-37,99-22.6,143.15,18.49,56.7,6.84,110.94-65.74,152.8-54.87,31.64-249,69.25-343.12-47.62C-8.88,326.08,13.88,205.86,63.55,136.64Z" style="fill:#263238"></path><path d="M335,426.37a93.67,93.67,0,0,0,39.68-8.47c18.59-8.46,40.34-34.23,45.25-48.06,11.75-33.07-7-50.45-25-52.75-33-4.24-46.26,27-69.11,35.38-7.19,2.65-14.88,3.57-22.38,5.13-12.58,2.61-21.71,11.78-24.88,24s6,25,15.24,32.13c9.07,7,20.35,10.59,31.7,12A89.14,89.14,0,0,0,335,426.37Z" style="fill:#37474f"></path><path d="M303.58,69.56c-25.82,14.18-45.29,38.9-28.36,67.56,8.57,14.52,26.35,24.36,41.94,28.66,14.91,4.11,29.8,10.53,41,21.5,11.85,11.61,19.9,25.4,35.53,32.81,17.88,8.47,34.71,4.6,48.49-8.72,15.41-14.89,16.7-41.63,13.09-61.66-9-49.82-55.72-93.72-107.77-92.9C334.35,57,318,61.65,303.58,69.56Z" style="fill:#37474f"></path><path d="M88.27,123.58c-.38.5-.75,1-1.12,1.54C78.44,137.66,81,157.8,98.24,161.81a15.51,15.51,0,0,0,13.07-3c4.27-3.31,5-8.42,8.15-12.61s8.33-6.8,11.75-10.93a18.44,18.44,0,0,0,4-14.21c-1.3-9.07-10.32-11.75-18.34-11.81A35.23,35.23,0,0,0,88.27,123.58Z" style="fill:#37474f"></path><path d="M38.9,118.77c-2.7-5.06-2-12.77-.47-18.92C42.66,83.37,50.7,67.76,62.37,55.37c14.86-15.78,36.27-26,58.18-25.71,6.41.09,16.78,1.4,21.31,6.59,4.3,4.94-.34,9.32-4.82,11.87C111.53,62.64,88.77,78,70.49,99.88c-5.09,6.09-9.85,12.54-15.88,17.7-2.42,2.08-5.18,4-8.34,4.47C44.46,122.32,40.66,122.08,38.9,118.77Z" style="fill:#263238"></path></g></g><g id="freepik--Stars--inject-4"><g id="freepik--stars--inject-4"><path d="M306.4,206a11.24,11.24,0,1,1,11.24-11.24A11.25,11.25,0,0,1,306.4,206Zm0-21.8A10.56,10.56,0,1,0,317,194.78,10.58,10.58,0,0,0,306.4,184.22Z" style="fill:#BA68C8;opacity:0.5"></path><path d="M53.83,283a7.92,7.92,0,1,1,7.92-7.92A7.92,7.92,0,0,1,53.83,283Zm0-15.15a7.24,7.24,0,1,0,7.24,7.23A7.23,7.23,0,0,0,53.83,267.87Z" style="fill:#BA68C8;opacity:0.5"></path><path d="M158.8,448.82a8.4,8.4,0,1,1,8.39-8.4A8.4,8.4,0,0,1,158.8,448.82Zm0-16.11a7.71,7.71,0,1,0,7.71,7.71A7.72,7.72,0,0,0,158.8,432.71Z" style="fill:#BA68C8;opacity:0.5"></path><path d="M176.07,98.34a11.76,11.76,0,1,1,11.75-11.76A11.77,11.77,0,0,1,176.07,98.34Zm0-22.83a11.08,11.08,0,1,0,11.07,11.07A11.08,11.08,0,0,0,176.07,75.51Z" style="fill:#BA68C8;opacity:0.5"></path><path d="M309.6,194.78a3.2,3.2,0,1,1-3.2-3.2A3.2,3.2,0,0,1,309.6,194.78Z" style="fill:#BA68C8"></path><path d="M56.06,275.1a2.23,2.23,0,1,1-2.23-2.22A2.23,2.23,0,0,1,56.06,275.1Z" style="fill:#BA68C8"></path><path d="M161.16,440.42a2.36,2.36,0,1,1-2.36-2.36A2.36,2.36,0,0,1,161.16,440.42Z" style="fill:#BA68C8"></path><path d="M172.72,86.58a3.35,3.35,0,1,1,3.35,3.35A3.34,3.34,0,0,1,172.72,86.58Z" style="fill:#BA68C8"></path><path d="M427.9,110.37a1.33,1.33,0,1,1,.51,1.81A1.33,1.33,0,0,1,427.9,110.37Z" style="fill:#BA68C8"></path><path d="M423.47,107.13a.76.76,0,0,1,1-.3.77.77,0,1,1-1,.3Z" style="fill:#BA68C8"></path><path d="M379.28,252.68a1.07,1.07,0,0,1,1.41.59,1.08,1.08,0,1,1-1.41-.59Z" style="fill:#BA68C8"></path><path d="M387.67,245.49a1.77,1.77,0,1,1-1,2.3A1.78,1.78,0,0,1,387.67,245.49Z" style="fill:#BA68C8"></path><path d="M101,42.38a1.08,1.08,0,1,1-1.08,1.08A1.08,1.08,0,0,1,101,42.38Z" style="fill:#BA68C8"></path><path d="M104.8,52.05a1.08,1.08,0,1,1-1.08,1.08A1.08,1.08,0,0,1,104.8,52.05Z" style="fill:#BA68C8"></path><path d="M60.16,84.18a1.09,1.09,0,1,1-1.08,1.09A1.09,1.09,0,0,1,60.16,84.18Z" style="fill:#BA68C8"></path><path d="M111,43.46a1.76,1.76,0,1,1-1.76,1.76A1.76,1.76,0,0,1,111,43.46Z" style="fill:#BA68C8"></path><path d="M53.91,93.7a1.77,1.77,0,1,1-1.77,1.76A1.76,1.76,0,0,1,53.91,93.7Z" style="fill:#BA68C8"></path><path d="M348.3,398.25a2.88,2.88,0,1,1-2.88-2.88A2.88,2.88,0,0,1,348.3,398.25Z" style="fill:#BA68C8"></path><path d="M337.05,404a1.72,1.72,0,1,1-1.72-1.71A1.72,1.72,0,0,1,337.05,404Z" style="fill:#BA68C8"></path><path d="M337.05,392.39a1.39,1.39,0,1,1-1.38-1.39A1.38,1.38,0,0,1,337.05,392.39Z" style="fill:#BA68C8"></path><path d="M74.49,203.61a2.17,2.17,0,1,1-2.17-2.16A2.17,2.17,0,0,1,74.49,203.61Z" style="fill:#BA68C8"></path><path d="M66,208a1.29,1.29,0,1,1-1.29-1.29A1.29,1.29,0,0,1,66,208Z" style="fill:#BA68C8"></path><path d="M66,199.2a1,1,0,1,1-1-1A1,1,0,0,1,66,199.2Z" style="fill:#BA68C8"></path><path d="M228.75,116.07a1.09,1.09,0,1,1-1.08-1.08A1.08,1.08,0,0,1,228.75,116.07Z" style="fill:#BA68C8"></path><path d="M115.35,123.91a1.09,1.09,0,1,1-1.09-1.08A1.08,1.08,0,0,1,115.35,123.91Z" style="fill:#BA68C8"></path><path d="M235.42,101.26l2.44,2.41,3.37-.65a.39.39,0,0,1,.42.56l-1.54,3.07,1.66,3a.39.39,0,0,1-.4.57l-3.39-.51-2.34,2.5A.39.39,0,0,1,235,112l-.56-3.38-3.1-1.45a.39.39,0,0,1,0-.7l3.05-1.58.42-3.4A.39.39,0,0,1,235.42,101.26Z" style="fill:#BA68C8"></path><path d="M449.5,351.22l.38,2.62,2.37,1.18a.3.3,0,0,1,0,.54l-2.38,1.17-.38,2.62a.3.3,0,0,1-.51.17l-1.85-1.9-2.62.45a.3.3,0,0,1-.31-.44l1.23-2.35-1.23-2.34a.3.3,0,0,1,.32-.44l2.61.45,1.85-1.9A.31.31,0,0,1,449.5,351.22Z" style="fill:#BA68C8"></path><path d="M293.74,40.88l2.61-.47L297.44,38a.3.3,0,0,1,.54,0l1.26,2.33,2.63.29a.31.31,0,0,1,.19.51L300.22,43l.54,2.6a.3.3,0,0,1-.42.33L298,44.8l-2.3,1.32a.3.3,0,0,1-.45-.31l.35-2.62-2-1.79A.31.31,0,0,1,293.74,40.88Z" style="fill:#BA68C8"></path><path d="M106.1,142.29l-2.57.66-.91,2.49a.3.3,0,0,1-.54.05l-1.42-2.23L98,143.15a.3.3,0,0,1-.22-.49l1.69-2-.72-2.55a.3.3,0,0,1,.4-.36l2.47,1,2.2-1.47a.3.3,0,0,1,.47.27l-.17,2.64,2.08,1.64A.3.3,0,0,1,106.1,142.29Z" style="fill:#BA68C8"></path><path d="M324.82,277.18a1.33,1.33,0,1,1-.05,1.88A1.33,1.33,0,0,1,324.82,277.18Z" style="fill:#BA68C8"></path><path d="M321.56,272.76a.79.79,0,0,1,1.1,0,.78.78,0,0,1-1.13,1.07A.78.78,0,0,1,321.56,272.76Z" style="fill:#BA68C8"></path><path d="M260,447.08l-2.5.87-.71,2.56a.3.3,0,0,1-.53.1l-1.6-2.11-2.64.11a.3.3,0,0,1-.27-.47l1.52-2.17-.93-2.49a.3.3,0,0,1,.37-.39l2.54.77,2.07-1.65a.3.3,0,0,1,.49.23l0,2.65,2.21,1.46A.3.3,0,0,1,260,447.08Z" style="fill:#BA68C8"></path><path d="M430.86,199.56a1.77,1.77,0,1,1-1,2.3A1.77,1.77,0,0,1,430.86,199.56Z" style="fill:#BA68C8"></path><g style="opacity:0.6"><path d="M309.6,194.78a3.2,3.2,0,1,1-3.2-3.2A3.2,3.2,0,0,1,309.6,194.78Z" style="fill:#fff"></path><path d="M56.06,275.1a2.23,2.23,0,1,1-2.23-2.22A2.23,2.23,0,0,1,56.06,275.1Z" style="fill:#fff"></path><path d="M161.16,440.42a2.36,2.36,0,1,1-2.36-2.36A2.36,2.36,0,0,1,161.16,440.42Z" style="fill:#fff"></path><path d="M172.72,86.58a3.35,3.35,0,1,1,3.35,3.35A3.34,3.34,0,0,1,172.72,86.58Z" style="fill:#fff"></path><path d="M427.9,110.37a1.33,1.33,0,1,1,.51,1.81A1.33,1.33,0,0,1,427.9,110.37Z" style="fill:#fff"></path><path d="M423.47,107.13a.76.76,0,0,1,1-.3.77.77,0,1,1-1,.3Z" style="fill:#fff"></path><path d="M379.28,252.68a1.07,1.07,0,0,1,1.41.59,1.08,1.08,0,1,1-1.41-.59Z" style="fill:#fff"></path><path d="M387.67,245.49a1.77,1.77,0,1,1-1,2.3A1.78,1.78,0,0,1,387.67,245.49Z" style="fill:#fff"></path><path d="M101,42.38a1.08,1.08,0,1,1-1.08,1.08A1.08,1.08,0,0,1,101,42.38Z" style="fill:#fff"></path><path d="M104.8,52.05a1.08,1.08,0,1,1-1.08,1.08A1.08,1.08,0,0,1,104.8,52.05Z" style="fill:#fff"></path><path d="M60.16,84.18a1.09,1.09,0,1,1-1.08,1.09A1.09,1.09,0,0,1,60.16,84.18Z" style="fill:#fff"></path><path d="M111,43.46a1.76,1.76,0,1,1-1.76,1.76A1.76,1.76,0,0,1,111,43.46Z" style="fill:#fff"></path><path d="M53.91,93.7a1.77,1.77,0,1,1-1.77,1.76A1.76,1.76,0,0,1,53.91,93.7Z" style="fill:#fff"></path><path d="M348.3,398.25a2.88,2.88,0,1,1-2.88-2.88A2.88,2.88,0,0,1,348.3,398.25Z" style="fill:#fff"></path><path d="M337.05,404a1.72,1.72,0,1,1-1.72-1.71A1.72,1.72,0,0,1,337.05,404Z" style="fill:#fff"></path><path d="M337.05,392.39a1.39,1.39,0,1,1-1.38-1.39A1.38,1.38,0,0,1,337.05,392.39Z" style="fill:#fff"></path><path d="M74.49,203.61a2.17,2.17,0,1,1-2.17-2.16A2.17,2.17,0,0,1,74.49,203.61Z" style="fill:#fff"></path><path d="M66,208a1.29,1.29,0,1,1-1.29-1.29A1.29,1.29,0,0,1,66,208Z" style="fill:#fff"></path><path d="M66,199.2a1,1,0,1,1-1-1A1,1,0,0,1,66,199.2Z" style="fill:#fff"></path><path d="M228.75,116.07a1.09,1.09,0,1,1-1.08-1.08A1.08,1.08,0,0,1,228.75,116.07Z" style="fill:#fff"></path><path d="M115.35,123.91a1.09,1.09,0,1,1-1.09-1.08A1.08,1.08,0,0,1,115.35,123.91Z" style="fill:#fff"></path><path d="M235.42,101.26l2.44,2.41,3.37-.65a.39.39,0,0,1,.42.56l-1.54,3.07,1.66,3a.39.39,0,0,1-.4.57l-3.39-.51-2.34,2.5A.39.39,0,0,1,235,112l-.56-3.38-3.1-1.45a.39.39,0,0,1,0-.7l3.05-1.58.42-3.4A.39.39,0,0,1,235.42,101.26Z" style="fill:#fff"></path><path d="M449.5,351.22l.38,2.62,2.37,1.18a.3.3,0,0,1,0,.54l-2.38,1.17-.38,2.62a.3.3,0,0,1-.51.17l-1.85-1.9-2.62.45a.3.3,0,0,1-.31-.44l1.23-2.35-1.23-2.34a.3.3,0,0,1,.32-.44l2.61.45,1.85-1.9A.31.31,0,0,1,449.5,351.22Z" style="fill:#fff"></path><path d="M293.74,40.88l2.61-.47L297.44,38a.3.3,0,0,1,.54,0l1.26,2.33,2.63.29a.31.31,0,0,1,.19.51L300.22,43l.54,2.6a.3.3,0,0,1-.42.33L298,44.8l-2.3,1.32a.3.3,0,0,1-.45-.31l.35-2.62-2-1.79A.31.31,0,0,1,293.74,40.88Z" style="fill:#fff"></path><path d="M106.1,142.29l-2.57.66-.91,2.49a.3.3,0,0,1-.54.05l-1.42-2.23L98,143.15a.3.3,0,0,1-.22-.49l1.69-2-.72-2.55a.3.3,0,0,1,.4-.36l2.47,1,2.2-1.47a.3.3,0,0,1,.47.27l-.17,2.64,2.08,1.64A.3.3,0,0,1,106.1,142.29Z" style="fill:#fff"></path><path d="M324.82,277.18a1.33,1.33,0,1,1-.05,1.88A1.33,1.33,0,0,1,324.82,277.18Z" style="fill:#fff"></path><path d="M321.56,272.76a.79.79,0,0,1,1.1,0,.78.78,0,0,1-1.13,1.07A.78.78,0,0,1,321.56,272.76Z" style="fill:#fff"></path><path d="M260,447.08l-2.5.87-.71,2.56a.3.3,0,0,1-.53.1l-1.6-2.11-2.64.11a.3.3,0,0,1-.27-.47l1.52-2.17-.93-2.49a.3.3,0,0,1,.37-.39l2.54.77,2.07-1.65a.3.3,0,0,1,.49.23l0,2.65,2.21,1.46A.3.3,0,0,1,260,447.08Z" style="fill:#fff"></path><path d="M430.86,199.56a1.77,1.77,0,1,1-1,2.3A1.77,1.77,0,0,1,430.86,199.56Z" style="fill:#fff"></path></g></g><g id="freepik--Comets--inject-4"><path d="M363.94,364.06a3.7,3.7,0,0,1,.64-5.18,3.69,3.69,0,0,1,4.54,5.82,3.7,3.7,0,0,1-5.18-.64Z" style="fill:#BA68C8"></path><path d="M364.76,363.42a3.66,3.66,0,0,1-.75-2.69,3.66,3.66,0,0,1,4.08-3.19,3.64,3.64,0,0,1,2.43,1.38,3.68,3.68,0,0,1,.75,2.7,3.6,3.6,0,0,1-1.38,2.43,3.65,3.65,0,0,1-5.13-.63Z" style="fill:#BA68C8;opacity:0.9901979999999999"></path><path d="M365.58,362.78a3.65,3.65,0,0,1-.74-2.67,3.65,3.65,0,0,1,4-3.16,3.62,3.62,0,0,1,2.41,1.37A3.56,3.56,0,0,1,372,361a3.62,3.62,0,0,1-6.45,1.79Z" style="fill:#BA68C8;opacity:0.9803959999999999"></path><path d="M366.4,362.14a3.6,3.6,0,1,1,2.39,1.35A3.59,3.59,0,0,1,366.4,362.14Z" style="fill:#BA68C8;opacity:0.970594"></path><path d="M367.22,361.5a3.57,3.57,0,0,1-.72-2.62,3.56,3.56,0,0,1,4-3.1,3.54,3.54,0,0,1,3.09,4,3.5,3.5,0,0,1-1.34,2.37,3.55,3.55,0,0,1-5-.61Z" style="fill:#BA68C8;opacity:0.960792"></path><path d="M368,360.86a3.53,3.53,0,0,1,.61-4.95,3.52,3.52,0,1,1,1.74,6.27A3.55,3.55,0,0,1,368,360.86Z" style="fill:#BA68C8;opacity:0.9509900000000001"></path><path d="M368.87,360.22a3.49,3.49,0,0,1,5.49-4.3,3.48,3.48,0,0,1-.6,4.9,3.49,3.49,0,0,1-4.89-.6Z" style="fill:#BA68C8;opacity:0.9411879999999999"></path><path d="M369.69,359.57a3.45,3.45,0,0,1,3.14-5.55,3.46,3.46,0,0,1-.84,6.86A3.41,3.41,0,0,1,369.69,359.57Z" style="fill:#BA68C8;opacity:0.9313859999999999"></path><path d="M370.51,358.93a3.42,3.42,0,0,1,3.11-5.5,3.42,3.42,0,0,1-.83,6.79A3.36,3.36,0,0,1,370.51,358.93Z" style="fill:#BA68C8;opacity:0.921584"></path><path d="M371.33,358.29a3.4,3.4,0,0,1-.7-2.5,3.36,3.36,0,0,1,1.28-2.25,3.38,3.38,0,0,1,4.76.58,3.43,3.43,0,0,1,.69,2.5,3.38,3.38,0,0,1-6,1.67Z" style="fill:#BA68C8;opacity:0.911782"></path><path d="M372.15,357.65a3.35,3.35,0,0,1,.58-4.71,3.36,3.36,0,0,1,4.7.58,3.35,3.35,0,0,1-3.05,5.39A3.31,3.31,0,0,1,372.15,357.65Z" style="fill:#BA68C8;opacity:0.9019800000000001"></path><path d="M373,357a3.32,3.32,0,1,1,2.21,1.25A3.31,3.31,0,0,1,373,357Z" style="fill:#BA68C8;opacity:0.8921779999999999"></path><path d="M373.79,356.37a3.3,3.3,0,0,1,.57-4.62,3.28,3.28,0,0,1,5.28,3,3.22,3.22,0,0,1-1.24,2.19,3.28,3.28,0,0,1-2.42.68A3.32,3.32,0,0,1,373.79,356.37Z" style="fill:#BA68C8;opacity:0.8823759999999999"></path><path d="M374.61,355.73a3.25,3.25,0,0,1,.56-4.57,3.27,3.27,0,0,1,4.57.56,3.26,3.26,0,0,1-5.13,4Z" style="fill:#BA68C8;opacity:0.872574"></path><path d="M375.43,355.08a3.22,3.22,0,0,1,5.07-4,3.22,3.22,0,1,1-5.07,4Z" style="fill:#BA68C8;opacity:0.862772"></path><path d="M376.25,354.44a3.18,3.18,0,1,1,5.67-1.57,3.14,3.14,0,0,1-1.2,2.12,3.18,3.18,0,0,1-2.35.65A3.1,3.1,0,0,1,376.25,354.44Z" style="fill:#BA68C8;opacity:0.8529700000000001"></path><path d="M377.07,353.8a3.16,3.16,0,0,1,2.87-5.07,3.19,3.19,0,0,1,2.1,1.19,3.17,3.17,0,0,1-.54,4.43,3.16,3.16,0,0,1-4.43-.55Z" style="fill:#BA68C8;opacity:0.8431679999999999"></path><path d="M377.89,353.16a3.12,3.12,0,0,1,4.92-3.84,3.12,3.12,0,1,1-4.92,3.84Z" style="fill:#BA68C8;opacity:0.8333659999999999"></path><path d="M378.71,352.52a3.08,3.08,0,0,1,.54-4.33,3.07,3.07,0,0,1,2.27-.63,3.08,3.08,0,0,1,1.52,5.49,3,3,0,0,1-2.27.63A3.06,3.06,0,0,1,378.71,352.52Z" style="fill:#BA68C8;opacity:0.823564"></path><path d="M379.53,351.88a3.1,3.1,0,0,1-.62-2.25,3.05,3.05,0,1,1,4.91,2.77,3.05,3.05,0,0,1-4.29-.52Z" style="fill:#BA68C8;opacity:0.813762"></path><path d="M380.36,351.24a3,3,0,0,1,.52-4.24,3,3,0,0,1,2.22-.62,3,3,0,0,1,2.63,3.37,3,3,0,0,1-1.14,2,3,3,0,0,1-4.23-.52Z" style="fill:#BA68C8;opacity:0.8039600000000001"></path><path d="M381.18,350.6a3,3,0,0,1,4.7-3.68,3,3,0,0,1-4.7,3.68Z" style="fill:#BA68C8;opacity:0.7941579999999999"></path><path d="M382,350a2.93,2.93,0,1,1,2,1.12A2.94,2.94,0,0,1,382,350Z" style="fill:#BA68C8;opacity:0.7843559999999999"></path><path d="M382.82,349.31a2.91,2.91,0,1,1,4.09.51,2.93,2.93,0,0,1-2.15.59A2.87,2.87,0,0,1,382.82,349.31Z" style="fill:#BA68C8;opacity:0.774554"></path><path d="M383.64,348.67a2.88,2.88,0,0,1,4.54-3.55,2.88,2.88,0,1,1-4.54,3.55Z" style="fill:#BA68C8;opacity:0.764752"></path><path d="M384.46,348a2.85,2.85,0,0,1,2.59-4.58,2.82,2.82,0,0,1,1.9,1.07,2.85,2.85,0,0,1,.58,2.1,2.84,2.84,0,0,1-3.17,2.48A2.78,2.78,0,0,1,384.46,348Z" style="fill:#BA68C8;opacity:0.75495"></path><path d="M385.28,347.39a2.84,2.84,0,0,1-.58-2.08,2.82,2.82,0,1,1,5.59.69,2.74,2.74,0,0,1-1.06,1.87,2.78,2.78,0,0,1-2.07.58A2.83,2.83,0,0,1,385.28,347.39Z" style="fill:#BA68C8;opacity:0.745149"></path><path d="M386.1,346.75a2.79,2.79,0,0,1,4.39-3.43,2.81,2.81,0,0,1-.48,3.91,2.78,2.78,0,0,1-3.91-.48Z" style="fill:#BA68C8;opacity:0.735347"></path><path d="M386.92,346.11a2.75,2.75,0,0,1,.48-3.86,2.68,2.68,0,0,1,2-.56,2.72,2.72,0,0,1,1.83,1,2.74,2.74,0,0,1-.47,3.86,2.76,2.76,0,0,1-3.86-.47Z" style="fill:#BA68C8;opacity:0.725545"></path><path d="M387.74,345.47a2.72,2.72,0,0,1,4.28-3.35,2.72,2.72,0,0,1-4.28,3.35Z" style="fill:#BA68C8;opacity:0.715743"></path><path d="M388.56,344.82a2.68,2.68,0,0,1,4.23-3.3,2.68,2.68,0,1,1-4.23,3.3Z" style="fill:#BA68C8;opacity:0.7059409999999999"></path><path d="M389.38,344.18a2.64,2.64,0,0,1,.46-3.71,2.61,2.61,0,0,1,2-.54,2.64,2.64,0,1,1-2.41,4.25Z" style="fill:#BA68C8;opacity:0.696139"></path><path d="M390.21,343.54a2.59,2.59,0,0,1-.54-1.93,2.61,2.61,0,0,1,5.19.64,2.61,2.61,0,0,1-4.65,1.29Z" style="fill:#BA68C8;opacity:0.686337"></path><path d="M391,342.9a2.58,2.58,0,1,1,4.59-1.27,2.59,2.59,0,0,1-1,1.72,2.62,2.62,0,0,1-1.91.52A2.55,2.55,0,0,1,391,342.9Z" style="fill:#BA68C8;opacity:0.676535"></path><path d="M391.85,342.26a2.55,2.55,0,0,1,2.31-4.1,2.55,2.55,0,1,1-2.31,4.1Z" style="fill:#BA68C8;opacity:0.666733"></path><path d="M392.67,341.62a2.5,2.5,0,0,1-.52-1.86,2.54,2.54,0,0,1,1-1.67,2.48,2.48,0,0,1,1.85-.51,2.49,2.49,0,0,1,2.19,2.8,2.48,2.48,0,0,1-.95,1.67,2.49,2.49,0,0,1-3.52-.43Z" style="fill:#BA68C8;opacity:0.6569309999999999"></path><path d="M393.49,341a2.47,2.47,0,0,1,.43-3.48,2.44,2.44,0,0,1,1.82-.51,2.51,2.51,0,0,1,1.66.93,2.46,2.46,0,0,1,.5,1.83,2.43,2.43,0,0,1-.93,1.65,2.47,2.47,0,0,1-1.83.51A2.51,2.51,0,0,1,393.49,341Z" style="fill:#BA68C8;opacity:0.647129"></path><path d="M394.31,340.34a2.41,2.41,0,0,1-.5-1.81,2.44,2.44,0,0,1,2.72-2.13,2.45,2.45,0,0,1,1.21,4.36,2.48,2.48,0,0,1-1.8.5A2.43,2.43,0,0,1,394.31,340.34Z" style="fill:#BA68C8;opacity:0.637327"></path><path d="M395.13,339.69a2.41,2.41,0,0,1,2.19-3.87,2.41,2.41,0,1,1-.58,4.78A2.36,2.36,0,0,1,395.13,339.69Z" style="fill:#BA68C8;opacity:0.627525"></path><path d="M396,339.05a2.37,2.37,0,0,1,.41-3.34,2.4,2.4,0,0,1,3.34.41,2.42,2.42,0,0,1,.49,1.76,2.39,2.39,0,0,1-2.66,2.07A2.34,2.34,0,0,1,396,339.05Z" style="fill:#BA68C8;opacity:0.617723"></path><path d="M396.77,338.41a2.34,2.34,0,0,1,.41-3.29,2.32,2.32,0,0,1,1.72-.48,2.37,2.37,0,0,1,1.57.88,2.35,2.35,0,1,1-3.7,2.89Z" style="fill:#BA68C8;opacity:0.6079209999999999"></path><path d="M397.59,337.77a2.31,2.31,0,0,1,.4-3.24,2.28,2.28,0,0,1,1.7-.48,2.33,2.33,0,0,1,1.54.87,2.31,2.31,0,0,1,.48,1.71,2.31,2.31,0,0,1-2.58,2A2.29,2.29,0,0,1,397.59,337.77Z" style="fill:#BA68C8;opacity:0.598119"></path><path d="M398.41,337.13a2.29,2.29,0,0,1-.46-1.68,2.27,2.27,0,1,1,2,2.54A2.3,2.3,0,0,1,398.41,337.13Z" style="fill:#BA68C8;opacity:0.588317"></path><path d="M399.23,336.49a2.25,2.25,0,0,1-.46-1.66,2.22,2.22,0,0,1,.85-1.49,2.25,2.25,0,0,1,1.66-.46,2.24,2.24,0,0,1-.55,4.45A2.27,2.27,0,0,1,399.23,336.49Z" style="fill:#BA68C8;opacity:0.578515"></path><path d="M400.05,335.85a2.22,2.22,0,0,1,.39-3.11,2.2,2.2,0,0,1,1.63-.45,2.23,2.23,0,0,1,1.47.84,2.21,2.21,0,0,1-.38,3.1,2.23,2.23,0,0,1-3.11-.38Z" style="fill:#BA68C8;opacity:0.568713"></path><path d="M400.88,335.21a2.18,2.18,0,0,1,.37-3.06,2.21,2.21,0,0,1,1.61-.45,2.18,2.18,0,0,1,1.07,3.88,2.2,2.2,0,0,1-1.6.45A2.15,2.15,0,0,1,400.88,335.21Z" style="fill:#BA68C8;opacity:0.5589109999999999"></path><path d="M401.7,334.56a2.14,2.14,0,1,1,3.81-1.05,2.12,2.12,0,0,1-.81,1.42,2.09,2.09,0,0,1-1.58.44A2.12,2.12,0,0,1,401.7,334.56Z" style="fill:#BA68C8;opacity:0.549109"></path><path d="M402.52,333.92a2,2,0,0,1-.43-1.55,2.1,2.1,0,0,1,2.35-1.84,2.13,2.13,0,0,1,1.4.8,2,2,0,0,1,.43,1.55,2.11,2.11,0,0,1-.79,1.41,2.17,2.17,0,0,1-1.56.43A2.08,2.08,0,0,1,402.52,333.92Z" style="fill:#BA68C8;opacity:0.539307"></path><path d="M403.34,333.28a2.07,2.07,0,1,1,3.27-2.55,2.07,2.07,0,0,1-3.27,2.55Z" style="fill:#BA68C8;opacity:0.529505"></path><path d="M404.16,332.64a2,2,0,0,1,1.86-3.28,2,2,0,0,1,1.77,2.27A2,2,0,0,1,407,333a2,2,0,0,1-2.86-.35Z" style="fill:#BA68C8;opacity:0.519703"></path><path d="M405,332a2,2,0,0,1-.41-1.48,2,2,0,0,1,.76-1.34,2,2,0,0,1,1.48-.41,2,2,0,0,1,1.33.76,2,2,0,0,1,.42,1.48,2,2,0,0,1-2.24,1.75A2,2,0,0,1,405,332Z" style="fill:#BA68C8;opacity:0.5099009999999999"></path><path d="M405.8,331.36a2,2,0,1,1,3.52-1,2,2,0,0,1-.75,1.32,2,2,0,0,1-1.45.4A1.94,1.94,0,0,1,405.8,331.36Z" style="fill:#BA68C8;opacity:0.500099"></path><path d="M406.62,330.72a1.94,1.94,0,0,1,1.77-3.13,2,2,0,0,1,1.29.74,1.93,1.93,0,0,1-.33,2.72,1.94,1.94,0,0,1-2.73-.33Z" style="fill:#BA68C8;opacity:0.490297"></path><path d="M407.44,330.08a1.93,1.93,0,0,1-.39-1.41,1.9,1.9,0,0,1,.72-1.27,1.91,1.91,0,0,1,2.68.33,1.9,1.9,0,0,1-.33,2.67,1.87,1.87,0,0,1-1.41.39A1.89,1.89,0,0,1,407.44,330.08Z" style="fill:#BA68C8;opacity:0.480495"></path><path d="M408.26,329.43a1.89,1.89,0,0,1,.32-2.63,1.91,1.91,0,0,1,1.39-.38,1.87,1.87,0,1,1-1.71,3Z" style="fill:#BA68C8;opacity:0.470693"></path><path d="M409.08,328.79a1.81,1.81,0,0,1-.37-1.35,1.78,1.78,0,0,1,.69-1.23,1.82,1.82,0,0,1,2.58.32,1.81,1.81,0,0,1,.38,1.35,1.84,1.84,0,0,1-2.05,1.61A1.85,1.85,0,0,1,409.08,328.79Z" style="fill:#BA68C8;opacity:0.460891"></path><path d="M409.9,328.15a1.85,1.85,0,0,1-.37-1.33,1.81,1.81,0,0,1,3.59.44,1.8,1.8,0,0,1-.68,1.2,1.76,1.76,0,0,1-1.33.37A1.78,1.78,0,0,1,409.9,328.15Z" style="fill:#BA68C8;opacity:0.45108899999999996"></path><path d="M410.72,327.51a1.78,1.78,0,0,1-.36-1.31A1.81,1.81,0,0,1,411,325a1.77,1.77,0,0,1,2.18,2.8,1.77,1.77,0,0,1-1.3.36A1.81,1.81,0,0,1,410.72,327.51Z" style="fill:#BA68C8;opacity:0.441287"></path><path d="M411.55,326.87a1.69,1.69,0,0,1-.36-1.28,1.72,1.72,0,0,1,.65-1.16,1.75,1.75,0,0,1,1.29-.36,1.77,1.77,0,0,1,1.16.66,1.75,1.75,0,0,1-.3,2.44,1.74,1.74,0,0,1-1.29.35A1.72,1.72,0,0,1,411.55,326.87Z" style="fill:#BA68C8;opacity:0.431485"></path><path d="M412.37,326.23a1.71,1.71,0,0,1,.29-2.4,1.76,1.76,0,0,1,1.26-.35,1.71,1.71,0,0,1,1.13.65,1.7,1.7,0,0,1-.29,2.39,1.71,1.71,0,0,1-1.26.35A1.66,1.66,0,0,1,412.37,326.23Z" style="fill:#BA68C8;opacity:0.421683"></path><path d="M413.19,325.59a1.66,1.66,0,0,1-.35-1.24,1.68,1.68,0,0,1,.63-1.11,1.67,1.67,0,0,1,1.24-.34,1.67,1.67,0,0,1,1.45,1.86,1.61,1.61,0,0,1-.63,1.11,1.64,1.64,0,0,1-1.23.35A1.68,1.68,0,0,1,413.19,325.59Z" style="fill:#BA68C8;opacity:0.411881"></path><path d="M414,325a1.64,1.64,0,0,1-.34-1.21,1.63,1.63,0,0,1,1.83-1.43,1.61,1.61,0,0,1,1.09.62,1.63,1.63,0,0,1,.34,1.21,1.63,1.63,0,0,1-1.83,1.42A1.61,1.61,0,0,1,414,325Z" style="fill:#BA68C8;opacity:0.40207899999999996"></path><path d="M414.83,324.3a1.59,1.59,0,0,1-.33-1.18,1.6,1.6,0,0,1,1.79-1.4,1.61,1.61,0,1,1-1.46,2.58Z" style="fill:#BA68C8;opacity:0.392277"></path><path d="M415.65,323.66a1.57,1.57,0,0,1,2.48-1.93,1.58,1.58,0,0,1,.32,1.16,1.56,1.56,0,0,1-.6,1,1.57,1.57,0,0,1-2.2-.27Z" style="fill:#BA68C8;opacity:0.382475"></path><path d="M416.47,323a1.51,1.51,0,0,1-.31-1.13,1.5,1.5,0,0,1,.57-1,1.54,1.54,0,0,1,2.16.27,1.52,1.52,0,0,1,.32,1.13,1.55,1.55,0,0,1-.58,1,1.52,1.52,0,0,1-1.14.31A1.55,1.55,0,0,1,416.47,323Z" style="fill:#BA68C8;opacity:0.372673"></path><path d="M417.29,322.38a1.54,1.54,0,0,1-.31-1.11,1.51,1.51,0,0,1,1.68-1.31,1.47,1.47,0,0,1,1,.57,1.5,1.5,0,0,1-.26,2.11,1.5,1.5,0,0,1-2.11-.26Z" style="fill:#BA68C8;opacity:0.362871"></path><path d="M418.11,321.74a1.45,1.45,0,0,1-.3-1.09,1.53,1.53,0,0,1,.55-1,1.54,1.54,0,0,1,1.09-.3,1.48,1.48,0,0,1,1,.56,1.43,1.43,0,0,1,.3,1.08,1.5,1.5,0,0,1-.55,1,1.45,1.45,0,0,1-1.09.3A1.43,1.43,0,0,1,418.11,321.74Z" style="fill:#BA68C8;opacity:0.35306899999999997"></path><path d="M418.93,321.1a1.44,1.44,0,1,1,2,.25,1.45,1.45,0,0,1-2-.25Z" style="fill:#BA68C8;opacity:0.343267"></path><path d="M419.75,320.46a1.42,1.42,0,0,1-.28-1,1.36,1.36,0,0,1,.52-.93,1.4,1.4,0,0,1,2,.24,1.35,1.35,0,0,1,.29,1,1.41,1.41,0,0,1-.53.94,1.43,1.43,0,0,1-1,.29A1.45,1.45,0,0,1,419.75,320.46Z" style="fill:#BA68C8;opacity:0.333465"></path><path d="M420.57,319.81a1.37,1.37,0,1,1,2.16-1.68,1.33,1.33,0,0,1,.28,1,1.36,1.36,0,0,1-.51.91,1.39,1.39,0,0,1-1,.28A1.34,1.34,0,0,1,420.57,319.81Z" style="fill:#BA68C8;opacity:0.323663"></path><path d="M421.39,319.17a1.34,1.34,0,0,1-.27-1,1.32,1.32,0,0,1,.5-.89,1.34,1.34,0,0,1,1-.28,1.36,1.36,0,0,1,.89.51,1.31,1.31,0,0,1,.27,1,1.29,1.29,0,0,1-.5.89,1.33,1.33,0,0,1-1.88-.23Z" style="fill:#BA68C8;opacity:0.313861"></path><path d="M422.22,318.53a1.29,1.29,0,0,1-.27-1,1.31,1.31,0,0,1,.49-.87,1.34,1.34,0,0,1,1-.26,1.29,1.29,0,0,1,.87.49,1.25,1.25,0,0,1,.26,1,1.31,1.31,0,0,1-.49.87,1.29,1.29,0,0,1-1,.26A1.27,1.27,0,0,1,422.22,318.53Z" style="fill:#BA68C8;opacity:0.30405899999999997"></path><path d="M423,317.89a1.23,1.23,0,0,1-.26-.93,1.26,1.26,0,0,1,.47-.85,1.28,1.28,0,0,1,1.79.22,1.27,1.27,0,0,1-.22,1.78,1.29,1.29,0,0,1-.94.26A1.25,1.25,0,0,1,423,317.89Z" style="fill:#BA68C8;opacity:0.294257"></path><path d="M423.86,317.25a1.22,1.22,0,0,1-.26-.91,1.2,1.2,0,0,1,.47-.82,1.21,1.21,0,0,1,.91-.26,1.2,1.2,0,0,1,.82.47,1.21,1.21,0,0,1,.26.91,1.2,1.2,0,0,1-.47.82,1.25,1.25,0,0,1-.91.26A1.2,1.2,0,0,1,423.86,317.25Z" style="fill:#BA68C8;opacity:0.284455"></path><path d="M424.68,316.61a1.21,1.21,0,0,1-.25-.89,1.23,1.23,0,0,1,.45-.8,1.2,1.2,0,0,1,.89-.24,1.15,1.15,0,0,1,.8.45,1.19,1.19,0,0,1-.21,1.69,1.17,1.17,0,0,1-.88.24A1.19,1.19,0,0,1,424.68,316.61Z" style="fill:#BA68C8;opacity:0.274653"></path><path d="M425.5,316a1.13,1.13,0,0,1-.24-.86,1.15,1.15,0,0,1,.44-.78,1.13,1.13,0,0,1,.86-.24,1.2,1.2,0,0,1,.78.44,1.22,1.22,0,0,1,.24.86,1.2,1.2,0,0,1-.44.78,1.22,1.22,0,0,1-.86.24A1.17,1.17,0,0,1,425.5,316Z" style="fill:#BA68C8;opacity:0.264851"></path><path d="M426.32,315.33a1.15,1.15,0,0,1,.19-1.6,1.14,1.14,0,0,1,1.6.2,1.13,1.13,0,0,1-.2,1.59,1.14,1.14,0,0,1-1.59-.19Z" style="fill:#BA68C8;opacity:0.25505"></path><path d="M427.14,314.68a1.12,1.12,0,0,1-.23-.81,1.1,1.1,0,0,1,.42-.73,1.15,1.15,0,0,1,.81-.23,1.08,1.08,0,0,1,.73.42,1.1,1.1,0,0,1,.23.81,1,1,0,0,1-.42.73,1.08,1.08,0,0,1-.81.23A1.1,1.1,0,0,1,427.14,314.68Z" style="fill:#BA68C8;opacity:0.245248"></path><path d="M428,314a1.07,1.07,0,0,1-.22-.78,1.09,1.09,0,0,1,.4-.71,1,1,0,0,1,.79-.22,1,1,0,0,1,.71.4,1.08,1.08,0,0,1,.22.79,1.05,1.05,0,0,1-.4.71,1.08,1.08,0,0,1-.79.22A1.11,1.11,0,0,1,428,314Z" style="fill:#BA68C8;opacity:0.235446"></path><path d="M428.78,313.4a1,1,0,0,1-.21-.76A1,1,0,0,1,429,312a1,1,0,0,1,.76-.21,1,1,0,0,1,.69.39,1,1,0,0,1,.21.76,1,1,0,0,1-.39.69,1,1,0,0,1-.76.21A1,1,0,0,1,428.78,313.4Z" style="fill:#BA68C8;opacity:0.22564399999999998"></path><path d="M429.6,312.76a1,1,0,0,1-.2-.74,1,1,0,0,1,.37-.66,1,1,0,0,1,.74-.21,1,1,0,0,1,.67.38,1,1,0,0,1,.2.74,1,1,0,0,1-.37.66,1,1,0,0,1-.74.21A1,1,0,0,1,429.6,312.76Z" style="fill:#BA68C8;opacity:0.21584199999999998"></path><path d="M430.42,312.12a.92.92,0,0,1-.19-.71,1,1,0,0,1,.36-.65.92.92,0,0,1,.71-.19,1,1,0,1,1-.23,1.91A1,1,0,0,1,430.42,312.12Z" style="fill:#BA68C8;opacity:0.20604000000000003"></path><path d="M431.24,311.48a.94.94,0,0,1,.16-1.31.93.93,0,0,1,1.5.85.94.94,0,0,1-.35.62,1,1,0,0,1-.69.19A.94.94,0,0,1,431.24,311.48Z" style="fill:#BA68C8;opacity:0.196238"></path><path d="M432.06,310.84a.9.9,0,1,1,1.42-1.11.93.93,0,0,1,.19.66.9.9,0,0,1-.34.6,1,1,0,0,1-.67.19A.92.92,0,0,1,432.06,310.84Z" style="fill:#BA68C8;opacity:0.186436"></path><path d="M432.89,310.2a.85.85,0,0,1-.18-.64A.89.89,0,0,1,433,309a.94.94,0,0,1,.64-.18.88.88,0,0,1,.58.33.91.91,0,0,1,.18.64.88.88,0,0,1-.33.57.82.82,0,0,1-.64.18A.87.87,0,0,1,432.89,310.2Z" style="fill:#BA68C8;opacity:0.17663399999999999"></path><path d="M433.71,309.55a.79.79,0,0,1-.17-.61.78.78,0,0,1,.31-.55.81.81,0,0,1,.61-.17.8.8,0,0,1,.56.31.83.83,0,0,1-.15,1.17.83.83,0,0,1-.61.17A.8.8,0,0,1,433.71,309.55Z" style="fill:#BA68C8;opacity:0.16683199999999998"></path><path d="M434.53,308.91a.79.79,0,0,1-.17-.59.84.84,0,0,1,.3-.53.8.8,0,1,1,1,1.26.79.79,0,0,1-.59.16A.76.76,0,0,1,434.53,308.91Z" style="fill:#BA68C8;opacity:0.15703"></path><path d="M435.35,308.27a.76.76,0,0,1-.16-.56.8.8,0,0,1,.29-.51A.76.76,0,0,1,436,307a.78.78,0,0,1,.51.29.77.77,0,0,1,.16.56.78.78,0,0,1-.29.51.76.76,0,0,1-.56.16A.74.74,0,0,1,435.35,308.27Z" style="fill:#BA68C8;opacity:0.147228"></path><path d="M436.17,307.63a.75.75,0,0,1-.15-.54.76.76,0,0,1,.27-.49.71.71,0,0,1,.54-.14.73.73,0,0,1,.49.27.76.76,0,0,1,.15.54.71.71,0,0,1-.28.49.72.72,0,0,1-1-.13Z" style="fill:#BA68C8;opacity:0.137426"></path><path d="M437,307a.64.64,0,0,1-.14-.51.68.68,0,0,1,.26-.47.72.72,0,0,1,.51-.14.68.68,0,0,1,.47.26.74.74,0,0,1,.14.52.68.68,0,0,1-.26.46.74.74,0,0,1-.52.14A.66.66,0,0,1,437,307Z" style="fill:#BA68C8;opacity:0.127624"></path><path d="M437.81,306.35a.66.66,0,0,1,.6-1.07.66.66,0,1,1-.6,1.07Z" style="fill:#BA68C8;opacity:0.117822"></path><path d="M438.63,305.71a.63.63,0,0,1,.11-.89.64.64,0,0,1,.46-.13.62.62,0,0,1,.42.24.61.61,0,0,1,.13.47.63.63,0,0,1-.24.42.62.62,0,0,1-.46.12A.61.61,0,0,1,438.63,305.71Z" style="fill:#BA68C8;opacity:0.10802"></path><path d="M439.45,305.07a.6.6,0,0,1-.12-.44.62.62,0,0,1,.22-.4.6.6,0,0,1,.44-.12.62.62,0,0,1,.4.22.58.58,0,0,1,.12.44.62.62,0,0,1-.22.4.58.58,0,0,1-.44.12A.62.62,0,0,1,439.45,305.07Z" style="fill:#BA68C8;opacity:0.098218"></path><path d="M440.27,304.42a.54.54,0,0,1-.11-.41.58.58,0,0,1,.21-.38.57.57,0,0,1,.79.1.57.57,0,0,1,.11.42.52.52,0,0,1-.21.37.6.6,0,0,1-.41.12A.57.57,0,0,1,440.27,304.42Z" style="fill:#BA68C8;opacity:0.088416"></path><path d="M441.09,303.78a.6.6,0,0,1-.11-.39.55.55,0,0,1,.2-.35.5.5,0,0,1,.39-.11.57.57,0,0,1,.36.2.6.6,0,0,1,.11.39.52.52,0,0,1-.2.35.51.51,0,0,1-.39.11A.53.53,0,0,1,441.09,303.78Z" style="fill:#BA68C8;opacity:0.078614"></path><path d="M441.91,303.14a.49.49,0,0,1,.09-.69.52.52,0,0,1,.36-.11.52.52,0,0,1,.44.56.53.53,0,0,1-.19.33.52.52,0,0,1-.37.1A.49.49,0,0,1,441.91,303.14Z" style="fill:#BA68C8;opacity:0.068812"></path><path d="M442.73,302.5a.46.46,0,0,1-.09-.34.48.48,0,0,1,.17-.31.46.46,0,0,1,.34-.09.44.44,0,0,1,.31.17.47.47,0,0,1,.1.34.45.45,0,0,1-.18.31.41.41,0,0,1-.34.09A.44.44,0,0,1,442.73,302.5Z" style="fill:#BA68C8;opacity:0.05901000000000001"></path><path d="M443.56,301.86a.42.42,0,0,1,.07-.6.44.44,0,0,1,.31-.09.41.41,0,0,1,.29.16.43.43,0,0,1-.39.69A.39.39,0,0,1,443.56,301.86Z" style="fill:#BA68C8;opacity:0.049207999999999995"></path><path d="M444.38,301.22a.34.34,0,0,1-.08-.29.4.4,0,0,1,.14-.27.46.46,0,0,1,.3-.08.46.46,0,0,1,.26.15.43.43,0,0,1,.08.29.41.41,0,0,1-.15.27.43.43,0,0,1-.29.08A.4.4,0,0,1,444.38,301.22Z" style="fill:#BA68C8;opacity:0.039406"></path><path d="M445.2,300.58a.38.38,0,0,1-.08-.27.33.33,0,0,1,.14-.24.32.32,0,0,1,.27-.07.38.38,0,0,1,.24.13.42.42,0,0,1,.07.27.33.33,0,0,1-.14.24.35.35,0,0,1-.26.07A.34.34,0,0,1,445.2,300.58Z" style="fill:#BA68C8;opacity:0.029604"></path><path d="M446,299.94a.37.37,0,0,1-.07-.25.33.33,0,0,1,.37-.28.35.35,0,0,1,.21.12.3.3,0,0,1,.07.24.34.34,0,0,1-.12.22.36.36,0,0,1-.24.07A.34.34,0,0,1,446,299.94Z" style="fill:#BA68C8;opacity:0.019802"></path><path d="M447.11,298.82a.27.27,0,0,1,.19.11.29.29,0,0,1,.06.22.27.27,0,0,1-.11.19.29.29,0,0,1-.22.06.24.24,0,0,1-.19-.11.26.26,0,0,1-.06-.21.31.31,0,0,1,.11-.2A.33.33,0,0,1,447.11,298.82Z" style="fill:#BA68C8;opacity:0.01"></path><path d="M365.34,363a1.92,1.92,0,1,1,2.69.33A1.9,1.9,0,0,1,365.34,363Z" style="fill:#fafafa"></path><path d="M379.84,366.61a2.08,2.08,0,0,1,.36-2.93,2.08,2.08,0,1,1-.36,2.93Z" style="fill:#BA68C8"></path><path d="M380.2,366.33a2,2,0,0,1-.43-1.52,2.07,2.07,0,0,1,3.68-1,2.07,2.07,0,0,1-.36,2.9,2.07,2.07,0,0,1-1.52.42A2,2,0,0,1,380.2,366.33Z" style="fill:#BA68C8;opacity:0.9901979999999999"></path><path d="M380.55,366.05a2,2,0,0,1-.42-1.5,2.1,2.1,0,0,1,.77-1.37,2,2,0,0,1,1.51-.41,2,2,0,0,1,1.78,2.27,2,2,0,0,1-.77,1.37,2.09,2.09,0,0,1-1.51.42A2.05,2.05,0,0,1,380.55,366.05Z" style="fill:#BA68C8;opacity:0.9803959999999999"></path><path d="M380.91,365.78a2,2,0,0,1,.34-2.85,2.07,2.07,0,0,1,1.5-.41,2,2,0,1,1-.49,4A2,2,0,0,1,380.91,365.78Z" style="fill:#BA68C8;opacity:0.970594"></path><path d="M381.26,365.5a2,2,0,0,1-.41-1.48,2,2,0,0,1,.76-1.34,2,2,0,0,1,2.81.35,2,2,0,0,1,.41,1.48,2,2,0,0,1-3.57,1Z" style="fill:#BA68C8;opacity:0.960792"></path><path d="M381.62,365.22a2,2,0,0,1,1.8-3.19,2,2,0,0,1,1.33.75,2,2,0,0,1-.35,2.78,2,2,0,0,1-1.46.41A2,2,0,0,1,381.62,365.22Z" style="fill:#BA68C8;opacity:0.9509900000000001"></path><path d="M382,364.94a2,2,0,0,1,1.79-3.16,1.94,1.94,0,0,1,1.31.74,1.9,1.9,0,0,1,.4,1.45,2,2,0,0,1-2.19,1.72A2,2,0,0,1,382,364.94Z" style="fill:#BA68C8;opacity:0.9411879999999999"></path><path d="M382.33,364.67a1.92,1.92,0,0,1-.4-1.44,1.95,1.95,0,0,1,3.47-1,1.9,1.9,0,0,1,.39,1.44,1.94,1.94,0,0,1-3.46,1Z" style="fill:#BA68C8;opacity:0.9313859999999999"></path><path d="M382.68,364.39a1.91,1.91,0,0,1-.39-1.42,1.92,1.92,0,0,1,3.43-1,1.93,1.93,0,0,1-1.75,3.1A1.94,1.94,0,0,1,382.68,364.39Z" style="fill:#BA68C8;opacity:0.921584"></path><path d="M383,364.11a1.92,1.92,0,0,1-.4-1.41,1.92,1.92,0,0,1,3.41-.94,1.93,1.93,0,0,1,.39,1.41,1.91,1.91,0,0,1-2.13,1.66A1.86,1.86,0,0,1,383,364.11Z" style="fill:#BA68C8;opacity:0.911782"></path><path d="M383.39,363.84a1.89,1.89,0,0,1,.33-2.66,1.87,1.87,0,0,1,1.39-.38,1.85,1.85,0,0,1,1.26.71,1.88,1.88,0,0,1,.39,1.39,1.9,1.9,0,0,1-.72,1.26,1.89,1.89,0,0,1-2.65-.32Z" style="fill:#BA68C8;opacity:0.9019800000000001"></path><path d="M383.75,363.56a1.86,1.86,0,0,1,.32-2.63,1.83,1.83,0,0,1,1.38-.38,1.87,1.87,0,0,1,1.24.7,1.91,1.91,0,0,1,.39,1.38,1.87,1.87,0,0,1-.71,1.25,1.85,1.85,0,0,1-1.38.38A1.8,1.8,0,0,1,383.75,363.56Z" style="fill:#BA68C8;opacity:0.8921779999999999"></path><path d="M384.1,363.28a1.84,1.84,0,0,1-.38-1.36,1.87,1.87,0,0,1,.7-1.24,1.9,1.9,0,0,1,1.37-.38,1.87,1.87,0,0,1,1.23.7,1.91,1.91,0,0,1,.38,1.37,1.86,1.86,0,0,1-2.07,1.61A1.87,1.87,0,0,1,384.1,363.28Z" style="fill:#BA68C8;opacity:0.8823759999999999"></path><path d="M384.46,363a1.76,1.76,0,0,1-.38-1.35,1.82,1.82,0,0,1,2-1.59,1.78,1.78,0,0,1,1.22.69,1.86,1.86,0,0,1,.38,1.35,1.82,1.82,0,0,1-2,1.59A1.78,1.78,0,0,1,384.46,363Z" style="fill:#BA68C8;opacity:0.872574"></path><path d="M384.81,362.73a1.8,1.8,0,0,1-.37-1.34,1.85,1.85,0,0,1,.68-1.21,1.8,1.8,0,0,1,1.34-.37,1.81,1.81,0,0,1,1.58,2,1.82,1.82,0,0,1-.69,1.21,1.76,1.76,0,0,1-1.33.37A1.85,1.85,0,0,1,384.81,362.73Z" style="fill:#BA68C8;opacity:0.862772"></path><path d="M385.17,362.45a1.75,1.75,0,0,1-.37-1.32,1.77,1.77,0,0,1,.67-1.2,1.8,1.8,0,0,1,1.33-.36,1.75,1.75,0,0,1,1.19.67,1.79,1.79,0,0,1,.37,1.32,1.82,1.82,0,0,1-.68,1.2,1.77,1.77,0,0,1-1.32.36A1.73,1.73,0,0,1,385.17,362.45Z" style="fill:#BA68C8;opacity:0.8529700000000001"></path><path d="M385.52,362.17a1.75,1.75,0,0,1-.36-1.31,1.77,1.77,0,0,1,2-1.54,1.75,1.75,0,0,1,1.19.67,1.78,1.78,0,0,1-.31,2.49,1.78,1.78,0,0,1-2.49-.31Z" style="fill:#BA68C8;opacity:0.8431679999999999"></path><path d="M385.88,361.89a1.7,1.7,0,0,1-.36-1.29,1.73,1.73,0,0,1,.66-1.17,1.75,1.75,0,0,1,2.46.3,1.76,1.76,0,0,1-.3,2.47,1.82,1.82,0,0,1-1.3.36A1.73,1.73,0,0,1,385.88,361.89Z" style="fill:#BA68C8;opacity:0.8333659999999999"></path><path d="M386.23,361.62a1.73,1.73,0,0,1,1.58-2.79,1.68,1.68,0,0,1,1.15.65,1.73,1.73,0,0,1,.36,1.28,1.72,1.72,0,0,1-1.93,1.51A1.74,1.74,0,0,1,386.23,361.62Z" style="fill:#BA68C8;opacity:0.823564"></path><path d="M386.59,361.34a1.7,1.7,0,0,1-.36-1.27,1.76,1.76,0,0,1,.65-1.14,1.73,1.73,0,0,1,1.27-.35,1.68,1.68,0,0,1,1.14.65,1.72,1.72,0,0,1,.35,1.26,1.7,1.7,0,0,1-.65,1.15,1.7,1.7,0,0,1-2.4-.3Z" style="fill:#BA68C8;opacity:0.813762"></path><path d="M386.94,361.06a1.7,1.7,0,0,1-.35-1.25,1.72,1.72,0,0,1,.64-1.13,1.7,1.7,0,0,1,1.25-.35,1.68,1.68,0,0,1,1.13.64,1.7,1.7,0,0,1,.35,1.25,1.64,1.64,0,0,1-.64,1.13,1.69,1.69,0,0,1-2.38-.29Z" style="fill:#BA68C8;opacity:0.8039600000000001"></path><path d="M387.3,360.78a1.65,1.65,0,0,1-.35-1.23,1.69,1.69,0,0,1,.63-1.12,1.71,1.71,0,0,1,1.24-.34,1.67,1.67,0,0,1,1.46,1.87,1.67,1.67,0,0,1-3,.82Z" style="fill:#BA68C8;opacity:0.7941579999999999"></path><path d="M387.65,360.51a1.68,1.68,0,0,1-.34-1.23,1.64,1.64,0,0,1,.63-1.1,1.66,1.66,0,0,1,1.22-.34,1.64,1.64,0,0,1,1.1.63,1.66,1.66,0,0,1,.34,1.22,1.63,1.63,0,0,1-.62,1.1,1.68,1.68,0,0,1-1.23.34A1.63,1.63,0,0,1,387.65,360.51Z" style="fill:#BA68C8;opacity:0.7843559999999999"></path><path d="M388,360.23a1.63,1.63,0,0,1,.28-2.3,1.58,1.58,0,0,1,1.21-.33,1.66,1.66,0,0,1,1.09.61,1.63,1.63,0,0,1,.33,1.21,1.65,1.65,0,0,1-1.82,1.43A1.59,1.59,0,0,1,388,360.23Z" style="fill:#BA68C8;opacity:0.774554"></path><path d="M388.36,360a1.62,1.62,0,0,1,2.55-2,1.62,1.62,0,0,1-1.47,2.6A1.64,1.64,0,0,1,388.36,360Z" style="fill:#BA68C8;opacity:0.764752"></path><path d="M388.72,359.68a1.61,1.61,0,0,1,.27-2.25,1.59,1.59,0,0,1,2.25.28A1.61,1.61,0,0,1,391,360a1.59,1.59,0,0,1-2.24-.27Z" style="fill:#BA68C8;opacity:0.75495"></path><path d="M389.07,359.4a1.59,1.59,0,1,1,1.05.59A1.58,1.58,0,0,1,389.07,359.4Z" style="fill:#BA68C8;opacity:0.745149"></path><path d="M389.43,359.12a1.57,1.57,0,0,1,.26-2.19,1.59,1.59,0,0,1,1.16-.32,1.54,1.54,0,0,1,1,.59,1.52,1.52,0,0,1,.32,1.15,1.55,1.55,0,0,1-.58,1,1.59,1.59,0,0,1-1.16.32A1.54,1.54,0,0,1,389.43,359.12Z" style="fill:#BA68C8;opacity:0.735347"></path><path d="M389.78,358.84a1.56,1.56,0,0,1-.32-1.13,1.52,1.52,0,0,1,.59-1,1.56,1.56,0,0,1,1.13-.32,1.54,1.54,0,0,1,1,.59,1.51,1.51,0,0,1,.31,1.13,1.49,1.49,0,0,1-.58,1,1.51,1.51,0,0,1-1.13.31A1.47,1.47,0,0,1,389.78,358.84Z" style="fill:#BA68C8;opacity:0.725545"></path><path d="M390.14,358.57a1.51,1.51,0,0,1,.26-2.14,1.52,1.52,0,1,1-.26,2.14Z" style="fill:#BA68C8;opacity:0.715743"></path><path d="M390.49,358.29a1.57,1.57,0,0,1-.31-1.11,1.49,1.49,0,0,1,.57-1,1.5,1.5,0,0,1,2.11.26,1.55,1.55,0,0,1,.31,1.11,1.51,1.51,0,0,1-2.68.74Z" style="fill:#BA68C8;opacity:0.7059409999999999"></path><path d="M390.84,358a1.49,1.49,0,0,1,.26-2.08,1.46,1.46,0,0,1,1.09-.3,1.42,1.42,0,0,1,1,.56,1.47,1.47,0,0,1-.25,2.08,1.49,1.49,0,0,1-1.1.3A1.54,1.54,0,0,1,390.84,358Z" style="fill:#BA68C8;opacity:0.696139"></path><path d="M391.2,357.73a1.42,1.42,0,0,1-.3-1.08,1.46,1.46,0,0,1,.55-1,1.44,1.44,0,0,1,1.08-.3,1.47,1.47,0,1,1-1.33,2.35Z" style="fill:#BA68C8;opacity:0.686337"></path><path d="M391.55,357.46a1.45,1.45,0,0,1-.29-1.07,1.41,1.41,0,0,1,.54-1,1.46,1.46,0,0,1,1.07-.3,1.42,1.42,0,0,1,1,.55,1.44,1.44,0,0,1,.3,1.06,1.46,1.46,0,0,1-.55,1,1.43,1.43,0,0,1-1.06.29A1.45,1.45,0,0,1,391.55,357.46Z" style="fill:#BA68C8;opacity:0.676535"></path><path d="M391.91,357.18a1.43,1.43,0,0,1,1.3-2.29,1.41,1.41,0,0,1,1.24,1.59,1.45,1.45,0,0,1-1.59,1.24A1.45,1.45,0,0,1,391.91,357.18Z" style="fill:#BA68C8;opacity:0.666733"></path><path d="M392.27,356.9a1.36,1.36,0,0,1-.29-1,1.37,1.37,0,0,1,.53-.94,1.4,1.4,0,0,1,1-.29,1.45,1.45,0,0,1,.94.53,1.42,1.42,0,0,1,.29,1,1.41,1.41,0,0,1-.53.93,1.38,1.38,0,0,1-1,.29A1.33,1.33,0,0,1,392.27,356.9Z" style="fill:#BA68C8;opacity:0.6569309999999999"></path><path d="M392.62,356.62a1.32,1.32,0,0,1-.28-1,1.36,1.36,0,0,1,.52-.92,1.33,1.33,0,0,1,1-.28,1.36,1.36,0,0,1,.92.52,1.38,1.38,0,0,1,.29,1,1.4,1.4,0,0,1-1.55,1.21A1.37,1.37,0,0,1,392.62,356.62Z" style="fill:#BA68C8;opacity:0.647129"></path><path d="M393,356.35a1.3,1.3,0,0,1-.28-1,1.32,1.32,0,0,1,.51-.91,1.39,1.39,0,0,1,1-.28,1.36,1.36,0,0,1,.91.51,1.39,1.39,0,0,1,.28,1,1.34,1.34,0,0,1-.52.91,1.32,1.32,0,0,1-1,.28A1.36,1.36,0,0,1,393,356.35Z" style="fill:#BA68C8;opacity:0.637327"></path><path d="M393.33,356.07a1.34,1.34,0,0,1-.28-1,1.38,1.38,0,0,1,.51-.9,1.35,1.35,0,0,1,1-.28,1.38,1.38,0,0,1,.89.51,1.35,1.35,0,1,1-2.12,1.66Z" style="fill:#BA68C8;opacity:0.627525"></path><path d="M393.68,355.79a1.33,1.33,0,0,1,.23-1.86,1.31,1.31,0,0,1,1-.27,1.33,1.33,0,0,1,.89.5,1.35,1.35,0,0,1,.27,1,1.29,1.29,0,0,1-.5.88,1.31,1.31,0,0,1-1,.27A1.33,1.33,0,0,1,393.68,355.79Z" style="fill:#BA68C8;opacity:0.617723"></path><path d="M394,355.52a1.34,1.34,0,0,1-.27-1,1.29,1.29,0,0,1,.5-.87,1.3,1.3,0,0,1,1.83.22,1.34,1.34,0,0,1,.27,1,1.31,1.31,0,0,1-.49.87,1.34,1.34,0,0,1-1,.27A1.31,1.31,0,0,1,394,355.52Z" style="fill:#BA68C8;opacity:0.6079209999999999"></path><path d="M394.39,355.24a1.32,1.32,0,0,1-.26-.95,1.29,1.29,0,0,1,2.3-.64,1.32,1.32,0,0,1,.26,1,1.29,1.29,0,0,1-.49.86,1.3,1.3,0,0,1-1.81-.22Z" style="fill:#BA68C8;opacity:0.598119"></path><path d="M394.75,355a1.27,1.27,0,1,1,2.26-.63,1.26,1.26,0,0,1-.48.85,1.27,1.27,0,0,1-.93.26A1.26,1.26,0,0,1,394.75,355Z" style="fill:#BA68C8;opacity:0.588317"></path><path d="M395.1,354.68a1.25,1.25,0,0,1,1.14-2,1.28,1.28,0,0,1,.84.47,1.26,1.26,0,0,1-.22,1.76,1.27,1.27,0,0,1-1.76-.22Z" style="fill:#BA68C8;opacity:0.578515"></path><path d="M395.46,354.41a1.23,1.23,0,0,1-.25-.91,1.21,1.21,0,0,1,.46-.82,1.23,1.23,0,0,1,.91-.25,1.19,1.19,0,0,1,.82.46,1.21,1.21,0,0,1,.25.91,1.27,1.27,0,0,1-.46.82,1.23,1.23,0,0,1-.91.25A1.27,1.27,0,0,1,395.46,354.41Z" style="fill:#BA68C8;opacity:0.568713"></path><path d="M395.81,354.13a1.23,1.23,0,0,1-.24-.9,1.17,1.17,0,0,1,.45-.8,1.2,1.2,0,0,1,.9-.25,1.22,1.22,0,0,1,1.05,1.35,1.23,1.23,0,0,1-.45.81,1.3,1.3,0,0,1-.9.25A1.25,1.25,0,0,1,395.81,354.13Z" style="fill:#BA68C8;opacity:0.5589109999999999"></path><path d="M396.17,353.85a1.18,1.18,0,0,1-.24-.88,1.15,1.15,0,0,1,.45-.79,1.21,1.21,0,0,1,.87-.25,1.19,1.19,0,0,1,1,1.33,1.19,1.19,0,0,1-1.33,1A1.19,1.19,0,0,1,396.17,353.85Z" style="fill:#BA68C8;opacity:0.549109"></path><path d="M396.52,353.57a1.22,1.22,0,0,1-.24-.86,1.17,1.17,0,0,1,.45-.78,1.13,1.13,0,0,1,.86-.24,1.16,1.16,0,0,1,.78.44,1.14,1.14,0,0,1,.24.86,1.18,1.18,0,0,1-.44.79,1.22,1.22,0,0,1-.86.24A1.19,1.19,0,0,1,396.52,353.57Z" style="fill:#BA68C8;opacity:0.539307"></path><path d="M396.88,353.3a1.16,1.16,0,0,1-.24-.85,1.17,1.17,0,0,1,1.29-1,1.2,1.2,0,0,1,.77.44,1.17,1.17,0,0,1-.2,1.62,1.17,1.17,0,0,1-1.62-.2Z" style="fill:#BA68C8;opacity:0.529505"></path><path d="M397.23,353a1.18,1.18,0,0,1-.23-.84,1.12,1.12,0,0,1,.43-.75,1.13,1.13,0,0,1,.84-.23,1.1,1.1,0,0,1,.75.42,1.13,1.13,0,0,1,.23.84,1.1,1.1,0,0,1-.42.75,1.14,1.14,0,0,1-.84.24A1.2,1.2,0,0,1,397.23,353Z" style="fill:#BA68C8;opacity:0.519703"></path><path d="M397.59,352.74a1.13,1.13,0,0,1-.23-.82,1.15,1.15,0,0,1,.42-.74,1.08,1.08,0,0,1,.82-.23,1.1,1.1,0,0,1,.75.42,1.12,1.12,0,0,1,.22.82,1,1,0,0,1-.42.74,1.07,1.07,0,0,1-.82.23A1.1,1.1,0,0,1,397.59,352.74Z" style="fill:#BA68C8;opacity:0.5099009999999999"></path><path d="M397.94,352.46a1.1,1.1,0,0,1-.22-.8,1.09,1.09,0,0,1,.41-.73,1.08,1.08,0,0,1,1.54.19,1,1,0,0,1,.22.8,1.05,1.05,0,0,1-.41.73,1.1,1.1,0,0,1-.81.23A1.12,1.12,0,0,1,397.94,352.46Z" style="fill:#BA68C8;opacity:0.500099"></path><path d="M398.3,352.19a1.12,1.12,0,0,1-.22-.8,1.05,1.05,0,0,1,.4-.71,1,1,0,0,1,.8-.22,1.1,1.1,0,0,1,.72.4,1.07,1.07,0,0,1-.19,1.51,1.08,1.08,0,0,1-1.51-.18Z" style="fill:#BA68C8;opacity:0.490297"></path><path d="M398.65,351.91a1.11,1.11,0,0,1-.21-.78,1,1,0,0,1,.4-.7,1.07,1.07,0,0,1,.78-.22,1,1,0,0,1,.7.4,1.06,1.06,0,0,1-1,1.7A1.09,1.09,0,0,1,398.65,351.91Z" style="fill:#BA68C8;opacity:0.480495"></path><path d="M399,351.63a1,1,0,0,1,.18-1.45,1,1,0,0,1,1.67.94,1.06,1.06,0,0,1-.39.69,1,1,0,0,1-1.46-.18Z" style="fill:#BA68C8;opacity:0.470693"></path><path d="M399.36,351.35a1,1,0,0,1,.93-1.63,1,1,0,0,1,.68.38,1,1,0,0,1,.21.75,1.06,1.06,0,0,1-.39.68,1,1,0,0,1-.75.21A1,1,0,0,1,399.36,351.35Z" style="fill:#BA68C8;opacity:0.460891"></path><path d="M399.72,351.08a1,1,0,0,1-.2-.74,1,1,0,0,1,1.11-.87,1,1,0,0,1,.49,1.78,1,1,0,0,1-.74.2A1,1,0,0,1,399.72,351.08Z" style="fill:#BA68C8;opacity:0.45108899999999996"></path><path d="M400.07,350.8a1,1,0,0,1-.2-.72,1,1,0,0,1,.37-.65,1,1,0,0,1,.73-.2,1,1,0,0,1,.65.37,1,1,0,0,1-.89,1.57A1,1,0,0,1,400.07,350.8Z" style="fill:#BA68C8;opacity:0.441287"></path><path d="M400.43,350.52a1,1,0,0,1-.2-.7,1,1,0,0,1,.36-.64,1,1,0,0,1,1.35.16,1,1,0,0,1,.2.71,1,1,0,0,1-.36.64,1,1,0,0,1-.71.19A.93.93,0,0,1,400.43,350.52Z" style="fill:#BA68C8;opacity:0.431485"></path><path d="M400.78,350.25a1,1,0,0,1-.19-.7.91.91,0,0,1,.36-.62.93.93,0,0,1,1.32.16,1,1,0,0,1,.19.69.93.93,0,0,1-.36.63.92.92,0,0,1-.69.19A1,1,0,0,1,400.78,350.25Z" style="fill:#BA68C8;opacity:0.421683"></path><path d="M401.14,350a.91.91,0,0,1-.19-.68.93.93,0,0,1,1-.8,1,1,0,0,1,.61.34.91.91,0,0,1,.19.68.94.94,0,0,1-.35.62,1,1,0,0,1-.68.19A.94.94,0,0,1,401.14,350Z" style="fill:#BA68C8;opacity:0.411881"></path><path d="M401.49,349.69a.9.9,0,0,1,.16-1.26.85.85,0,0,1,.66-.19.92.92,0,0,1,.6.34.88.88,0,0,1,.19.67.94.94,0,0,1-.34.6.91.91,0,0,1-1.27-.16Z" style="fill:#BA68C8;opacity:0.40207899999999996"></path><path d="M401.85,349.41a.87.87,0,0,1,.15-1.23.87.87,0,0,1,.65-.18.85.85,0,0,1,.59.33.86.86,0,0,1,.18.65.91.91,0,0,1-.33.59,1,1,0,0,1-.65.18A.9.9,0,0,1,401.85,349.41Z" style="fill:#BA68C8;opacity:0.392277"></path><path d="M402.2,349.14a.88.88,0,0,1-.17-.64.87.87,0,0,1,.32-.57.85.85,0,0,1,.64-.18.87.87,0,0,1,.57.32.85.85,0,0,1,.18.64.87.87,0,0,1-.32.57.85.85,0,0,1-.64.18A.92.92,0,0,1,402.2,349.14Z" style="fill:#BA68C8;opacity:0.382475"></path><path d="M402.56,348.86a.83.83,0,0,1-.17-.62.8.8,0,0,1,.31-.56.84.84,0,0,1,1.19.14.83.83,0,0,1,.17.62.85.85,0,0,1-.32.56.83.83,0,0,1-.62.18A.87.87,0,0,1,402.56,348.86Z" style="fill:#BA68C8;opacity:0.372673"></path><path d="M402.91,348.58a.85.85,0,0,1-.16-.61.76.76,0,0,1,.31-.54.78.78,0,0,1,.6-.17.8.8,0,0,1,.55.31.79.79,0,0,1,.17.6.78.78,0,0,1-.31.55.81.81,0,0,1-.61.17A.8.8,0,0,1,402.91,348.58Z" style="fill:#BA68C8;opacity:0.362871"></path><path d="M403.27,348.3a.78.78,0,0,1,.14-1.12A.81.81,0,0,1,404,347a.84.84,0,0,1,.54.3.82.82,0,0,1,.16.6.78.78,0,0,1-.3.53.79.79,0,0,1-1.13-.14Z" style="fill:#BA68C8;opacity:0.35306899999999997"></path><path d="M403.62,348a.82.82,0,0,1-.16-.58.8.8,0,0,1,.3-.52.78.78,0,0,1,.58-.17.8.8,0,0,1,.52.3.77.77,0,0,1,.16.58.75.75,0,0,1-.29.52.77.77,0,0,1-.58.16A.79.79,0,0,1,403.62,348Z" style="fill:#BA68C8;opacity:0.343267"></path><path d="M404,347.75a.78.78,0,0,1-.16-.56.83.83,0,0,1,.29-.52.79.79,0,0,1,.57-.15.75.75,0,0,1,.51.29.76.76,0,0,1,.15.56.73.73,0,0,1-.29.51.76.76,0,0,1-.56.16A.8.8,0,0,1,404,347.75Z" style="fill:#BA68C8;opacity:0.333465"></path><path d="M404.33,347.47a.78.78,0,0,1-.15-.55.79.79,0,0,1,.28-.5.78.78,0,0,1,.55-.15.79.79,0,0,1,.5.28.7.7,0,0,1,.15.55.75.75,0,0,1-.28.5.7.7,0,0,1-.55.15A.75.75,0,0,1,404.33,347.47Z" style="fill:#BA68C8;opacity:0.323663"></path><path d="M404.69,347.19a.72.72,0,0,1-.15-.53.76.76,0,0,1,.27-.49.71.71,0,0,1,.54-.14.72.72,0,0,1,.63.81.7.7,0,0,1-.27.48.76.76,0,0,1-.54.15A.71.71,0,0,1,404.69,347.19Z" style="fill:#BA68C8;opacity:0.313861"></path><path d="M405,346.92a.76.76,0,0,1-.14-.52.68.68,0,0,1,.27-.48.75.75,0,0,1,.52-.14.68.68,0,0,1,.47.27.66.66,0,0,1,.14.52.7.7,0,0,1-.26.47.67.67,0,0,1-.52.14A.7.7,0,0,1,405,346.92Z" style="fill:#BA68C8;opacity:0.30405899999999997"></path><path d="M405.4,346.64a.68.68,0,0,1-.14-.51.7.7,0,0,1,.26-.46.72.72,0,0,1,.51-.14.7.7,0,0,1,.45.26.64.64,0,0,1,.14.51.68.68,0,0,1-.26.46.7.7,0,0,1-.5.14A.66.66,0,0,1,405.4,346.64Z" style="fill:#BA68C8;opacity:0.294257"></path><path d="M405.75,346.36a.67.67,0,0,1-.13-.49.71.71,0,0,1,.25-.45.67.67,0,0,1,.49-.13.68.68,0,0,1,.45.25.63.63,0,0,1,.13.49.65.65,0,0,1-.25.45.63.63,0,0,1-.49.13A.67.67,0,0,1,405.75,346.36Z" style="fill:#BA68C8;opacity:0.284455"></path><path d="M406.11,346.09a.67.67,0,0,1,.11-.92.66.66,0,0,1,1,.59.7.7,0,0,1-.25.44.64.64,0,0,1-.48.13A.63.63,0,0,1,406.11,346.09Z" style="fill:#BA68C8;opacity:0.274653"></path><path d="M406.46,345.81a.66.66,0,0,1,.11-.89.67.67,0,0,1,.47-.12.66.66,0,0,1,.42.23.68.68,0,0,1,.13.47.63.63,0,0,1-1.13.31Z" style="fill:#BA68C8;opacity:0.264851"></path><path d="M406.82,345.53a.61.61,0,0,1-.13-.45.6.6,0,0,1,.68-.53.62.62,0,0,1,.54.68.6.6,0,0,1-.68.53A.61.61,0,0,1,406.82,345.53Z" style="fill:#BA68C8;opacity:0.25505"></path><path d="M407.17,345.25a.56.56,0,0,1-.12-.43.61.61,0,0,1,.23-.4.56.56,0,0,1,.43-.12.61.61,0,0,1,.4.23.6.6,0,0,1,.12.43.61.61,0,0,1-.23.4.66.66,0,0,1-.43.12A.61.61,0,0,1,407.17,345.25Z" style="fill:#BA68C8;opacity:0.245248"></path><path d="M407.53,345a.57.57,0,0,1-.12-.43.58.58,0,0,1,.22-.38.57.57,0,0,1,.42-.11.54.54,0,0,1,.38.21.61.61,0,0,1,.12.42.57.57,0,0,1-.22.38.54.54,0,0,1-.42.12A.58.58,0,0,1,407.53,345Z" style="fill:#BA68C8;opacity:0.235446"></path><path d="M407.88,344.7a.56.56,0,0,1-.11-.41.59.59,0,0,1,.21-.37.55.55,0,0,1,.41-.11.54.54,0,0,1,.36.21.56.56,0,0,1,.12.41.54.54,0,0,1-.21.36.57.57,0,0,1-.41.12A.59.59,0,0,1,407.88,344.7Z" style="fill:#BA68C8;opacity:0.22564399999999998"></path><path d="M408.24,344.42a.5.5,0,0,1-.11-.39.53.53,0,0,1,.59-.47.55.55,0,0,1,.47.6.55.55,0,0,1-.2.35.54.54,0,0,1-.4.11A.49.49,0,0,1,408.24,344.42Z" style="fill:#BA68C8;opacity:0.21584199999999998"></path><path d="M408.59,344.14a.5.5,0,0,1-.1-.37.53.53,0,0,1,.19-.35.52.52,0,0,1,.38-.1.47.47,0,0,1,.34.19.53.53,0,0,1,.11.38.52.52,0,0,1-.2.34.51.51,0,0,1-.37.11A.55.55,0,0,1,408.59,344.14Z" style="fill:#BA68C8;opacity:0.20604000000000003"></path><path d="M409,343.87a.51.51,0,0,1,.08-.7.55.55,0,0,1,.37-.1.51.51,0,0,1,.33.19.52.52,0,0,1,.1.36.49.49,0,0,1-.19.33.47.47,0,0,1-.36.1A.48.48,0,0,1,409,343.87Z" style="fill:#BA68C8;opacity:0.196238"></path><path d="M409.3,343.59a.45.45,0,0,1-.09-.35.48.48,0,0,1,.84-.24.51.51,0,0,1,.1.35.48.48,0,0,1-.53.42A.52.52,0,0,1,409.3,343.59Z" style="fill:#BA68C8;opacity:0.186436"></path><path d="M409.66,343.31a.41.41,0,0,1-.09-.33.44.44,0,0,1,.17-.31.49.49,0,0,1,.33-.09.44.44,0,0,1,.31.17.52.52,0,0,1,.09.34.44.44,0,0,1-.17.3.42.42,0,0,1-.34.09A.4.4,0,0,1,409.66,343.31Z" style="fill:#BA68C8;opacity:0.17663399999999999"></path><path d="M410,343a.45.45,0,0,1-.09-.32.51.51,0,0,1,.17-.29.46.46,0,0,1,.32-.09.44.44,0,0,1,.29.17.46.46,0,0,1,.09.32.43.43,0,0,1-.16.29.49.49,0,0,1-.33.09A.42.42,0,0,1,410,343Z" style="fill:#BA68C8;opacity:0.16683199999999998"></path><path d="M410.37,342.76a.44.44,0,0,1-.09-.31.45.45,0,0,1,.16-.28.39.39,0,0,1,.31-.08.43.43,0,0,1,.28.15.48.48,0,0,1,.08.31.4.4,0,0,1-.16.28.38.38,0,0,1-.3.08A.39.39,0,0,1,410.37,342.76Z" style="fill:#BA68C8;opacity:0.15703"></path><path d="M410.72,342.48a.43.43,0,0,1-.08-.29.4.4,0,0,1,.45-.35.41.41,0,0,1,.26.15.39.39,0,0,1,.08.29.37.37,0,0,1-.15.27.43.43,0,0,1-.29.08A.43.43,0,0,1,410.72,342.48Z" style="fill:#BA68C8;opacity:0.147228"></path><path d="M411.08,342.2a.38.38,0,0,1,.06-.53.39.39,0,0,1,.53.07.36.36,0,0,1,.08.28.4.4,0,0,1-.14.25.39.39,0,0,1-.53-.07Z" style="fill:#BA68C8;opacity:0.137426"></path><path d="M411.43,341.93a.38.38,0,0,1-.07-.27.35.35,0,0,1,.14-.24.35.35,0,0,1,.26-.07.36.36,0,0,1,.18.64.37.37,0,0,1-.27.07A.38.38,0,0,1,411.43,341.93Z" style="fill:#BA68C8;opacity:0.127624"></path><path d="M411.79,341.65a.32.32,0,0,1-.07-.25.36.36,0,0,1,.13-.23.37.37,0,0,1,.25-.07.32.32,0,0,1,.22.13.34.34,0,0,1-.06.48.37.37,0,0,1-.25.07A.38.38,0,0,1,411.79,341.65Z" style="fill:#BA68C8;opacity:0.117822"></path><path d="M412.14,341.37a.34.34,0,0,1-.06-.24.3.3,0,0,1,.12-.21.33.33,0,0,1,.45.06.31.31,0,0,1,.06.23.32.32,0,0,1-.57.16Z" style="fill:#BA68C8;opacity:0.10802"></path><path d="M412.5,341.09a.29.29,0,0,1-.06-.22.31.31,0,0,1,.11-.2.29.29,0,0,1,.22-.06.29.29,0,0,1,.26.33.29.29,0,0,1-.11.2.29.29,0,0,1-.22.07A.28.28,0,0,1,412.5,341.09Z" style="fill:#BA68C8;opacity:0.098218"></path><path d="M412.85,340.82a.31.31,0,0,1-.05-.21.3.3,0,0,1,.1-.19.39.39,0,0,1,.21-.06.31.31,0,0,1,.19.11.3.3,0,0,1,.05.21.25.25,0,0,1-.1.18.27.27,0,0,1-.21.06A.3.3,0,0,1,412.85,340.82Z" style="fill:#BA68C8;opacity:0.088416"></path><path d="M413.21,340.54a.27.27,0,0,1,0-.19.24.24,0,0,1,.09-.18.29.29,0,0,1,.2-.05.23.23,0,0,1,.17.1.25.25,0,0,1,.05.19.22.22,0,0,1-.09.17.25.25,0,0,1-.2.06A.27.27,0,0,1,413.21,340.54Z" style="fill:#BA68C8;opacity:0.078614"></path><path d="M413.56,340.26a.27.27,0,0,1-.05-.18.23.23,0,0,1,.1-.16.22.22,0,0,1,.17-.05.26.26,0,0,1,.17.09.28.28,0,0,1,0,.18.2.2,0,0,1-.09.16.23.23,0,0,1-.18.05A.26.26,0,0,1,413.56,340.26Z" style="fill:#BA68C8;opacity:0.068812"></path><path d="M413.92,340a.22.22,0,0,1-.05-.16.24.24,0,0,1,.09-.15.18.18,0,0,1,.16,0,.19.19,0,0,1,.15.08.25.25,0,0,1,.05.16.21.21,0,0,1-.09.15.24.24,0,0,1-.16.05A.21.21,0,0,1,413.92,340Z" style="fill:#BA68C8;opacity:0.05901000000000001"></path><path d="M414.27,339.71a.28.28,0,0,1,0-.15.22.22,0,0,1,.08-.14.19.19,0,0,1,.15,0,.18.18,0,0,1,.13.08.2.2,0,0,1,.05.15.22.22,0,0,1-.08.13.2.2,0,0,1-.15,0A.19.19,0,0,1,414.27,339.71Z" style="fill:#BA68C8;opacity:0.049207999999999995"></path><path d="M414.63,339.43a.18.18,0,0,1,0-.14.19.19,0,0,1,.07-.12.23.23,0,0,1,.14,0,.21.21,0,0,1,.12.07.23.23,0,0,1,0,.14.24.24,0,0,1-.07.12.23.23,0,0,1-.14,0A.19.19,0,0,1,414.63,339.43Z" style="fill:#BA68C8;opacity:0.039406"></path><path d="M415,339.15a.17.17,0,0,1,0-.12.24.24,0,0,1,.06-.11.14.14,0,0,1,.12,0,.14.14,0,0,1,.11.06.17.17,0,0,1,0,.12.19.19,0,0,1-.07.11.12.12,0,0,1-.12,0A.14.14,0,0,1,415,339.15Z" style="fill:#BA68C8;opacity:0.029604"></path><path d="M415.34,338.87a.12.12,0,0,1,0-.1.12.12,0,0,1,.05-.1.2.2,0,0,1,.11,0,.21.21,0,0,1,.1.06.14.14,0,0,1,0,.2.19.19,0,0,1-.1,0A.17.17,0,0,1,415.34,338.87Z" style="fill:#BA68C8;opacity:0.019802"></path><path d="M415.81,338.39a.13.13,0,0,1,.11.15.12.12,0,0,1-.14.1.13.13,0,0,1-.09,0,.12.12,0,0,1,0-.1.1.1,0,0,1,.05-.08A.12.12,0,0,1,415.81,338.39Z" style="fill:#BA68C8;opacity:0.01"></path></g></g></svg>
